<?xml version="1.0" encoding="utf-8"?>
<!-- Generator: Adobe Illustrator 18.0.0, SVG Export Plug-In . SVG Version: 6.00 Build 0)  -->
<!DOCTYPE svg PUBLIC "-//W3C//DTD SVG 1.1//EN" "http://www.w3.org/Graphics/SVG/1.1/DTD/svg11.dtd">
<svg version="1.1" id="Layer_1" xmlns="http://www.w3.org/2000/svg" xmlns:xlink="http://www.w3.org/1999/xlink" x="0px" y="0px"
	 viewBox="0 0 900 624" enable-background="new 0 0 900 624" xml:space="preserve">
<g>
	<path fill="#FFFFFF" d="M899.9,618.2c-3.2-0.1-7,0.7-5.8-4.7c0.3-1.2-0.8-1.9-1.5-2.7c-14.3-16.6-27.4-34.1-37.7-53.5
		C836,521.5,817,485.8,798.1,450c-1.5-2.9-3.2-5.6-5.8-7.8c-1.4-1.2-2.6-2.5-2.4-4.7c0.2-1.6-0.3-2.6-2-3.9c-2-1.6-3.8-4.1-4.7-7.3
		c-1.9-6.2-5.1-11.9-8-17.8c-23.8-48-47.2-96.3-73.2-143.2c-3.3-6-6.5-12-12-16.4c-5.2-4.2-10.7-7.3-17.6-7.7
		c-7.5-0.5-12.4-5.4-16.4-11.1c-10.1-14.4-20-28.8-30-43.3c-6-8.7-12-17.4-18.5-25.7c-5.7-7.4-22-7.4-28.2-0.6
		c-17.7,19.4-32.7,40.6-45.9,63.2c-3.2,5.6-6.7,10.8-14.2,12.4c-1.9,0.4-5.4,4.9-6.5,8.1c-1.2,3.5-3.2,3-5.6,3c-6.5,0-6.5,0-6.6-6.1
		c0-1.4-0.1-2.7-0.7-4c-14.1-29.3-26.8-59.3-43.4-87.4c-3.9-6.6-8.6-12.4-14.6-17.3c-27-22-49.7-47.8-69.6-76.2
		c-7.9-11.3-16.7-22.1-24.4-33.5C341.3,13,332.5,6.9,322,2.7c-1.8-0.7-3.9-0.9-5.2-2.7c-2.2,0-4.4,0-6.6,0
		c-11.6,0.8-21,6.7-29.8,13.3c-13.6,10.1-27,20.6-40.1,31.4c-8.2,6.8-14.1,16.1-21,24.3c-11.5,13.7-22,28.2-33.2,42.2
		c-11.8,14.7-25.6,27.1-41.2,37.6c-32.6,21.9-66.1,42.4-99.7,62.8c-2,1.2-4,2.4-6.1,3.4c-10.9,5.1-19.3,13.5-28,21.5
		c-3.4,3.1-8.1,4.2-11.2,7.5c0,1.2,0,2.5,0,3.7c6,9.1,15.5,8.2,24.6,8.2c0.9,0,1.3-0.5,2-1c25.5-18.4,51.7-35.8,79.7-50.2
		c8.5-4.4,18-6.9,26.9-10.7c19.7-8.5,37.6-20.1,55-32.5c17.8-12.8,36.2-24.1,57.2-31.1c10.3-3.4,18.7-10,24.9-18.9
		c4.8-6.8,9.3-13.8,13.8-20.9c2.6-4.1,6-9.5,12.4-10.3c2-0.3,3.4-2.5,4.5-4.4c0.4-0.7,0.7-1.3,1.6-1.2c1.4,0.1,1.2,1.2,1.1,2.1
		c-2.1,17.1-2.4,34.4-7.4,51c-1.4,4.5-3.9,7.6-8.8,9.3c-6.5,2.2-12.6,5.3-18.8,8.2c-7.4,3.6-12.5,9.5-16.2,16.8
		c-4.9,9.9-11.8,18.6-23.1,20.7c-5.9,1.1-9.4,5.3-14.5,7.2c-1.1,0.4-1.6,2.3-3.2,3.2c-1.2,0.6-0.4,1.9,1.3,2.3
		c21.5,4.8,43.5,6.1,65.3,8.4c6.2,0.6,12.4,1.6,18.5,2.6c2.8,0.5,5.1,0.2,7-2.2c1.1-1.4,2.2-3.1,4.4-3.1c1.7,0,1.2-1.4,1.4-2.4
		c0.6-5.1-1.3-9.1-5.3-12.2c-3-2.3-6.1-4.3-9.2-6.5c-4.1-2.8-3.4-5,0.1-8.2c6.6-5.9,15-8.1,22.5-12.2c8.2-4.4,12.6-12.1,15-20.6
		c3.3-11.6,8.5-22.6,11.6-34.3c0.5-2.1,8.8-5.2,10.7-4.3c0.7,0.3,0.7,0.9,0.9,1.4c4.9,11.9,9.2,23.9,12.4,36.4
		c3.2,12.6,6.9,25.1,10.4,37.6c3.6,12.5,7.8,24.8,12.9,36.8c5.5,12.9,11.9,25.2,19.8,36.8c19.3,28.2,39.2,56,55.7,86
		c4.6,8.4,8.7,17.1,12.6,25.9c2.8,6.4,3.9,13.1,3.4,20c-0.4,4.8,3,7.1,6.1,9.1c3.2,2.1,5.4,0.1,5.6-3.9c1-15-2.9-29.1-7.8-43.2
		c-9.9-28.4-23.6-54.9-39.8-80.2c-17.9-27.8-29.2-58.4-38.8-89.8c-1.6-5.4-0.3-11.1-0.6-16.7c-0.1-1.5,0.9-1.7,2.1-1.7
		c4.7,0,9.4,0,14.1,0c1.5,0,2.3,0.9,3.1,1.8c2.6,2.8,6,4.8,9.2,6.9c1.5,1,1.6,2.6,2.2,3.9c15.9,36.2,29.4,73.3,44.1,110
		c25.3,62.8,56,122.6,97.7,176.5c23.5,30.3,49.9,57.6,82.5,78.4c18.2,11.6,38.1,19.6,58.1,27.6c9.6,3.8,19.4,7.3,28,13.6
		c3,2.2,7.3,2.8,10,6.4c1,1.3,4.9,1.1,7.1-0.1c1.4-0.8,1.1-4.1,0.3-4.6c-2.8-1.7-4.6-4.3-6.7-6.6c-15.3-15.9-35.6-25-53.3-37.6
		c-19.9-14.2-39.8-28.4-59.8-42.5c-28.1-19.9-49-45.6-65.4-75.4c-12.7-23.1-25.7-46-37.7-69.5c-11.4-22.3-8.5-43.8,8.7-62.1
		c3.6-3.9,7.6-7.4,11.3-11.1c12.4-12.4,26.6-14.3,43.1-9c14.5,4.7,24.7,13.6,30.7,27.3c10.2,23.3,17.5,47.7,25.3,71.9
		c9.3,28.9,18.6,57.8,27.8,86.8c0.7,2.1,1.6,3.9,3.1,5.6c2.2,2.6,4,5.5,3.9,9.2c-0.1,2.7-0.7,5.6,2.7,7.2c0.5,0.2,0.7,1.9,2.1,1.5
		c1.5-0.5,0.8-1.8,0.9-2.8c1.1-7.5-1.7-14.4-4.2-21.2c-1.3-3.4-1.7-6.9-1.5-10.5c0.1-1-0.5-2.3,0.9-2.7c1.4-0.4,1.4,1,2,1.7
		c4.4,4.1,7,9.7,11.3,13.9c10.9,10.3,16.9,24.4,26.7,35.5c4.4,5,8.7,11.1,17.1,9.3c2.8-0.6,4.2,1.5,5.8,3.2c1.5,1.7,3.2,3,5.6,2.5
		c1-0.2,2.3,0.6,2.7-1c0.3-1.4-0.6-1.9-1.9-1.9c-0.9,0-1-0.8-0.9-1.3c0.7-2.8-1.6-3.8-2.8-5.6c-4.5-6.9-8.6-14-12.6-21.2
		c-17-30.8-34.2-61.5-48.6-93.6c-3.8-8.5-7.1-17.2-10.5-25.8c-1.5-3.9-1.1-8.1-0.4-11.9c0.3-1.7,2.4-4.7,5.9-4.3c3,0.3,4,3,5,4.9
		c0.8,1.5,0.5,3.1,2.6,4.5c1.8,1.3,4.5,3.7,3.5,7.3c-0.2,0.8,0.7,2,1.2,2.9c35.4,62.3,70.3,124.9,106.4,186.8
		c2.8,4.8,6.8,8.8,8.5,14.3c0.3,0.9,2.2,3.1,4,3.6c0.9,0.3,1.5,0.7,1.3,1.5c-0.8,3.9,2.5,5.2,4.7,7.1c0.5,0.4,1,0.7,1,1.3
		c0.3,5.2,3.8,8.2,7.6,11c8.6,6.3,15.8,14.1,23.5,21.3c5.3,5,10.7,10,16.2,14.7c2.9,2.4,5.7,7.1,10.9,6.9c0.7,0,1.9,1,1.8,2.4
		C901.9,624.9,899.4,620.6,899.9,618.2z"/>
</g>
</svg>
