<?xml version="1.0" encoding="utf-8"?>
<!-- Generator: Adobe Illustrator 18.0.0, SVG Export Plug-In . SVG Version: 6.00 Build 0)  -->
<!DOCTYPE svg PUBLIC "-//W3C//DTD SVG 1.1//EN" "http://www.w3.org/Graphics/SVG/1.1/DTD/svg11.dtd">
<svg version="1.1" id="Layer_1" xmlns="http://www.w3.org/2000/svg" xmlns:xlink="http://www.w3.org/1999/xlink" x="0px" y="0px"
	 viewBox="0 0 904 427" enable-background="new 0 0 904 427" xml:space="preserve">
<g>
	<path fill="#FFFFFF" d="M594,146.5c5.1-20.7,10.4-40.4,14.7-60.3c3.5-15.8,5.8-31.8,8.7-47.8c1.4-7.4,2.9-14.8,4.3-22.2
		c0.5-3,0.7-6,1.1-9c0.3-2,0.3-3.8,3.7-2.8c5.1,1.6,10.7,1.7,15.9,3.1c4.2,1.1,8.5-0.8,12.6-1.9c9.5-2.6,9.7-2.8,11.4,6.8
		c2.5,13.2,4.4,26.5,7,39.6c3.7,19,6.8,38.2,11.8,57c3.1,11.6,5.4,23.5,8.5,35.1c1.4,5.3,2.4,10.7,4.1,15.9
		c-6.1,1.4-12.1,2.9-18.2,4.1c-1.9,0.4-3.5,0.3-3.9-2.6c-1.6-11.2-3.4-22.4-5.4-33.5c-2.6-14.6-5.2-29.2-8.4-43.7
		c-2.7-12-5.5-24-8.4-36c-2.9-11.9-6.7-23.6-9-35.9c-1.8,6.6-4.1,13.1-5.4,19.9c-1.7,9.4-4.6,18.5-6.7,27.9
		c-4.2,18.5-8.6,37-11.9,55.7c-2.7,15.4-5.1,30.8-8.2,46.1c-0.5,2.5-1.7,2.5-3.3,2.2c-2.8-0.6-5.6-1.4-8.3-2.2
		c-6.9-2-13.4,0.1-20,1.9c-3,0.8-4.8,0.5-5.2-2.9c-0.6-4.4-1.6-8.7-1.9-13.1c-0.2-4.1-1.8-8-2.4-12.1c-1.4-10.6-4.2-21-5.4-31.7
		c-0.7-5.7-2.7-11.2-3.8-16.9c-1.4-8.1-4.5-15.7-5.7-23.8c-1.2-7.8-4.4-15-5.5-22.7c-1.4-9.8-5.7-18.9-6.8-28.8
		c-3.6,14.2-7.3,28.4-10.7,42.6c-2.1,8.8-4,17.6-6.1,26.4c-2.2,9.5-4,19-5.9,28.5c-1.9,9.7-3.6,19.5-5.3,29.3
		c-1.4,7.7-2.6,15.5-3.9,23.2c-0.4,2.3-1.9,2.9-3.9,2.3c-4.7-1.4-9.5-2.2-14.3-3c-2.6-0.4-3.6-1.5-2.8-4.6
		c4.2-16.5,7.8-33.1,12.2-49.6c2.8-10.3,4.6-20.8,7.1-31.2c0.8-3.4,1-7,1.7-10.5c1.6-8.1,2.7-16.4,4.4-24.5
		c2.1-10.4,3.2-20.9,5.9-31.1c0.3-1,0.1-1.9,0.1-2.8c0.1-2.3,1.1-3.7,3.9-3c4.9,1.3,9.9,2.6,14.9,3.6c2.2,0.4,4.5,0.6,6.7-0.5
		c4.7-2.1,10-1.2,14.8-3.1c1.8-0.7,2.1,1.2,2.3,2.3c2.2,12.5,4.2,25.1,6.3,37.6c0.8,4.8,2.2,9.6,3,14.4c1.7,10.8,3.7,21.6,6.2,32.2
		c2.7,11.9,5.4,23.8,8.5,35.6C590.8,132.5,592.4,139,594,146.5z"/>
	<path fill="#FFFFFF" d="M113.3,11.4c-3,7.3-3.8,14.6-5.9,21.6c-2.7,9-4.6,18.2-6.7,27.4c-3,13.2-6.5,26.3-8.9,39.7
		c-1.7,9.7-3.1,19.6-5.5,29.2c-1.7,7.1-2.3,14.4-3.5,21.6c-0.6,4-1.5,7.9-2.2,11.8c-0.2,1.1-0.1,1.7-1.8,1.3
		c-5.3-1.2-10.6-1.8-15.9-2.7c-2.4-0.4-3.6-1.5-2.8-4.4c5.3-20.8,10.8-41.7,15.5-62.7c2.3-10.5,4.9-21,5.9-31.8
		c0.5-4.7,2.4-9.4,3-14.3c1.3-10.8,4.3-21.4,5.5-32.2c0.4-3.5,1.8-6.8,2.1-10.3c0.3-3.1,2.7-1.7,4.1-1.5c4.5,0.8,9.1,1.5,13.4,3
		c3,1,5.7,0.6,8.1-0.5c4.2-1.8,8.6-1.5,12.8-2.7c1.3-0.4,2.6-0.5,3.2,1.9c2.2,8.8,2.3,17.9,4.7,26.5c1.9,6.9,1.6,14,3.6,20.7
		c2.7,8.9,3.7,18.2,5.3,27.3c2.3,13,5.5,25.8,8.8,38.5c2.5,9.6,3.6,19.6,7.5,28.9c1.4,3.3,1.4,7.1,2.1,10.7c0.5,2.4-1.7,2.4-2.9,2.6
		c-5.4,1.1-10.9,1.8-16.3,2.9c-2,0.4-1.4-0.6-1.6-1.5c-1.5-8.4-3.4-16.8-4.5-25.3c-1.2-9.5-3.4-18.8-5-28.2
		c-1.5-8.5-2.8-17.1-5-25.5c-4.4-17.5-8-35.2-12.9-52.6C116,24.8,114.8,18.3,113.3,11.4z"/>
	<path fill="#FFFFFF" d="M328.3,11.7c-2.9,7-3.7,14.4-5.8,21.5c-2.7,8.9-4.3,18-6.7,27c-3.1,11.5-5.2,23.2-7.9,34.9
		c-2.6,11.4-4.1,23-6.5,34.4c-1.7,8.2-2.5,16.7-4.2,24.9c0,0.2,0,0.5,0,0.8c-0.5,2.8-0.2,6.5-1.8,8.3c-1.8,2-5.2-0.6-7.9-0.7
		c-3.2-0.1-6.4-1.3-9.6-1.6c-2.3-0.2-3.1-1.5-2.7-4.2c1.2-7.4,4-14.4,5.7-21.7c3.4-15.2,7.8-30.1,10.8-45.3
		c1.9-9.2,3.2-18.7,5.3-27.7c2.1-9.3,2.9-18.8,5.3-28c2.4-8.9,2.9-18.2,4.8-27.3c0.7-3.4,2.1-3.2,4.2-2.8c4.6,0.9,9.3,1.6,13.8,3.2
		c2.9,1,5.5,0.5,7.7-0.4c4.2-1.8,8.6-1.5,12.8-2.8c1.8-0.5,2.7,0.1,3.4,2.5c2.4,8.6,2.2,17.7,4.7,26.2c1.9,6.7,1.6,13.7,3.6,20.3
		c2.8,9,3.8,18.4,5.4,27.6c2.3,12.9,5.5,25.5,8.7,38.2c2.4,9.6,3.7,19.6,7.5,29c1.3,3.3,1.5,7.1,2.2,10.7c0.2,0.9,0.3,1.9-1.3,2.2
		c-6.1,1.1-12.2,2.5-18.4,3.6c-1.1,0.2-0.9-0.9-1-1.6c-1.3-6.7-2.7-13.3-3.8-20c-1.3-8.6-2.6-17.1-4.4-25.6c-2-9.3-3-18.9-5-28.2
		c-1.7-7.8-3.9-15.6-5.7-23.4C337.2,47.5,332.7,29.8,328.3,11.7z"/>
	<path fill="#FFFFFF" d="M220,414.6c2.6-7.3,4.2-14.7,5.9-22.1c1.4-6.2,3.4-12.2,4.9-18.4c2.5-10.7,6-21.2,7.6-32
		c1.8-11.9,4.2-23.8,6.1-35.7c1.7-10.5,3.1-21.1,5.7-31.5c0.4-1.5,1.1-1.5,2.1-1.4c5.5,1,11.1,2,16.6,3.1c1.6,0.3,2.6,0.6,1.7,3.3
		c-2,5.7-2.8,11.9-4.3,17.9c-2.1,8.6-4.5,17.2-6.6,25.8c-1.4,5.7-2.2,11.6-3.8,17.2c-2,7.1-3.3,14.4-4.6,21.6
		c-2.9,16.5-5.9,33-8.8,49.6c-0.5,3-1.1,5.9-1.5,8.9c-0.3,2.4-2,1.6-3.2,1.3c-4.6-0.9-9.2-1.6-13.6-3c-3.6-1.1-6.7-0.2-10,0.6
		c-4.1,1-8.2,1.8-12.3,2.6c-1.4,0.3-2-0.1-2.5-1.8c-2.6-10-3-20.4-5.5-30.4c-1.4-5.6-1.5-11.7-2.8-17.5c-2.3-10.4-3.6-21-6.3-31.4
		c-5-19.5-9.6-39.2-14.4-58.8c-1.2-4.9-1.2-4.9,4.1-6.1c4.5-1,9-2,13.6-2.9c1.2-0.2,1.9-0.1,2.3,1.5c2.1,8.7,2.5,17.7,4.7,26.3
		c2.1,8.6,2.3,17.4,4.9,25.9c1.6,5.2,1.4,10.9,2.8,16.1c2.4,8.9,3.7,18,6.6,26.8c1.7,5.4,2.3,11.3,3.7,16.8
		C215.4,396.2,217.7,405.3,220,414.6z"/>
	<path fill="#FFFFFF" d="M772.8,8.2c-0.1,0.4-0.3,0.7-0.3,1.1c0.5,12-0.5,24-0.9,35.9c-0.7,22.1-1,44.2-0.6,66.3
		c0.3,14.7,1.4,29.5,1.4,44.2c0,0.6,0.2,1.3,0.4,1.8c1,2.7,0.4,4-2.8,3.8c-5.1-0.2-10.2-0.2-15.4,0c-3.1,0.1-3.6-1.3-2.7-3.6
		c0.5-1.3,0.5-2.5,0.4-3.8c-0.4-11.6,0.4-23.2,1-34.8c1-19.8,0.6-39.6,0.3-59.4c-0.1-8.9,0.2-17.9-0.7-26.7
		c-0.8-7.7-0.4-15.3-0.6-22.9c0-2-2-4.4-0.5-5.8c1.6-1.5,4.4-0.5,6.7-0.5c5.8-0.1,11.5-0.2,17.3,0c12.6,0.5,25.2,1,37.7,1.7
		c11.4,0.7,22.7,0.7,34,0.4c13.2-0.4,26.4-1.2,39.6-1.4c3.1-0.1,6.2-0.9,9.4-0.8c1.8,0.1,2.4,0.6,2.4,2.4c-0.1,5.6-0.1,11.3,0,16.9
		c0,2-0.8,2.3-2.5,2.3c-7.9-0.1-15.9,0.7-23.8-0.2c-6.8-0.8-13.5,0.3-20.1-0.7c-10.8-1.5-21.7-1-32.4-0.5
		c-8.2,0.3-16.4,0.1-24.6,1.2c-6.8,0.9-13.8,0.2-20.7,0.2c-2,0-1.9-1.2-1.9-2.5c0-4.8,0-9.7,0-14.5C773.1,8.3,773,8.2,772.8,8.2z"/>
	<path fill="#FFFFFF" d="M594.1,243.2c-2.2,8.9-3.2,17.4-4.3,25.9c-0.3,2.7-1.5,3-3.9,2.4c-5.2-1.3-10.5-2.5-15.8-3.4
		c-1.8-0.3-2.2-1-1.8-2.5c2-7.4,4.1-14.7,6-22.1c0.7-3,1.5-5.9,1.4-9.2c-0.1-2.4,2.4-4.8,3.1-7.7c2.3-9.3,4.1-18.7,5.4-28.1
		c0.7-5.1-1.9-10.3-3.3-15.4c-1-3.4-1.7-6.8-2.8-10.2c-0.6-1.9,0-3.2,1.6-3.4c5.8-0.7,10.9-5.1,16.9-3.5c4.3,1.1,8.5,2.6,12.7,3.8
		c1.4,0.4,1.2,1.7,0.8,3.1c-1.9,7.5-4.4,14.8-5.9,22.4c-0.8,4.2,0.4,8,1.1,11.8c1.3,6.9,2.3,13.9,4.4,20.7c0.6,1.8,0.8,3.5,2.3,5
		c1.6,1.8-0.2,4.3,0.6,6.8c2.2,6.9,3.7,14,6.1,20.9c0.6,1.8,0.1,3.8,0.9,5.6c0.3,0.8,0.1,1.6-1.2,1.9c-5.9,1.2-11.7,2.5-17.6,3.8
		c-1.6,0.3-2.4-0.1-2.6-2.1C597.1,261.1,596.2,252.4,594.1,243.2z"/>
	<path fill="#FFFFFF" d="M435.4,415.4c3.1-7.4,4.2-15.3,6.3-23c1.7-6.4,3.3-12.8,4.9-19.2c2.7-11,5.7-21.9,7.9-32.9
		c2.5-12.5,3.9-25.1,6.5-37.6c1.9-9.2,2.6-18.6,5.1-27.7c0.4-1.4,0.9-1.7,2-1.6c6.3,0.6,12.3,2.1,18.4,3.8c1.3,0.4,1.2,1.1,0.9,2
		c-4.6,14.7-8,29.8-11.6,44.7c-3.1,13-6.1,26.2-8.4,39.4c-2,11.1-4,22.3-6.2,33.4c-1.3,7-2.9,14.1-3.5,21.3c-0.2,2.3,0,5-4.3,3.7
		c-5.8-1.7-11.9-2.3-17.9-3.4C434.5,417.4,434.5,416.4,435.4,415.4z"/>
	<path fill="#FFFFFF" d="M719,273.3c2.1-0.2,2.5,0.7,3,2.7c1.6,5.7,2.5,11.6,3.2,17.4c1.1,8.9,3.8,17.4,4.5,26.4
		c0.4,5.2,2.4,10.2,3,15.5c1.3,11,4.5,21.7,7.1,32.4c2.7,11,4.9,22.3,8.4,33.1c1.5,4.8,1.6,9.9,3.5,14.6c0.9,2.2-0.4,3.4-2.8,3.7
		c-5,0.7-10.1,1.3-14.9,2.7c-2.7,0.8-3.2-0.2-3.6-2.1c-1.7-10.2-3.5-20.3-5.3-30.5c-2.2-13-4.4-26-7.2-38.9
		c-3.1-14.2-6.6-28.4-10-42.6c-2.3-9.4-4.7-18.7-7.1-28c-0.3-1.2-0.9-2.1,0.9-2.5C707.5,275.9,713.2,274.6,719,273.3z"/>
	<path fill="#FFFFFF" d="M435.4,415.4c0,1,0,2,0,2.9c-5.7,1.2-11.4,2.3-17.1,3.7c-2.5,0.6-3.1,0.4-3.8-2.5
		c-2.7-9.6-2.8-19.6-5.4-29.3c-1.5-5.6-1.5-11.7-2.8-17.5c-2.4-10.6-3.7-21.5-6.5-32.1c-5.1-19.4-9.5-38.9-14.2-58.4
		c-0.2-0.7,0-1.5-0.6-2.2c-2.1-2.4,0-3.2,1.7-3.6c5.5-1.2,11.1-2.1,16.6-3.2c1.3-0.2,1.8,0.2,2.2,1.7c2.2,8.7,2.6,17.7,4.7,26.3
		c2.1,8.7,2.4,17.7,4.9,26.3c1.6,5.3,1.2,11.2,2.8,16.5c2.5,8.5,3.6,17.3,6.4,25.7c1.9,6,2.7,12.5,4.2,18.6
		C430.8,397.6,433.1,406.5,435.4,415.4z"/>
	<path fill="#FFFFFF" d="M5.2,415c1.3-4.5,3.1-9.1,3.9-13.9c1.8-10.6,5.8-20.7,7.4-31.4c0.8-5.3,2.8-10.8,4.2-16.2
		c2.4-9.4,3.8-18.9,5.5-28.4c2.6-14.5,5.3-28.9,7.4-43.5c0.3-2.4,1.8-4.4,1.6-6.9c-0.1-1.4,1-1.4,1.9-1.2c5.6,1.3,11.3,2.3,17,3.2
		c1.3,0.2,2.4,0.6,1.6,3.1c-2,6-2.9,12.4-4.4,18.6c-2.1,8.4-4.4,16.7-6.5,25.1c-1.4,5.7-2.3,11.6-3.8,17.2
		c-1.8,6.8-3.2,13.6-4.4,20.5c-2.9,17-6,34-9.1,51c-0.5,2.8-1.2,5.6-1.5,8.5c-0.2,1.7-1,2-2.2,1.7c-5.6-1.2-11.4-2.1-16.9-3.7
		C4.3,418,5.8,416.3,5.2,415z"/>
	<path fill="#FFFFFF" d="M762.5,422.4c-2.8,0-5.6-0.1-8.4,0c-2.3,0.1-2.7-1-2-2.8c0.3-0.9,0.6-1.7,0.5-2.6
		c-0.5-11.2,0.4-22.4,1-33.6c0.9-18.3,0.6-36.5,0.5-54.7c-0.1-9.3,0.1-18.6-0.9-27.8c-0.8-7.5,0.6-15-1.2-22.4
		c-0.5-2.2,0.9-3,2.9-2.8c5.7,0.5,11.3,1.3,17,0.5c1.9-0.3,1.8,1.8,1.3,2.8c-0.9,1.9-0.6,3.8-0.6,5.6c0.3,11.6-0.4,23.2-1,34.8
		c-0.9,18.1-0.6,36.2-0.4,54.3c0.2,14.3,1.2,28.7,1.4,43.1c0.1,5.7,0.4,5.7-5.5,5.7C765.6,422.4,764.1,422.4,762.5,422.4z"/>
	<path fill="#FFFFFF" d="M491.6,165.7c5.6,1.3,11.2,2.8,16.8,4c2,0.4,1.6,1.7,1.2,2.8c-2.9,9.6-5.3,19.3-7.8,29
		c-2.8,11.3-5.8,22.7-7.5,34.3c-1.2,8.6-2.2,17.2-4.3,25.7c-0.6,2.5-0.7,5.2-0.9,7.9c-0.2,2.4-1.3,2.8-3.2,2.4
		c-5.5-1.2-10.9-2.7-16.5-3.7c-2.1-0.4-2-1.2-1.8-2.8c0.6-4.9,3-9.2,4-14c3.1-13.8,7.4-27.4,9.9-41.3c1.7-9.1,3.4-18.3,4.4-27.6
		c0.5-4.9,0.6-10,2.8-14.7C489.7,166.2,490.2,165.8,491.6,165.7z"/>
	<path fill="#FFFFFF" d="M697.2,165.8c2.8,0.8,2.7,3.8,2.9,5.5c2,15.9,4.6,31.6,7.8,47.3c1.9,9.6,4.9,18.9,7.1,28.5
		c1.4,6.2,3.6,12.2,5.1,18.4c0.4,1.6,0.3,2.4-1.8,2.8c-5.5,1-11,2.5-16.4,3.7c-1.8,0.4-2.8,0-3.2-2.4c-2.9-17.9-4.9-35.9-9.2-53.5
		c-3.5-14.4-7.3-28.6-11.1-43c-0.3-1.3-1.3-2.7,1-3.2C685.4,168.4,691.2,167.1,697.2,165.8z"/>
	<path fill="#FFFFFF" d="M58.8,165.4c5.2,2.3,10.8,2.7,16.4,3.5c3,0.4,4,1.2,3.2,4.3c-2.5,8.9-4.7,17.9-7.1,26.8
		c-4.2,15.4-7.5,31-9.6,46.8c-1,7.4-3,14.5-3.3,22c-0.1,1.8-0.7,2.8-2.9,2.4c-5.5-1.1-11-2.2-16.6-3c-2.2-0.3-2.2-1.2-1.7-2.8
		c2.9-10.5,6.2-20.8,8.7-31.4c2.5-10.7,5.3-21.4,6.6-32.5c0.9-8.2,2.8-16.4,4-24.6C56.9,173,57,169,58.8,165.4z"/>
	<path fill="#FFFFFF" d="M166.8,165.4c2.8,3.8,2.1,8.5,2.9,12.8c1.9,11.4,3.7,22.8,5.8,34.1c2.2,12,5.8,23.6,8.5,35.5
		c1.3,5.9,4.1,11.3,4.7,17.4c0.2,1.9,0.3,2.6-1.9,2.9c-5.4,0.8-10.9,1.8-16.2,3c-2.2,0.5-2.9-0.3-3.1-2.2c-0.7-9.4-2.7-18.7-4.1-28
		c-1.8-12.3-4.2-24.5-7.6-36.5c-2.9-10.2-5.5-20.5-8.1-30.7c-0.7-2.7-0.5-4.5,3.3-4.9C156.1,168.2,161.7,167.7,166.8,165.4z"/>
	<path fill="#FFFFFF" d="M273.9,165.4c5.3,2.2,10.9,2.7,16.4,3.5c2.8,0.4,3.8,1.1,3,4.1c-2.5,9-4.8,18.1-7.2,27.2
		c-4.1,15.4-7.6,31-9.5,46.8c-0.9,7.4-3.1,14.5-3.3,22c-0.1,2-0.9,2.7-3.1,2.2c-5.5-1.2-11-2.2-16.6-3c-2-0.3-2-1.3-1.6-2.6
		c2.9-10.5,6.1-20.9,8.7-31.4c2.5-10.4,5.1-20.7,6.6-31.3c1.2-8.6,2.7-17.2,4-25.7C271.9,173.2,271.9,169.1,273.9,165.4z"/>
	<path fill="#FFFFFF" d="M381.9,165.3c3.2,6.1,2.2,12.8,3.5,19.1c3.3,17.1,5.4,34.5,10.3,51.3c2.9,9.9,5.3,19.8,8,29.7
		c0.4,1.6,0.3,2.4-1.8,2.7c-5.6,0.8-11.1,1.9-16.6,3c-1.6,0.3-2.7-0.1-2.8-1.7c-0.6-9.3-2.7-18.4-4.2-27.6
		c-1.5-9.2-2.4-18.6-5.3-27.7c-1.8-5.5-2.6-11.3-4-16.9c-2-7.8-4.3-15.6-6.4-23.4c-1-3.8-0.5-4.3,3.5-5
		C371.2,167.9,376.7,167.7,381.9,165.3z"/>
	<path fill="#FFFFFF" d="M762.7,270.3c-2.9,0-5.9,0-8.8,0c-1.4,0-2.4-0.4-2-1.9c1.7-5.6,0.7-11.3,1.3-17c1.6-16.7,1.2-33.4,0.9-50.1
		c-0.2-10.7-1.4-21.4-2.1-32.2c-0.1-1.1,0.1-1.7,1.4-1.7c6.1,0,12.3,0,18.4,0c1.4,0,2,0.8,1.6,1.9c-1.8,5.6-0.7,11.3-1.3,17
		c-1.6,16.4-1.3,32.9-0.8,49.4c0.3,9.9,1.4,19.7,1.4,29.6c0,0.7,0.3,1.5,0.5,2.2c0.8,2.3-0.1,3-2.3,2.9
		C768,270.2,765.4,270.3,762.7,270.3z"/>
	<path fill="#FFFFFF" d="M826.3,184.3c-14.8,0.6-28,0.9-41.2,1.7c-3.3,0.2-6.5,0.6-9.8,0.6c-1,0-2.3,0.1-1.9-1.5
		c1.4-5.3,0.4-10.6,0.6-16c0.1-2.5,0.9-3.4,3.4-3.3c13.1,0.8,26.3,1.8,39.4,2.2c6.2,0.2,12.5,1,18.6-0.6c0.2-0.1,0.5-0.1,0.8-0.1
		c12.2,0.2,24.3-0.9,36.5-1.6c3-0.2,3.7,0.8,3.5,3.6c-0.2,4.6-0.2,9.2,0,13.8c0.1,2.6-0.5,3.6-3.3,3.4c-9.2-0.6-18.5-1.4-27.7-1.5
		C838.4,185.2,831.6,183.7,826.3,184.3z"/>
	<path fill="#FFFFFF" d="M158.9,243c0,0.1,0,0.3,0,0.4c0,10.7,0,10.8-10.8,9.9c-10-0.8-20.1-0.9-30.1-1.6c-13-0.8-25.9,0.8-38.8,1.1
		c-3.2,0.1-6.6,0.5-9.9,0.7c-1.9,0.1-2.8-0.3-2.7-2.5c0.1-5.4,0.1-10.7,0-16.1c0-1.7,0.5-2.3,2.2-2.2c6.6,0.3,13.2,0.4,19.8,1
		c2.5,0.3,5,0.3,7.6,0.5c10.5,0.9,21.1,0.1,31.6-0.1c9.1-0.2,18.3-0.8,27.4-1.5c3.2-0.2,4,1,3.7,3.8
		C158.7,238.6,158.9,240.8,158.9,243z"/>
	<path fill="#FFFFFF" d="M281.8,243.2c0-1.4,0-2.8,0-4.2c0-6.3,0-6.5,6.1-6.2c11.4,0.6,22.8,2.1,34.2,2c8.4-0.1,16.8-0.1,25.1-0.9
		c0.5,0,1-0.3,1.5-0.3c7.5-0.3,15-0.5,22.5-0.9c2.2-0.1,2.8,0.6,2.8,2.8c-0.1,5-0.2,10,0,15c0.1,2.3-0.4,3.2-2.9,3.1
		c-8.6-0.4-17.2-0.7-25.9-1.5c-3.9-0.4-8,0.3-11.9-0.2c-8.8-1-17.5,0-26.2,0.3c-7.5,0.2-14.9,0.9-22.4,1.4c-2.4,0.2-3.2-0.7-3-3
		C282,248.1,281.8,245.6,281.8,243.2z"/>
</g>
</svg>
