<svg id="Layer_5" enable-background="new 0 0 64 64" height="512" viewBox="0 0 64 64" width="512" xmlns="http://www.w3.org/2000/svg" xmlns:xlink="http://www.w3.org/1999/xlink"><linearGradient id="SVGID_1_" gradientUnits="userSpaceOnUse" x1="32" x2="32" y1="63" y2="1"><stop offset="0" stop-color="#9f2fff"/><stop offset="1" stop-color="#0bb1d3"/></linearGradient><path d="m26 29v1c0 .551.449 1 1 1h2c1.654 0 3 1.346 3 3v3h-3v2h-2v-2c-1.654 0-3-1.346-3-3h2c0 .551.449 1 1 1h3v-1c0-.551-.449-1-1-1h-2c-1.654 0-3-1.346-3-3v-3h3v-2h2v2c1.654 0 3 1.346 3 3h-2c0-.551-.449-1-1-1zm37 3c0 4.962-4.038 9-9 9-4.624 0-8.441-3.507-8.941-8h-6.11c-.207 2.283-1.111 4.366-2.501 6.034l6.508 6.508c.952-.345 1.974-.542 3.044-.542 4.962 0 9 4.038 9 9s-4.038 9-9 9-9-4.038-9-9c0-3.141 1.621-5.908 4.067-7.519l-6.033-6.033c-1.909 1.591-4.361 2.552-7.034 2.552-3.153 0-5.992-1.341-8-3.474v19.474c0 2.206-1.794 4-4 4-1.2 0-2.266-.542-3-1.382-.734.84-1.8 1.382-3 1.382-2.206 0-4-1.794-4-4v-18h-1c-2.206 0-4-1.794-4-4v-10c0-5.129 3.241-9.504 7.777-11.218-2.263-1.415-3.777-3.922-3.777-6.782 0-4.411 3.589-8 8-8s8 3.589 8 8c0 2.86-1.514 5.367-3.777 6.782 2.858 1.083 5.254 3.232 6.603 6.046 1.288-.531 2.696-.828 4.174-.828 2.673 0 5.125.961 7.034 2.552l6.033-6.033c-2.446-1.611-4.067-4.378-4.067-7.519 0-4.962 4.038-9 9-9s9 4.038 9 9-4.038 9-9 9c-1.07 0-2.092-.197-3.044-.541l-6.508 6.508c1.391 1.667 2.294 3.751 2.501 6.034h6.11c.5-4.493 4.317-8 8.941-8 4.962-.001 9 4.037 9 8.999zm-17-15c1.631 0 3.13-.565 4.321-1.504-.885-1.534-2.513-2.496-4.321-2.496s-3.436.962-4.321 2.496c1.191.939 2.69 1.504 4.321 1.504zm0-6c1.103 0 2-.897 2-2s-.897-2-2-2-2 .897-2 2 .897 2 2 2zm-7-1c0 1.492.473 2.873 1.271 4.01.708-1.021 1.655-1.834 2.763-2.351-.635-.708-1.034-1.634-1.034-2.659 0-2.206 1.794-4 4-4s4 1.794 4 4c0 1.025-.399 1.951-1.034 2.659 1.108.517 2.055 1.33 2.763 2.351.798-1.137 1.271-2.518 1.271-4.01 0-3.86-3.14-7-7-7s-7 3.14-7 7zm7 51c1.631 0 3.13-.565 4.321-1.504-.885-1.534-2.513-2.496-4.321-2.496s-3.436.962-4.321 2.496c1.191.939 2.69 1.504 4.321 1.504zm0-6c1.103 0 2-.897 2-2s-.897-2-2-2-2 .897-2 2 .897 2 2 2zm0-8c-3.86 0-7 3.14-7 7 0 1.492.473 2.873 1.271 4.01.708-1.021 1.655-1.834 2.763-2.351-.635-.708-1.034-1.634-1.034-2.659 0-2.206 1.794-4 4-4s4 1.794 4 4c0 1.025-.399 1.951-1.034 2.659 1.108.517 2.055 1.33 2.763 2.351.798-1.137 1.271-2.518 1.271-4.01 0-3.86-3.14-7-7-7zm-35.508-25.929.272-3.81c-.403.093-.795.212-1.178.352.212 1.172.516 2.329.906 3.458zm1.731 3.842c.247.436.503.866.777 1.283.274-.415.531-.842.778-1.275l-.565-7.914c-.072 0-.142-.007-.213-.007-.072 0-.141.009-.212.011zm4.217-7.29c-.393-.145-.794-.27-1.205-.366l.276 3.857c.4-1.138.712-2.306.929-3.491zm-3.44-2.623c3.309 0 6-2.691 6-6s-2.691-6-6-6-6 2.691-6 6 2.691 6 6 6zm5 21.556c-.636-1.39-1-2.93-1-4.556s.364-3.166 1-4.556v-5.444h2v2.474c.613-.651 1.302-1.228 2.056-1.715-.827-1.761-2.147-3.211-3.751-4.218-.651 3.141-1.911 6.171-3.688 8.836l-1.617 2.426-1.579-2.368c-1.791-2.687-3.057-5.742-3.703-8.911-2.827 1.769-4.718 4.902-4.718 8.476v10c0 1.103.897 2 2 2h1v-17h2v37c0 1.103.897 2 2 2s2-.897 2-2v-18-.757c0-1.068.416-2.073 1.172-2.829l1.121-1.121 1.414 1.414-1.121 1.121c-.378.378-.586.88-.586 1.415v.757 18c0 1.103.897 2 2 2s2-.897 2-2zm19-4.556c0-4.962-4.038-9-9-9s-9 4.038-9 9 4.038 9 9 9 9-4.038 9-9zm17 7c1.631 0 3.13-.565 4.321-1.504-.885-1.534-2.513-2.496-4.321-2.496s-3.436.962-4.321 2.496c1.191.939 2.69 1.504 4.321 1.504zm0-6c1.103 0 2-.897 2-2s-.897-2-2-2-2 .897-2 2 .897 2 2 2zm7-1c0-3.86-3.14-7-7-7s-7 3.14-7 7c0 1.492.473 2.873 1.271 4.01.708-1.021 1.655-1.834 2.763-2.351-.635-.708-1.034-1.634-1.034-2.659 0-2.206 1.794-4 4-4s4 1.794 4 4c0 1.025-.399 1.951-1.034 2.659 1.108.517 2.055 1.33 2.763 2.351.798-1.137 1.271-2.518 1.271-4.01z" fill="url(#SVGID_1_)"/></svg>