<?xml version="1.0" standalone="no"?>
<!DOCTYPE svg PUBLIC "-//W3C//DTD SVG 1.1//EN" "http://www.w3.org/Graphics/SVG/1.1/DTD/svg11.dtd" >
<svg xmlns="http://www.w3.org/2000/svg" xmlns:xlink="http://www.w3.org/1999/xlink" version="1.1">
<metadata>
Created by FontForge 20170910 at Mon Sep 24 06:57:33 2012
 By Jimmy Wärting
Copyright (c) 2012, Sergey Steblina (sergey@steblina.com), Jovanny Lemonad (lemonad@jovanny.ru), with Reserved Font Name 'Underdog'
</metadata>
<defs>
<font id="Underdog-Regular" horiz-adv-x="278" >
  <font-face 
    font-family="Underdog"
    font-weight="400"
    font-stretch="normal"
    units-per-em="1000"
    panose-1="2 0 5 3 0 0 0 2 0 4"
    ascent="800"
    descent="-200"
    x-height="493"
    cap-height="699"
    bbox="-90 -247 1023 915"
    underline-thickness="50"
    underline-position="-100"
    unicode-range="U+0020-2122"
  />
<missing-glyph horiz-adv-x="320" 
 />
    <glyph glyph-name=".notdef" horiz-adv-x="320" 
 />
    <glyph glyph-name=".null" horiz-adv-x="0" 
 />
    <glyph glyph-name="nonmarkingreturn" horiz-adv-x="320" 
 />
    <glyph glyph-name="space" unicode=" " horiz-adv-x="320" 
 />
    <glyph glyph-name="C" unicode="C" horiz-adv-x="500" 
d="M425 70l32 -76l-241 -16l-155 101l-16 450l117 169l194 39l124 -84l-124 -164l-30 23l61 116l-54 48l-132 -31l-54 -140v-388l92 -55z" />
    <glyph glyph-name="c" unicode="c" horiz-adv-x="430" 
d="M410 4l-155 -8l-195 64l-8 247l85 171l141 48l108 -62l-54 -141l-31 16l31 93l-39 32v0l-117 -55l-54 -124l15 -179l118 -46l131 22z" />
    <glyph glyph-name="D" unicode="D" horiz-adv-x="656" 
d="M547 456l-132 148l-111 27l-74 -20l-6 -518l191 -19l121 139zM626 473l-32 -321l-160 -160l-254 18l-150 -3l3 31l108 25l4 574l-70 27l4 36l99 5l248 -19z" />
    <glyph glyph-name="d" unicode="d" horiz-adv-x="550" 
d="M358 399l-117 44l-107 -35l-26 -196l89 -147l57 13l99 104zM390 5l-41 91l-66 -89l-152 9l-101 202l60 234l145 58l134 -55l5 250l63 75l56 -46l-42 -35l-17 -637l96 18l20 -62z" />
    <glyph glyph-name="E" unicode="E" horiz-adv-x="626" 
d="M576 -12l-520 7l-5 34l100 18l-34 596l-89 31l-8 35l538 -13l1 -129l-51 2l-15 63l-271 1l-19 -25l5 -215l308 -21l-9 -44l-296 -6l-3 -83l51 -170l253 -10l12 81l51 6z" />
    <glyph glyph-name="e" unicode="e" horiz-adv-x="505" 
d="M136 268l234 37l-28 131l-67 25l-131 -44l-9 -153zM339 503l80 -70l29 -172l-313 -50l54 -159l118 3l140 42l8 -79l-282 -40l-123 182l14 257l134 97z" />
    <glyph glyph-name="F" unicode="F" horiz-adv-x="547" 
d="M492 555h-39l-17 65l-244 8l8 -227l243 -8v-40l-251 -33l24 -269v0l82 -7l16 -49h-244l-7 32l55 8l-15 601l-66 25l-7 32h162v0l333 7z" />
    <glyph glyph-name="f" unicode="f" horiz-adv-x="364" 
d="M181 593l-1 -106l137 19l6 -53l-142 -15l16 -386l58 -1l16 -48l-197 3l-5 33l48 7l-9 336l1 39l-69 9l3 36l60 19l1 129l99 107l161 -26l-17 -55l-117 18z" />
    <glyph glyph-name="afii10018" unicode="&#x411;" horiz-adv-x="579" 
d="M470 153l4 145l-105 80l-150 -31l-15 -12l-7 -247l23 -19l143 6zM549 144l-136 -146l-285 5v2l-89 1l-5 33l92 17l-15 577l-75 29l-6 33h102v0l141 4l145 -7l67 24l29 -63l-82 -25l-201 -1l-39 -14l8 -172l12 -20l154 36l73 -45l76 -53z" />
    <glyph glyph-name="afii10066" unicode="&#x431;" horiz-adv-x="501" 
d="M128 328l9 -259l147 -28l108 156l-66 177l-91 15zM456 697l-72 -56l-190 -72l-65 -79l-6 -93l122 58l143 -40l93 -224l-127 -201l-244 5l-56 48l-4 431l79 119l199 83l69 77z" />
    <glyph glyph-name="afii10020" unicode="&#x413;" horiz-adv-x="510" 
d="M490 612l-1 -62l-87 13l14 66l-230 -4l7 -573l59 -17l-6 -35h-212l-4 28l60 20l10 587l-51 32l1 20l434 13z" />
    <glyph glyph-name="afii10019" unicode="&#x412;" horiz-adv-x="602" 
d="M472 163l-4 94l-94 86l-140 -27l-15 -12l-6 -216l22 -19l144 6zM208 613l7 -204l13 -20l142 32l84 74l-63 134l-144 -2zM552 153l-123 -155l-285 5v2l-109 1l-5 33l111 17l-16 577l-86 29l-7 33h115v0l141 4l158 -21l86 -201l-99 -105l76 -53z" />
    <glyph glyph-name="afii10067" unicode="&#x432;" horiz-adv-x="498" 
d="M489 70l-161 -80l-218 7l-63 49l7 363l16 63l170 40l128 -40l41 -103l-58 -81h58zM240 456l-121 -47l7 -130h58h104l56 80l-24 66zM402 78l-58 161l-218 -32v-129l129 -32z" />
    <glyph glyph-name="afii10068" unicode="&#x433;" horiz-adv-x="431" 
d="M411 419l-2 -52l-78 12l14 56l-168 -4l7 -376l61 -18l-5 -36h-206l-4 29l61 21l12 391l-54 34l1 20l356 14z" />
    <glyph glyph-name="afii10021" unicode="&#x414;" horiz-adv-x="723" 
d="M318 69l161 -4l13 559h-49l-165 -15l-4 -203l-49 -297l-20 -43zM673 34l-27 -195l-69 -9l22 167l-203 11l-303 -6l14 -149l-55 -9l-52 191l29 25l52 3l29 8l45 51l50 295v206l-79 24l6 52l282 -10l235 17l18 -66l-63 -16l-20 -2l-4 -559l80 -3z" />
    <glyph glyph-name="afii10069" unicode="&#x434;" horiz-adv-x="610" 
d="M264 64l134 -4l11 377l-41 1l-137 -13l-4 -117l-40 -212l-17 -35zM560 34l-23 -163l-58 -6l18 138l-168 9l-252 -4l11 -125l-45 -8l-43 160l24 21l43 3l24 6l38 42l41 211v118l-65 20l4 44l235 -9l194 15l16 -56l-52 -13l-18 -1l-2 -378l67 -2z" />
    <glyph glyph-name="afii10036" unicode="&#x422;" horiz-adv-x="571" 
d="M556 699l-15 -110l-55 15v39h-166l23 -598l49 -15v-39l-205 7v25l70 22l-8 598h-55l-101 -15v-39l-64 -8l-8 118h149h386z" />
    <glyph glyph-name="afii10084" unicode="&#x442;" horiz-adv-x="457" 
d="M437 516l-15 -93l-39 7l-4 29h-109l-3 -426l39 -13l4 -30l-171 4l-2 20l51 20l9 426l-39 2l-79 -9l-3 -33l-45 -5l-11 101l115 -4z" />
    <glyph glyph-name="G" unicode="G" horiz-adv-x="589" 
d="M332 255l163 -20l-3 -233l-342 -3l-120 157l121 481l165 64l135 1l88 -50l-108 -189l-46 9l55 136l-76 17l-163 -62l-75 -417l77 -63l162 -23l51 53l-4 80l-69 15z" />
    <glyph glyph-name="g" unicode="g" horiz-adv-x="509" 
d="M118 338l75 -103l144 -24l62 118l-37 92l-142 22l-69 -32zM144 187l-20 -112l208 -11l69 -7l46 -140l-354 -89l-53 125l70 -16l5 -55l253 86l-15 31l-280 33l-27 70l42 131l-37 45l3 112l100 103l165 3l19 -15l130 85l11 -47l-93 -72l23 -17l67 -83l-75 -191l-220 3z" />
    <glyph glyph-name="H" unicode="H" horiz-adv-x="710" 
d="M608 58l66 -22l-6 -30l-226 1l-2 32l76 19l2 269h-325l-15 -269l79 -25l7 -40l-222 4l-3 28l76 28l-17 595l-68 25l4 29h223l7 -37l-69 -19l-2 -229l331 -39l10 261l-65 22l-9 27l211 14l9 -22l-69 -42z" />
    <glyph glyph-name="h" unicode="h" horiz-adv-x="587" 
d="M607 93l-117 -120l-84 37l-11 349l-69 77l-142 -131v-259l73 -22l6 -29l-195 -1l-6 30l38 15l15 592l-65 57l75 51l65 -103l-11 -264l105 142l132 -39l61 -113l-14 -318l21 -14l69 110z" />
    <glyph glyph-name="I" unicode="I" horiz-adv-x="282" 
d="M241 20l2 -30l-191 15l-1 29l69 22l-17 599l-73 25l2 27l214 2l6 -36l-67 -20l-3 -611z" />
    <glyph glyph-name="i" unicode="i" 
d="M258 -13l-200 -2l-5 29l53 21l4 423l-73 25l-7 25l208 12l10 -20l-61 -34l-4 -430l71 -21zM121 584l-34 68l41 39l64 -8l5 -67z" />
    <glyph glyph-name="J" unicode="J" horiz-adv-x="470" 
d="M381 649l-11 -542l-44 -178l-146 -80l-139 67l-41 143l82 27l30 -154l59 -3l93 66l30 154l-6 504l-77 26l3 30l221 1l5 -37z" />
    <glyph glyph-name="j" unicode="j" 
d="M192 458l-8 -450l-49 -111l-200 -76l-5 71l152 44l29 129l-5 396l-53 17l-7 26l204 11l8 -21zM146 579l-53 53l18 67h64l29 -42z" />
    <glyph glyph-name="K" unicode="K" horiz-adv-x="633" 
d="M633 49l-61 -80l-131 78l-72 224l-84 66l-86 -27l-3 -261l68 -14l6 -39l-220 4l-3 27l67 20v595l-84 30l5 29h223l5 -37l-61 -17l2 -1l-5 -269l101 28l67 51l59 221l121 24l16 -60l-71 -14l-91 -225l-37 -28l62 -32l76 -234z" />
    <glyph glyph-name="k" unicode="k" horiz-adv-x="506" 
d="M506 36l-41 -65l-84 52l-139 222l-44 -22v-182l76 -22l6 -28l-199 -5l-4 30l48 20l-20 626l-55 15l2 27l215 5l-3 -39l-68 -15l2 -381l40 15l81 107l68 125l58 -18l-76 -143l-70 -94l142 -189z" />
    <glyph glyph-name="L" unicode="L" horiz-adv-x="479" 
d="M453 7l-396 -30l-2 21l55 34l-17 618l-63 21l4 27l219 1l5 -36l-59 -18l-2 -602l183 39l-13 67l91 11l1 -63z" />
    <glyph glyph-name="l" unicode="l" horiz-adv-x="294" 
d="M264 1l-211 4l-3 26l72 21v600l-53 -11l4 66l127 3l-9 -657l68 -14z" />
    <glyph glyph-name="afii10024" unicode="&#x416;" horiz-adv-x="884" 
d="M884 49l-60 -80l-131 78l-71 224l-108 66l-32 -12l-3 -276l76 -14l6 -39l-224 4l-3 27l74 20v279l-34 11l-110 -66l-73 -224l-130 -78l-61 80l131 59l76 234l63 32l-38 28l-91 225l-70 14l15 60l119 -24l62 -221l92 -51l49 -11v248l-91 30l4 29h227l5 -37l-60 -17l-6 -1
l-3 -254l45 13l90 51l60 221l119 24l17 -60l-72 -14l-90 -225l-37 -28l63 -32l76 -234z" />
    <glyph glyph-name="afii10072" unicode="&#x436;" horiz-adv-x="709" 
d="M709 55l-46 -68l-84 52l-126 216l-67 -23l-4 -185l73 -23l4 -29l-182 -5l-3 31l46 21l-5 183l-61 30l-127 -216l-85 -64l-42 80l67 40l130 181l-73 86l-78 114l76 30l51 -109l85 -97l54 -13l-4 179l-53 15l3 27l199 4l-6 -37l-63 -18l-2 -173l62 16l78 103l59 103l76 -29
l-85 -109l-66 -92l129 -181z" />
    <glyph glyph-name="afii10025" unicode="&#x417;" horiz-adv-x="554" 
d="M376 719l81 -111l9 -190l-144 -54l156 -55l26 -182l-223 -146l-251 90l15 175l72 5l-19 -134l171 -58l150 114l-53 126l-163 50l17 42l160 43l5 138l-130 89l-120 -50l6 -94l-84 24l31 106l163 73z" />
    <glyph glyph-name="afii10073" unicode="&#x437;" horiz-adv-x="443" 
d="M294 516l65 -96l9 -122l-94 -50l101 -50l18 -132l-122 -87l-146 2l-95 64l6 100l58 5l-10 -63l55 -48l122 11l65 57l-39 84l-112 44l14 38l111 37l1 102l-105 54l-75 -40l5 -86l-67 22l24 95l109 61z" />
    <glyph glyph-name="afii10026" unicode="&#x418;" horiz-adv-x="717" 
d="M111 60l-4 583l-73 22l5 31l234 -2l1 -30l-73 -19l-12 -478l325 445l-1 33l-71 16l4 30l229 -2l2 -31l-70 -19l-8 -586l88 -35l-4 -26l-220 -5l6 39l54 16l-5 484l-323 -435v-46l52 -20l-1 -27l-216 -1l5 39z" />
    <glyph glyph-name="afii10074" unicode="&#x438;" horiz-adv-x="582" 
d="M99 46l-5 424l-60 19l4 26l197 -2l1 -25l-61 -16l-14 -356l247 345v11l-61 13l5 24l191 -2l1 -25l-58 -15l-7 -427l73 -28l-2 -24l-184 -3l4 33l45 14l-5 356l-243 -337l2 -16l45 -19l-2 -21l-182 -2l6 33z" />
    <glyph glyph-name="afii10028" unicode="&#x41a;" horiz-adv-x="630" 
d="M630 54l-60 -80l-130 78l-71 224l-86 66l-86 -27l-2 -261l69 -14l5 -39l-220 4l-4 27l67 20v595l-82 30l1 29h225l6 -37l-61 -17l2 -1l-5 -269l100 28l67 51l61 221l119 24l17 -60l-73 -14l-89 -225l-38 -28l62 -32l77 -234z" />
    <glyph glyph-name="afii10076" unicode="&#x43a;" horiz-adv-x="495" 
d="M495 45l-42 -65l-84 51l-135 219l-74 -23l-2 -177l75 -23l6 -27l-198 -5l-6 29l50 21l-1 419l-54 17l2 25l202 3l-6 -37l-68 -14v-180l71 15l78 105l66 123l57 -18l-74 -140l-69 -92l138 -187z" />
    <glyph glyph-name="afii10029" unicode="&#x41b;" horiz-adv-x="643" 
d="M595 711l18 -68l-64 -16l-21 -2l-4 -580l49 -18l6 -37l-211 15l-3 27l71 15l14 581h-64l-104 -16l-26 -206l-55 -302l-45 -95l-139 -26l-17 60l84 24l45 50l57 299l22 209l-80 25l4 53l224 -10z" />
    <glyph glyph-name="afii10077" unicode="&#x43b;" horiz-adv-x="571" 
d="M525 509l16 -53l-57 -14l-19 -1l-4 -393l55 -14l5 -37l-204 4l-2 25l71 24l13 392h-66l-97 -15l-23 -137l-27 -187l-40 -90l-132 -22l-14 54l79 22l42 47l28 189l20 138l-75 21l4 40l207 -9z" />
    <glyph glyph-name="afii10030" unicode="&#x41c;" horiz-adv-x="816" 
d="M786 24l-3 -28l-214 1l-2 30l86 22l10 559l-10 2l-214 -592l-57 -1l-199 579l-25 -3l30 -541l63 -19l7 -38l-207 4l-3 26l59 24l-7 613l-68 24l-2 23l166 -9l27 -44l182 -546l11 1l182 560l26 35l159 -2v-33l-47 -9l-20 -615z" />
    <glyph glyph-name="afii10078" unicode="&#x43c;" horiz-adv-x="700" 
d="M670 24l-4 -28l-213 1l-1 30l86 23l11 362l-11 1l-153 -363l-56 -1l-148 352l-24 -4l30 -345l65 -20l3 -37l-206 4l-3 25l60 24l-7 416l-67 24l-2 24l165 -7l27 -47l129 -304l9 3l124 318l24 34l158 -1v-32l-45 -12l-18 -418z" />
    <glyph glyph-name="M" unicode="M" horiz-adv-x="814" 
d="M784 25l-5 -29l-212 1l-1 30l83 22l12 557l-12 2l-212 -591h-57l-198 576l-24 -2l30 -539l63 -20l6 -37l-207 4l-2 26l59 22l-8 612l-66 23l-3 23l165 -8l28 -45l182 -544l9 3l181 557l25 34h159v-32l-46 -11l-20 -612z" />
    <glyph glyph-name="m" unicode="m" horiz-adv-x="881" 
d="M911 116l-125 -116l-82 15l-9 399l-61 38l-144 -101l8 -41l10 -255l50 -24l-5 -24l-183 -5l4 26l50 24l-6 338l-41 64l-90 -43l-97 -96l9 -261l63 -21l-5 -36l-190 2l-3 28l45 18l7 393l-76 51l44 74l85 -68l6 -102l131 104l154 -5l18 -94l159 99l105 -18l37 -81
l-15 -328l27 -2l76 101z" />
    <glyph glyph-name="N" unicode="N" horiz-adv-x="733" 
d="M676 35l5 -36l-210 4l-3 25l50 20l-337 503l5 -502l51 -17l4 -37l-209 4l-2 25l82 32l-7 594l-65 18l1 29l217 2l4 -29l-57 -17l337 -515l10 516l-71 18l1 29l216 1l5 -27l-67 -21l-33 -596z" />
    <glyph glyph-name="n" unicode="n" horiz-adv-x="638" 
d="M651 71l-167 -84l-60 31v304l-31 91l-76 8l-115 -167v-205l54 -16l-8 -38l-182 8l-8 22l53 24v364l-67 38l52 69l92 -99l14 -92l100 160l129 -7l76 -137l-16 -267l16 -14l91 68z" />
    <glyph glyph-name="P" unicode="P" horiz-adv-x="543" 
d="M177 610l12 -263l177 1l86 107l-55 150l-133 32zM183 269v-216l60 -20l6 -36l-208 5l-2 24l71 28l-7 584l-34 27l-39 5l5 37l83 3l46 -24l92 8l214 -43l43 -246l-125 -122z" />
    <glyph glyph-name="O" unicode="O" horiz-adv-x="629" 
d="M170 614l-55 -206l50 -238l127 -109l84 -7l132 231l-50 238l-102 97zM409 696l134 -146l36 -285l-151 -272l-178 -6l-162 162l-38 252l53 239l107 74z" />
    <glyph glyph-name="o" unicode="o" horiz-adv-x="499" 
d="M187 459l-88 -114l19 -197l111 -105l75 1l94 184l-42 173l-67 50zM323 526l106 -98l40 -229l-141 -221l-140 -6l-147 177l-11 228l125 149h168z" />
    <glyph glyph-name="p" unicode="p" horiz-adv-x="564" 
d="M443 250l-55 161l-112 15l-104 -37l6 -259l104 -40l133 59zM534 232l-104 -181l-161 -31l-101 46l5 -225l67 -23l-4 -39l-202 1l-4 30l62 25l-6 625l-34 12l34 66l87 -45l-7 -40l105 39l171 -2z" />
    <glyph glyph-name="Q" unicode="Q" horiz-adv-x="628" 
d="M295 95l106 5l107 192l-8 216l-68 99l-218 29l-78 -124l-15 -241l55 -98zM598 3l-22 -73l-125 30l-65 57l-161 -4l-175 197l10 340l131 146l225 4l135 -118l45 -316l-142 -229l36 -22z" />
    <glyph glyph-name="q" unicode="q" horiz-adv-x="540" 
d="M530 -170v-40h-201l-8 32l64 24l9 208l-25 9l-96 -56l-160 31l-79 193l87 264l168 24l176 -48l-15 -81l24 -544zM377 150l-8 274l-88 23l-111 -23l-57 -138l16 -112l97 -97l87 26z" />
    <glyph glyph-name="R" unicode="R" horiz-adv-x="713" 
d="M510 478l-36 129l-147 26l-103 -16l17 -222l180 -12zM713 123l-124 -111l-78 13l-53 235l-94 69l-130 -19l3 -248l63 -21l8 -38l-215 3l-2 27l59 23l-12 529l-36 39l-72 8l3 54l82 2l42 -17l25 22l272 -4l126 -116l-18 -167l-87 -66l74 -71l7 -180l22 -8l72 108z" />
    <glyph glyph-name="r" unicode="r" horiz-adv-x="415" 
d="M395 412l-61 -52l-53 77l-81 -27l-24 -53l4 -300l59 -19l-6 -35h-177l-3 27l47 19l-1 400l-49 28l43 55l73 -47l6 -34l51 20l101 25z" />
    <glyph glyph-name="S" unicode="S" horiz-adv-x="578" 
d="M409 704l63 -43l28 39l53 -42l-94 -113l-38 35l-48 62l-150 -24l-79 -80l61 -113l259 -68l61 -75l-18 -195l-207 -96l-183 50l-31 -50l-61 14l61 134l51 -15l158 -51l156 62l-30 155l-307 63l-57 209l106 124z" />
    <glyph glyph-name="afii10031" unicode="&#x41d;" horiz-adv-x="699" 
d="M598 59l64 -22l-4 -29l-225 2l-2 29l76 21l2 263h-319l-15 -263l78 -26l6 -37l-219 3l-2 25l76 30l-18 585l-66 23l3 28l220 2l6 -37l-66 -20l-3 -225l326 -38l10 259l-65 20l-10 28l209 11l9 -21l-70 -40z" />
    <glyph glyph-name="afii10079" unicode="&#x43d;" horiz-adv-x="550" 
d="M458 49l56 -19l-5 -25l-184 1l-1 27l63 17l2 162h-229l-14 -162l69 -22l4 -32l-178 2l-3 23l64 26l-14 413l-58 21l4 25h181l4 -30l-56 -17l-3 -170l233 -33l9 199l-55 18l-7 22l170 11l10 -20l-61 -33z" />
    <glyph glyph-name="afii10033" unicode="&#x41f;" horiz-adv-x="724" 
d="M607 623l8 -568l51 -26l13 -26l-218 -4l6 38l59 16v569h-322l2 -569l59 -16l5 -38l-217 4l-3 26l66 26l7 568h-27l-66 9l19 67l39 -10h555l36 10l15 -68l-60 -8h-27z" />
    <glyph glyph-name="afii10081" unicode="&#x43f;" horiz-adv-x="579" 
d="M484 453l7 -411l41 -21l10 -22l-179 -4l5 32l40 11v415h-230l1 -415l40 -11l4 -32l-177 4l-3 22l54 21l5 411l-14 3l-58 4l17 55l30 -8h432l30 8l10 -56l-49 -3z" />
    <glyph glyph-name="s" unicode="s" horiz-adv-x="473" 
d="M248 522l112 -46l40 39l43 -30l-76 -102l-36 34l-164 39l-53 -62l69 -97l201 -50l28 -170l-132 -82l-176 40l-24 -41l-50 9l34 105l204 -48l63 47l-24 84l-214 73l-58 119l48 111z" />
    <glyph glyph-name="T" unicode="T" horiz-adv-x="575" 
d="M556 699l-15 -110l-55 15v39h-166l23 -598l49 -15v-39l-205 7v25l70 22l-8 598h-55l-101 -15v-39l-64 -8l-8 118h149h386z" />
    <glyph glyph-name="t" unicode="t" horiz-adv-x="375" 
d="M354 31l-164 -31l-78 77v103v258l-48 -8l-39 -9l-7 48l71 23h14v94l-14 32h85l8 -87v-32l140 17v-78l-140 7v-329l47 -53l125 23v-55z" />
    <glyph glyph-name="U" unicode="U" horiz-adv-x="696" 
d="M662 673l-55 -19l-19 -535l-101 -119l-256 -10l-117 126l-23 498l-5 42l-56 15l1 29l211 2l3 -29l-66 -20l3 -481l63 -101l207 7l61 87l-8 495l-47 15l1 27l207 7z" />
    <glyph glyph-name="u" unicode="u" horiz-adv-x="600" 
d="M620 54l-147 -70l-56 15l-18 58l-13 69l-177 -141l-104 36l-30 118l-3 308l-42 18l3 24l179 4l-5 -36l-52 -21v-282l37 -89l65 36l121 67l16 278l-44 20l3 27h158l5 -34l-52 -20l-3 -371l15 -25l100 87z" />
    <glyph glyph-name="V" unicode="V" horiz-adv-x="642" 
d="M631 655l-66 -12l-199 -652l-86 10l-229 664l-51 13l3 29l217 2l6 -28l-65 -19l163 -589h19l139 587l-57 31l7 26l210 -26z" />
    <glyph glyph-name="v" unicode="v" horiz-adv-x="522" 
d="M509 451l-54 -9l-164 -455l-95 3l-151 478l-45 13l3 27l176 2l3 -27l-51 -19l105 -392l29 6l117 390l-37 26l7 24l170 -34z" />
    <glyph glyph-name="W" unicode="W" horiz-adv-x="938" 
d="M938 697l-3 -29l-68 -14l-7 -3l-163 -664h-100l-121 558l-3 28h-3l-4 -27l-110 -551h-117l-171 662l-68 19v29h224v-29l-62 -19v0l121 -577l18 -3l134 597h72l137 -609h15l124 593l-72 26l1 29z" />
    <glyph glyph-name="w" unicode="w" horiz-adv-x="675" 
d="M474 56l89 408l-51 21l3 29l160 -18l-4 -29l-44 -7l-107 -480h-94l-84 353l-3 22h-2l-2 -21l-78 -348h-92l-123 476l-42 15v29h160v-29l-44 -15l86 -399l10 -2l101 416l52 -3l102 -418h7z" />
    <glyph glyph-name="X" unicode="X" horiz-adv-x="671" 
d="M671 -3l-212 -6l-4 27l47 21l-125 224l-44 70l-159 -294l49 -17l-3 -29l-219 1l-1 31l72 20l225 341l-188 276l-62 19l1 29l217 1l5 -27l-54 -19l120 -224l18 -29l144 246l-50 27l4 25l211 -15l-7 -38l-75 -15l-197 -274v-2l200 -311l79 -20z" />
    <glyph glyph-name="x" unicode="x" horiz-adv-x="468" 
d="M468 -8h-169l-3 26l32 12l-79 147l-28 57l-97 -197l54 -19l-4 -28l-172 2l-2 28l33 9l153 253l-132 180l-49 16l1 28h174l3 -25l-43 -17l94 -153l88 158l-32 18l6 23l168 -17l-8 -32l-63 -16l-119 -195l142 -208l48 -17z" />
    <glyph glyph-name="afii10037" unicode="&#x423;" horiz-adv-x="677" 
d="M191 -23l-66 9l-3 97l135 -39l52 90l-250 512l-59 24l3 28l216 3l-7 -40l-39 -12l176 -430l160 436l-71 20l1 32l234 1l4 -31l-88 -28l-213 -534l-56 -112z" />
    <glyph glyph-name="afii10085" unicode="&#x443;" horiz-adv-x="531" 
d="M479 465l-172 -622l-101 -79l-111 26l-29 7l5 118l33 86l60 -25l-49 -71l10 -52l72 -24l50 29l20 91l15 89l-71 -16l-153 422l-45 4l-13 44l133 11l45 -210l110 -231l109 405l-47 15l3 27l175 2l3 -25z" />
    <glyph glyph-name="afii10038" unicode="&#x424;" horiz-adv-x="833" 
d="M458 216l188 -23l90 141l-57 202l-142 33l-92 -27zM371 215l-4 334l-73 20l-141 -33l-59 -202l91 -141zM451 132v-99l64 -20l4 -38l-217 3l-4 27l76 28l-2 100l-210 -9l-132 156l45 306l228 44l71 -8l-1 78l-49 11l-3 31l168 4l-1 -31l-48 -15l2 -78l86 8l228 -44
l47 -306l-136 -156z" />
    <glyph glyph-name="afii10086" unicode="&#x444;" horiz-adv-x="730" 
d="M402 87l137 -22l76 169l-44 180l-97 38l-83 -25zM325 86l-5 346l-64 20l-96 -39l-45 -179l74 -169zM397 14v-201l55 -18l8 -34l-197 3l-4 23l69 27l-2 200l-159 -11l-117 184l40 279l174 40l64 -8l-8 164l-22 8l-3 27l122 3l-1 -27l-21 -6l-6 -169l78 8l173 -40l40 -279
l-119 -184z" />
    <glyph glyph-name="afii10040" unicode="&#x426;" horiz-adv-x="752" 
d="M707 -6l-38 -140l-57 -2l12 152l-547 1l1 49l25 16l-6 576l-67 25l4 28l218 3l-5 -39l-49 -16l-2 -577h347v577l-49 16l-5 39l218 -3l-13 -28l-51 -25l-8 -576l27 -1l60 -4z" />
    <glyph glyph-name="afii10088" unicode="&#x446;" horiz-adv-x="587" 
d="M492 459l-7 -408h50l22 -14l-68 -155l-43 -2l22 119l-397 1v38l19 13l-8 408l-52 20l2 23l177 3l-5 -31l-41 -14l-1 -407h248v407l-39 14l-5 31l177 -3l-11 -23z" />
    <glyph glyph-name="afii10041" unicode="&#x427;" horiz-adv-x="655" 
d="M554 43l62 -21l-4 -30l-220 2l-2 30l74 20l3 266l-287 -48l-83 56l-12 329l-65 25l3 26h218l5 -34l-66 -20l-9 -273l77 -34l224 23l10 277l-65 23l-7 26l203 12l12 -23l-71 -39v-593z" />
    <glyph glyph-name="afii10089" unicode="&#x447;" horiz-adv-x="503" 
d="M419 25l49 -14l-3 -21l-163 2v23l53 13l2 179l-208 -35l-62 41l-10 259l-47 15l1 22l160 1l5 -28l-47 -12l-8 -218l55 -26l164 20l8 219l-47 16l-6 18l150 10l8 -17l-51 -28z" />
    <glyph glyph-name="afii10042" unicode="&#x428;" horiz-adv-x="899" 
d="M855 53l5 -46l-24 -4h-290h-31l-451 1l-1 45l27 7l-7 596l-53 21l2 23l177 3l-5 -31l-41 -15l-1 -596l205 -7l49 7v596l-41 15l-4 31l176 -3l-10 -23l-41 -21l-6 -596l48 -3l199 4v596l-40 15l-3 31l175 -3l-9 -23l-42 -21l-6 -596z" />
    <glyph glyph-name="afii10090" unicode="&#x448;" horiz-adv-x="719" 
d="M675 52l8 -47l-15 -8h-228h-25l-361 8v40l24 7l-9 410l-39 23v16h150v-24l-32 -7v-418h142h39v418l-31 7l-8 24h157l-7 -16l-41 -23l-7 -410h48h133v418l-32 7v24h150l-8 -16l-31 -23l-7 -410h30z" />
    <glyph glyph-name="afii10027" unicode="&#x419;" horiz-adv-x="712" 
d="M337 807l25 -19l102 121l66 -61l-160 -90h-33l-160 107l50 35zM110 63l-4 578l-70 22l4 30h231l1 -31l-71 -19l-14 -474l324 441l-1 33l-70 16l3 30l227 -2l1 -30l-69 -20l-8 -582l88 -33l-3 -27l-218 -3l4 37l55 18l-6 477l-318 -431v-45l51 -20l-2 -28l-215 -1l7 38z
" />
    <glyph glyph-name="afii10075" unicode="&#x439;" horiz-adv-x="579" 
d="M256 639l23 -12l111 92l66 -60l-165 -70h-35l-152 88l50 33zM98 49l-5 420l-59 19l4 26h195l1 -27l-61 -16l-12 -352l243 341v11l-60 14l4 24h191v-26l-57 -15l-6 -424l73 -28l-3 -22l-183 -3l4 31l45 14l-5 352l-241 -334l3 -16l43 -16l-2 -24h-180l4 31z" />
    <glyph glyph-name="Y" unicode="Y" horiz-adv-x="630" 
d="M396 39l5 -37l-210 4l-2 24l71 28l-3 249l-203 346l-54 21l3 26l210 4l-7 -37l-35 -12l130 -266l171 273l-64 17l2 30l215 1l5 -29l-82 -26l-225 -341l6 -254z" />
    <glyph glyph-name="y" unicode="y" horiz-adv-x="509" 
d="M454 464l-212 -611l-115 -49l-125 65l27 66l105 -66l55 15l29 82l26 88l-52 -28l-135 418l-45 4l-12 42l131 12l45 -207l76 -219l124 392l-46 14l1 26l172 1l6 -25z" />
    <glyph glyph-name="Z" unicode="Z" horiz-adv-x="560" 
d="M66 715l53 -18l395 7l8 -66l-383 -544l22 -19l262 18l8 54l82 6l17 -140l-487 -11l-13 73l383 548l-271 3l-17 -48l-75 16z" />
    <glyph glyph-name="z" unicode="z" horiz-adv-x="482" 
d="M122 503l301 11l3 -78l-291 -375l213 21l11 60l82 6l1 -145l-402 7l8 64l283 366l-202 12l-19 -42l-37 7l2 97z" />
    <glyph glyph-name="one" unicode="1" horiz-adv-x="305" 
d="M172 698l73 -30l-18 -665l-76 -7l3 635l-147 -32l-7 55z" />
    <glyph glyph-name="two" unicode="2" horiz-adv-x="516" 
d="M238 719l220 -94l-62 -289l-237 -261l337 6v-75l-465 -7l-8 60l272 277l65 229l-113 72l-192 -53l-35 47z" />
    <glyph glyph-name="three" unicode="3" horiz-adv-x="530" 
d="M461 687l18 -38l-193 -210l165 -41l59 -290l-252 -127l-238 78l31 78l214 -97l164 117l-39 190l-225 37l-16 39l211 197h-292l-6 80z" />
    <glyph glyph-name="four" unicode="4" horiz-adv-x="551" 
d="M100 271l252 -20l11 356zM441 698l-10 -442l98 15l2 -76l-98 -18l11 -180l-109 -8l21 204l-325 6l-11 60l330 451z" />
    <glyph glyph-name="afii10043" unicode="&#x429;" horiz-adv-x="930" 
d="M889 39l11 -55l-38 -143l-48 -4l11 155l-274 3h-31l-456 3v43l27 8l-5 610l-56 22l2 21l178 2l-3 -30l-40 -13l-1 -611l206 -5l49 5v611l-42 13l-4 30l178 -2l-10 -21l-40 -22l-8 -610l50 -3l200 4v611l-39 13l-6 30l180 -2l-12 -21l-42 -22l-6 -610z" />
    <glyph glyph-name="afii10091" unicode="&#x449;" horiz-adv-x="758" 
d="M728 -1l-32 -110h-31l8 117h-612v40l16 8v408l-47 23v15h148v-23l-31 -8v-415h142h40v415l-32 8l-8 23h156l-8 -15l-39 -23v-408h39h141v415l-39 8v23h149l-7 -15l-32 -23l-8 -408l79 -16z" />
    <glyph glyph-name="afii10044" unicode="&#x42a;" horiz-adv-x="660" 
d="M369 65l140 35l57 155l-89 111l-198 2v-276zM500 435l130 -126l-44 -257l-225 -46l-96 8l-48 -25l-86 2l-5 39l40 5l36 29l-5 575l-76 -6l-151 16v67l153 -30l204 16l8 -42l-62 -20v-190z" />
    <glyph glyph-name="afii10092" unicode="&#x44a;" horiz-adv-x="603" 
d="M468 233l-115 61l-107 -51l-1 -139l103 -34l105 2l50 85zM496 6l-153 -3l-102 37l5 -38l-86 -45l-33 66l45 9l-6 415l-49 2l-117 3l2 57l116 -21l178 14l5 -39l-66 -20l4 -136l98 43l141 -31l105 -143z" />
    <glyph glyph-name="afii10045" unicode="&#x42b;" horiz-adv-x="815" 
d="M775 30l2 -32l-197 16l-2 32l72 20l-18 578l-74 28l2 27l220 2l5 -38l-68 -19l-3 -590zM277 68l163 32l53 174l-101 139l-209 -45l5 -272zM393 483l164 -155l-41 -276l-248 -44l-95 9l-49 -26l-85 4l-6 39l41 6l36 27l-5 575l-75 28l3 27l217 3l-6 -36l-63 -20l-4 -195z
" />
    <glyph glyph-name="afii10093" unicode="&#x44b;" horiz-adv-x="686" 
d="M647 23l3 -27l-172 14l-1 27l62 18l-14 418l-64 23l3 25l187 1l5 -32l-57 -17l-5 -429zM243 48l139 25l18 120l-91 68l-148 -64l5 -128zM309 321l147 -82l-9 -206l-212 -37l-83 7l-41 -22l-75 3l-4 34l34 5l31 25l-3 416l-64 24l2 23l187 3l-5 -32l-54 -18l-4 -196z" />
    <glyph glyph-name="afii10046" unicode="&#x42c;" horiz-adv-x="566" 
d="M277 65l139 35l57 155l-90 111l-197 2l-1 -276zM404 435l132 -126l-45 -257l-224 -46l-95 8l-49 -25l-86 2l-5 39l41 5l35 29l-5 575l-63 6l-10 52l203 -3l9 -34l-62 -20v-190z" />
    <glyph glyph-name="afii10094" unicode="&#x44c;" horiz-adv-x="522" 
d="M386 238l-116 61l-109 -52l-2 -141l106 -35l106 3l52 86zM416 7l-155 -3l-106 38l6 -39l-87 -46l-34 67l45 9l-6 422l-36 3l-13 38l182 14l6 -39l-69 -20l3 -139l100 44l143 -31l107 -146z" />
    <glyph glyph-name="afii10047" unicode="&#x42d;" horiz-adv-x="603" 
d="M553 327l-29 -229l-228 -116l-256 93l14 177l76 4l-22 -135l176 -62l155 85l15 144l7 56l-113 -5l-141 7l-2 72l147 -21l116 18l1 10l-49 148l-167 76l-123 -52l6 -98l-84 27l30 105l165 76l128 -3l119 -94l50 -172z" />
    <glyph glyph-name="afii10095" unicode="&#x44d;" horiz-adv-x="490" 
d="M440 230l-22 -144l-163 -99l-215 77l11 151l65 4l-19 -115l148 -51l99 72l12 73l5 46l-95 -4l-86 6l-2 61l92 -18l99 16v8l-40 96l-110 64l-103 -44l6 -81l-73 19l27 92l138 63l112 -29l65 -53l42 -115z" />
    <glyph glyph-name="afii10048" unicode="&#x42e;" horiz-adv-x="938" 
d="M816 271l-49 244l-104 99l-217 -7l-71 -218l55 -241l136 -77l113 -7zM888 252l-157 -251l-208 -6l-171 131l-34 190l-134 5l-2 -278l61 -25l2 -27l-193 15l-1 29l69 21l-17 601l-73 25l5 27l212 2l6 -37l-66 -18l-3 -283l124 9v1l71 251l107 75l230 -18l135 -150z" />
    <glyph glyph-name="afii10096" unicode="&#x44e;" horiz-adv-x="691" 
d="M641 200l-72 -180l-194 -36l-100 92l-36 137l-80 8v-180l51 -15v-20h-166v20l50 15l-7 424l-56 22v21h165l14 -28l-57 -15l6 -202l72 8v0l72 180l87 65l129 -15l93 -136zM584 213l-44 130l-64 94l-115 -8l-58 -158l36 -166l72 -56l116 36z" />
    <glyph glyph-name="five" unicode="5" horiz-adv-x="539" 
d="M469 688l-2 -74l-306 7l-15 -186l193 19l180 -178l-80 -203l-175 -87l-234 53l15 85l196 -71l163 61l14 218l-118 47l-179 -33l-42 48l20 316z" />
    <glyph glyph-name="six" unicode="6" horiz-adv-x="540" 
d="M122 316l19 -220l164 -50l109 107l-22 168l-143 46zM480 664l-26 -84l-171 59l-120 -105l-46 -150l150 31l183 -44l50 -302l-224 -88l-226 89v272l32 229l185 131z" />
    <glyph glyph-name="seven" unicode="7" horiz-adv-x="483" 
d="M463 701l-8 -81l-147 -292l-103 -326h-83l111 352l134 266l-328 -3l-19 82z" />
    <glyph glyph-name="eight" unicode="8" horiz-adv-x="571" 
d="M222 348l-81 -111l5 -176l196 -12l104 76l-2 132l-132 90zM197 646l-63 -78l31 -95l126 -58l128 115l-56 122zM438 670l50 -173l-115 -120l128 -63l20 -196l-191 -136l-246 44l-34 245l122 123l-73 51l-21 168l109 99z" />
    <glyph glyph-name="nine" unicode="9" horiz-adv-x="536" 
d="M415 351l-32 217l-132 77l-124 -72l-25 -209l194 -85zM40 25l30 85l167 -71l125 97l55 148l-142 -52l-235 87l14 307l230 84l192 -125l10 -265l-47 -228l-192 -115z" />
    <glyph glyph-name="zero" unicode="0" horiz-adv-x="637" 
d="M180 598l-61 -222l26 -171l138 -119l91 -7l137 166l-16 254l-112 108zM441 689l145 -160l1 -306l-155 -212l-194 -5l-177 177l-11 185l57 260l114 81z" />
    <glyph glyph-name="afii10049" unicode="&#x42f;" horiz-adv-x="687" 
d="M21 144l70 -68l53 -16l84 99l69 123l-161 108l8 199l115 115l269 -15l30 -23l39 23l84 -8l8 -53l-78 -8l-38 -39l-7 -536l60 -23l-6 -24l-215 -7l7 38l62 23l7 215l-76 8l-85 -123l-130 -154l-108 8l-121 70zM320 336l154 16l16 260l-108 23l-130 -23l-47 -161z" />
    <glyph glyph-name="afii10097" unicode="&#x44f;" horiz-adv-x="541" 
d="M50 112l24 -59l41 -7l58 49l59 75l-133 91v166l116 91l208 -9l16 -24l33 16h42v-49h-34l-25 -34l-9 -381l51 -24v-17l-174 -8v34l49 15l9 117l-67 8l-66 -75l-91 -91h-91l-67 67zM265 220l107 8l17 215l-91 17l-107 -24l-42 -126z" />
    <glyph glyph-name="b" unicode="b" horiz-adv-x="539" 
d="M177 384l-4 -293l131 -31l116 156l-27 177l-98 32zM108 770l41 -83l24 -234l132 36l151 -57l53 -222l-135 -202l-228 9l-56 48l-5 577l-55 70z" />
    <glyph glyph-name="colon" unicode=":" horiz-adv-x="204" 
d="M144 482l30 -69l-56 -72l-88 55l26 82zM86 117l77 -20l2 -91l-87 -19l-42 75z" />
    <glyph glyph-name="semicolon" unicode=";" horiz-adv-x="217" 
d="M144 482l31 -69l-56 -72l-89 55l27 82zM125 120l62 -52l-34 -90l-72 -90l-33 8l69 99l-48 9l-13 86z" />
    <glyph glyph-name="quotedblright" unicode="&#x201d;" horiz-adv-x="378" 
d="M106 716l62 -51l-34 -91l-72 -89l-32 7l68 99l-48 9l-13 86zM285 716l63 -51l-35 -91l-72 -89l-33 7l69 99l-48 9l-13 86z" />
    <glyph glyph-name="quotedblleft" unicode="&#x201c;" horiz-adv-x="355" 
d="M96 482l-66 33l10 112l85 93l33 -7l-69 -99l47 -9l15 -76zM264 482l-67 33l10 112l86 93l32 -7l-69 -99l48 -9l14 -76z" />
    <glyph glyph-name="quoteright" unicode="&#x2019;" horiz-adv-x="198" 
d="M106 716l62 -51l-33 -91l-73 -89l-32 7l68 99l-47 9l-13 86z" />
    <glyph glyph-name="quoteleft" unicode="&#x2018;" horiz-adv-x="188" 
d="M97 472l-67 33l10 112l86 93l32 -7l-68 -99l47 -9l15 -76z" />
    <glyph glyph-name="guillemotleft" unicode="&#xab;" horiz-adv-x="434" 
d="M249 453l-149 -208l159 -203l-30 -23l-219 219l2 39l208 202zM405 456l-124 -206l143 -209l-32 -19l-214 212l5 33l201 207z" />
    <glyph glyph-name="guillemotright" unicode="&#xbb;" horiz-adv-x="434" 
d="M214 479l208 -202l2 -39l-219 -219l-30 23l159 203l-149 208zM50 474l201 -207l5 -33l-214 -212l-32 19l143 209l-124 206z" />
    <glyph glyph-name="periodcentered" unicode="&#xb7;" horiz-adv-x="329" 
d="M150 397l77 -20l2 -91l-87 -19l-42 75z" />
    <glyph glyph-name="asciitilde" unicode="~" horiz-adv-x="525" 
d="M0 269l57 131l115 29l196 -106l67 10l13 89l77 4l-31 -107l-70 -60l-74 -9l-189 116l-63 -11l-8 -97z" />
    <glyph glyph-name="trademark" unicode="&#x2122;" horiz-adv-x="680" 
d="M630 411l-1 -19h-112l-1 21l37 10l2 226l-6 1l-81 -249h-25l-80 227l-6 -1l7 -203l28 -9l2 -23l-100 1l-1 18l25 12l-2 240l-30 9l-1 19l95 -3l12 -18l60 -182h4l58 186l11 14l104 1v-22l-21 -4l-9 -240zM257 689l-9 -65l-20 5l-3 16h-53l5 -225l22 -7l8 -23l-113 2l2 18
l28 10l-3 226h-22l-36 -5l-2 -17l-26 -2l-5 67l64 -1z" />
    <glyph glyph-name="copyright" unicode="&#xa9;" horiz-adv-x="775" 
d="M209 626l-103 -205l-2 -200l191 -159l227 3l166 175l-9 260l-177 144zM550 688l193 -163l2 -308l-207 -214l-257 -5l-235 177l-16 186l78 265l152 81zM545 131l-138 -9l-175 55l-6 219l80 154l122 44l97 -58l-51 -124l-28 9l23 76l-36 28l-81 -19l-46 -124l-5 -152
l111 -46l110 26z" />
    <glyph glyph-name="registered" unicode="&#xae;" horiz-adv-x="816" 
d="M232 626l-106 -205l-2 -200l193 -159l225 3l168 175l-9 260l-179 144zM570 688l193 -163l3 -308l-208 -214l-257 -5l-235 177l-16 186l78 265l152 81zM503 435l-23 88l-99 16l-11 -12l11 -145l56 -27zM586 182l-69 -34l-55 131l-51 30l-32 6l2 -158l42 -14l4 -23l-149 5
l-2 18l39 14l-7 354l-12 76h30h150l85 -85l-14 -111l-60 -46l48 -48z" />
    <glyph glyph-name="ordfeminine" unicode="&#xaa;" horiz-adv-x="324" 
d="M141 540l-58 -38l-5 -51l23 -10q11 0 21 1q8 1 15 1t7 2q3 5 7 10q3 5 7 11t9 12q10 14 23 33l-4 37zM107 712l134 -31l2 -241l51 -4v-27l-73 -7l-24 52l-31 -49l-100 -18l-36 44l2 89l100 64l52 9l6 64l-81 10l-36 -48l-31 35l3 16z" />
    <glyph glyph-name="at" unicode="@" horiz-adv-x="838" 
d="M423 202q0 1 12 16.5t27 33.5l40 48l-7 56l-75 -9l-86 -53l-3 -92l34 -18q16 3 29 7q11 3 20 6t9 5zM766 258l-131 -105l-102 -10l-35 73l-40 -84l-142 -10l-64 59l3 134l151 99l88 13l-6 69l-116 16l-49 -62l-50 52l6 21l93 58l188 -45l18 -325l47 -21l106 119l7 162
l-107 140l-211 58l-204 -82l-122 -201l79 -237l198 -103l168 37l25 -71l-248 -29l-198 127l-88 274l136 250l186 83l160 8l168 -83l99 -126l29 -169z" />
    <glyph glyph-name="onesuperior" unicode="&#xb9;" horiz-adv-x="214" 
d="M113 702l49 -12l2 -326l-60 -7v292l-62 -27l-12 59z" />
    <glyph glyph-name="threesuperior" unicode="&#xb3;" horiz-adv-x="298" 
d="M227 693l7 -18l-86 -92l89 -14l31 -139l-115 -81l-123 64l24 54l86 -61l71 52l-16 84l-102 4l-6 30l62 74l-98 5l-3 43z" />
    <glyph glyph-name="twosuperior" unicode="&#xb2;" horiz-adv-x="270" 
d="M125 707l107 -62l-28 -126l-101 -86h137l-3 -46l-203 -3l-4 49l118 121l30 75l-49 19l-85 -24l-14 46z" />
    <glyph glyph-name="backslash" unicode="\" horiz-adv-x="335" 
d="M0 707l63 16l272 -744l-69 -6l-198 572z" />
    <glyph glyph-name="bar" unicode="|" horiz-adv-x="208" 
d="M138 712l10 -416l-12 -536l-64 -7l8 545l-20 430z" />
    <glyph glyph-name="braceleft" unicode="{" horiz-adv-x="293" 
d="M287 812l-8 -68l-63 15l-54 -55l47 -312l-83 -68l59 -57l-19 -401l113 2l14 -60l-175 -8l-19 52l19 377l-68 89v28l63 56l5 252l-13 87l71 68z" />
    <glyph glyph-name="braceright" unicode="}" horiz-adv-x="289" 
d="M6 -200l4 68l93 -15l27 55l-53 343l84 68l-63 88l15 347l-103 -2l-10 59l151 6l42 -50l-24 -354l70 -88v-29l-67 -54l3 -285l12 -85l-26 -69z" />
    <glyph glyph-name="bracketleft" unicode="[" 
d="M272 736l-132 6l-8 -472l24 -415h116l6 -59h-39h-179l12 470l-2 542l80 -4l122 16v-84z" />
    <glyph glyph-name="bracketright" unicode="]" horiz-adv-x="265" 
d="M197 799l8 -30l-21 -400l13 -569l-92 10h-96v59l132 -13l-22 504l-13 398l-97 -11l-9 69z" />
    <glyph glyph-name="cent" unicode="&#xa2;" horiz-adv-x="490" 
d="M456 2l-178 -13l-184 51l-44 249l111 190l139 48l170 -62l-58 -143l-31 11l31 100l-101 30v0l-111 -57l-61 -131l44 -189l105 -14l145 4zM323 570l-8 -88l3 -379l2 -220h-72l19 242l-4 312l-7 138z" />
    <glyph glyph-name="sterling" unicode="&#xa3;" horiz-adv-x="487" 
d="M457 4l-427 19v44l40 4l96 168l-17 78l-104 -4l2 54l89 5l-12 54l17 184l149 83l150 -45l-22 -82l-110 54l-85 -34l-3 -197l1 -13l60 4l83 9l-4 -69l-101 -1l-29 -1l16 -102l-114 -134l309 8z" />
    <glyph glyph-name="currency" unicode="&#xa4;" horiz-adv-x="566" 
d="M394 273l-1 109l-80 68l-114 -7l-46 -94l7 -79l75 -68l90 -4zM431 230l77 -85l-46 -49l-20 35l-48 58l-45 -53l-132 -3l-46 39q-9 -10 -21.5 -23t-23.5 -25l-26 -28l-50 46l75 69l-27 23l-9 87l31 119l-63 57l36 55l65 -61l49 28l149 -10l36 -35l75 82l49 -46l-83 -76
l21 -18l1 -157z" />
    <glyph glyph-name="yen" unicode="&#xa5;" horiz-adv-x="635" 
d="M549 647l-170 -287l129 8l-3 -57l-163 -14v-38l157 -4v-67l-155 4v-136l70 -22l6 -39l-221 4l-4 27l75 29l3 138l-161 7l-9 53l170 6v31l-4 8l-163 9l2 56l127 -8l-175 299l-60 10l2 27l221 4l-5 -39l-39 -13l140 -267l150 278l-67 18l1 31l228 1l4 -30z" />
    <glyph glyph-name="ordmasculine" unicode="&#xba;" horiz-adv-x="366" 
d="M132 649l-26 -52l-9 -80l69 -61l90 42l11 113l-57 46zM251 702l65 -72l-12 -167l-139 -65l-101 71l-14 133l58 95z" />
    <glyph glyph-name="degree" unicode="&#xb0;" horiz-adv-x="327" 
d="M114 649l-37 -107l54 -60l96 29l22 100l-58 46zM233 702l64 -72l-12 -143l-140 -64l-101 71l-14 108l60 95z" />
    <glyph glyph-name="less" unicode="&#x3c;" horiz-adv-x="502" 
d="M451 454l-17 -26l-325 -170l373 -198l-26 -64l-446 234v42l52 36l385 198z" />
    <glyph glyph-name="OE" unicode="&#x152;" horiz-adv-x="934" 
d="M325 50l136 18l14 286l-13 263l-61 19l-58 18l-137 -30l-59 -139l13 -386zM451 13l-161 -56l-229 94l-11 456l120 177l190 37l48 -16l459 -37v-124l-48 1l-14 60l-243 1l-17 -23l5 -207l276 -18l-9 -43l-265 -6l-8 -216l55 -27l224 -9l10 77l50 5l1 -150z" />
    <glyph glyph-name="oe" unicode="&#x153;" horiz-adv-x="831" 
d="M459 270l241 43l-29 124l-63 24l-140 -44zM400 254l-37 162l-81 61l-100 8l-84 -112l17 -210l109 -103l71 3zM510 -4l-88 177l-103 -175l-135 -5l-144 171l-10 221l119 146h164l105 -98l115 80l137 -12l76 -65l27 -167l-300 -48l53 -153l113 2l134 41l8 -76z" />
    <glyph glyph-name="cedilla" unicode="&#xb8;" horiz-adv-x="193" 
d="M151 20l-24 -60l66 -31l-31 -90l-75 -38l-87 18l23 53l41 -27l50 30l-1 44l-69 24l67 85z" />
    <glyph glyph-name="guilsinglleft" unicode="&#x2039;" horiz-adv-x="439" 
d="M390 407l-70 -43l-200 -111l104 -57l185 -97l-14 -73l-216 118l-169 98l6 33l176 83l206 120z" />
    <glyph glyph-name="guilsinglright" unicode="&#x203a;" horiz-adv-x="421" 
d="M92 436l319 -161l-4 -50l-358 -188l-19 56l129 67l170 93l-121 64l-162 83l3 65z" />
    <glyph glyph-name="numbersign" unicode="#" horiz-adv-x="656" 
d="M377 251l24 110l21 92l-145 -9l-12 -71l-34 -123l16 1h130zM454 251h134l-19 -48l-128 -2l-13 -60l-32 -146h-77l47 204l-150 -5l-51 -199l-88 -5l58 202l-125 -1v53l141 4l39 139l11 59l-150 6l-7 54l166 -3l44 217l82 -7l-21 -73l-27 -141l147 11l42 192l67 -9
l-36 -181l133 6l5 -56l-149 -5l-9 -43z" />
    <glyph glyph-name="afii61352" unicode="&#x2116;" horiz-adv-x="1043" 
d="M673 37l6 -37l-209 3l-3 27l49 19l-334 501l3 -500l52 -16l5 -38l-209 4l-3 27l83 31l-8 591l-64 16l2 31l214 1l5 -29l-57 -18l337 -511l7 512l-69 20l1 28l215 3l5 -29l-67 -22l-32 -591zM825 674l-47 -80l27 -108l74 -47l73 80l14 102l-51 44zM952 704l71 -74
l-12 -151l-115 -79l-112 26l-57 133l33 119l117 35zM793 345l116 -1l96 10l-10 -62l-53 5l-139 5l-68 -5v50z" />
    <glyph glyph-name="percent" unicode="%" horiz-adv-x="746" 
d="M121 645l-32 -99l4 -69l60 -54l42 -3l60 70l-4 109l-50 44zM237 704l76 -80l1 -154l-82 -107l-103 -2l-93 89l-6 92l30 132l61 39zM549 680l-44 -77l-234 -604l-59 24l-13 17l216 494l70 177zM523 274l-32 -99l4 -69l60 -54l42 -3l60 70l-4 109l-50 44zM639 333l76 -80
l1 -154l-82 -107l-103 -2l-93 89l-6 92l30 132l61 39z" />
    <glyph glyph-name="parenleft" unicode="(" horiz-adv-x="274" 
d="M253 797l-93 -231l-43 -304l37 -228l110 -201l-38 -24l-118 149l-58 265l19 313l146 280z" />
    <glyph glyph-name="parenright" unicode=")" horiz-adv-x="281" 
d="M63 829l149 -286l19 -320l-61 -271l-120 -152l-40 25l102 154l39 253l-7 308l-122 270z" />
    <glyph glyph-name="exclam" unicode="!" horiz-adv-x="211" 
d="M154 694l7 -45l-32 -486l-54 6l2 322l-17 208zM156 78l-29 -75l-65 2l-12 56l32 38z" />
    <glyph glyph-name="question" unicode="?" horiz-adv-x="420" 
d="M209 713l171 -59l20 -127l-134 -138l-106 -159l8 -68h-45l-13 89l48 119l165 164l-30 77l-102 43l-160 -60l-11 84zM194 70l28 -45l-63 -50l-41 54l14 45z" />
    <glyph glyph-name="asterisk" unicode="*" horiz-adv-x="368" 
d="M233 693l-6 -48l-11 -73l68 30l53 19l16 -40l5 -51h-76l-56 -12l28 -48l60 -54l-71 -63l-15 40l-28 66l-17 26l-23 -35l-35 -95l-54 29l-23 26l38 46l54 61l-69 9l-61 1l33 105l64 -43l58 -26l-5 59l-27 80z" />
    <glyph glyph-name="emdash" unicode="&#x2014;" horiz-adv-x="722" 
d="M20 361l342 -5l333 2l7 -59l-331 -2l-351 9v55z" />
    <glyph glyph-name="endash" unicode="&#x2013;" horiz-adv-x="545" 
d="M20 358q48 -2 87 -4q16 -1 32.5 -1.5t29.5 -1t22 -1t11 -0.5q1 0 16 0.5t38 1t52 1t59 1.5q70 2 158 4l-10 -59l-323 -2l-168 -12l-4 73v0z" />
    <glyph glyph-name="hyphen" unicode="-" horiz-adv-x="360" 
d="M172 368l168 -2l-6 -78l-131 4h-178l-5 79z" />
    <glyph glyph-name="plus" unicode="+" horiz-adv-x="461" 
d="M441 355v-63l-90 5l-91 -1l-1 -59l2 -128l-53 -1l-8 124l1 64h-71h-110l2 60l115 -3l66 2v40l-4 133l63 -5l3 -127l-3 -39l81 4z" />
    <glyph glyph-name="equal" unicode="=" horiz-adv-x="540" 
d="M201 434h163q70 0 156 1l-9 -57h-322h-167l-2 56h181zM196 276h159q68 0 153 1l3 -57h-326h-161l-3 56h175z" />
    <glyph glyph-name="section" unicode="&#xa7;" horiz-adv-x="468" 
d="M192 366l-49 -39l-14 -50l22 -65l136 -58l42 44l13 74l-69 66zM394 602l-136 29l-99 -29l-15 -105l141 -83l126 -96l16 -97l-87 -99l85 -77l3 -85l-106 -109l-184 1l-86 50l32 64l101 -52l119 9l36 60l-17 64l-138 77l-120 62l-25 106l48 85l40 23l-59 64l15 146l97 66
l102 13l123 -27z" />
    <glyph glyph-name="Euro" unicode="&#x20ac;" horiz-adv-x="560" 
d="M530 99l-89 -102l-175 -13l-148 96l-36 198l-71 1l3 36l62 -1l-2 7l9 47h-79l-4 30l87 2l20 110l112 167l180 36l123 -83l-76 -167l-44 16l31 130l-50 40l-127 -29l-58 -132l-15 -82l260 -5l-6 -37l-224 6h-36l-11 -49l3 -8h12l256 -4l8 -38l-267 3l33 -149l88 -52
l111 -13l79 87z" />
    <glyph glyph-name="dollar" unicode="$" horiz-adv-x="578" 
d="M448 128l-29 155l-72 16l4 -211zM316 73l1 26l-3 207l-43 9l3 -64l-12 -177l31 -9zM227 414l-1 85l-5 111l-78 -77l61 -115zM261 617l5 -132l2 -82l45 -14l-5 235zM464 350l60 -76l-17 -193l-154 -72l1 -81l-40 -12v77l-16 -8l-41 11l-4 -73h-41l6 84l-101 27l-33 -51
l-59 14l58 135l53 -15l85 -28l7 155l-1 79l-115 24l-56 209l106 122l57 5l-5 56l43 -17l2 -37l48 5v42l47 5l-6 -45l59 7l64 -43l27 36l55 -40l-93 -114l-42 35l-46 61l-32 -5l-1 -10l6 -237z" />
    <glyph glyph-name="plusminus" unicode="&#xb1;" horiz-adv-x="449" 
d="M429 392v-63l-88 5h-88l-2 -57l2 -126l-52 -1l-8 121l1 62h-68h-106v62l113 -5l64 2l1 38l-6 131l62 -4l3 -126l-3 -36l79 3zM221 110l202 -1l-4 -68l-173 6h-196l-6 67z" />
    <glyph glyph-name="multiply" unicode="&#xd7;" horiz-adv-x="441" 
d="M411 187l-50 -50l-69 74l-72 72l-48 -45l-100 -102l-42 38l92 107l51 48l-56 56l-87 89l50 46l87 -94l56 -50l31 31l103 109l46 -54l-101 -102l-32 -30l67 -60z" />
    <glyph glyph-name="threequarters" unicode="&#xbe;" horiz-adv-x="724" 
d="M470 126h95l1 126zM628 324l-5 -217l49 8l2 -39l-50 -8l5 -88l-73 -5l9 100l-168 1l-5 32l171 221zM535 656l-44 -78l-234 -602l-61 24l-3 7l217 494l60 186zM247 693l7 -18l-86 -92l89 -14l31 -139l-115 -81l-123 64l24 54l86 -61l71 52l-16 84l-102 4l-6 30l62 74
l-98 5l-3 43z" />
    <glyph glyph-name="onehalf" unicode="&#xbd;" horiz-adv-x="603" 
d="M446 656l-44 -78l-235 -602l-59 24l-3 7l216 494l60 186zM133 722l49 -12l2 -326l-60 -7v292l-62 -27l-12 59zM438 320l107 -62l-28 -126l-101 -86h137l-3 -46l-203 -3l-4 49l118 121l30 75l-49 19l-85 -24l-14 46z" />
    <glyph glyph-name="onequarter" unicode="&#xbc;" horiz-adv-x="635" 
d="M381 126h95l1 126zM539 324l-5 -217l49 8l2 -39l-50 -8l5 -88l-73 -5l9 100l-168 1l-5 32l171 221zM446 656l-44 -78l-234 -602l-61 24l-3 7l217 494l60 186zM133 722l49 -12l2 -326l-60 -7v292l-62 -27l-12 59z" />
    <glyph glyph-name="ae" unicode="&#xe6;" horiz-adv-x="722" 
d="M238 73q0 1 13.5 20.5t30.5 42.5q19 27 45 61l-9 68l-79 -1l-109 -73l-3 -106l38 -21l36 2q14 1 25.5 2.5t11.5 4.5zM385 257l2 4l178 23l7 114l-67 56l-111 -46zM519 -13l-151 46l-29 84l-69 -95l-160 -31l-60 71l2 145l162 107l103 15l10 105l-162 20l-47 -83l-52 58
l8 22l102 72l190 -52l82 34l122 -11l79 -97l-7 -158l-246 -42l31 -116l20 -23l82 -14l78 47l38 43l19 -12l8 -78z" />
    <glyph glyph-name="AE" unicode="&#xc6;" horiz-adv-x="824" 
d="M404 606l-100 -16l-94 -316l3 -22l199 58zM537 0l-132 9l13 46l-5 173l-242 -51l-9 -41l-20 -87l63 -18l5 -31l-205 2l-5 30l62 22l199 654l204 -20l293 -7l1 -126l-50 2l-14 61l-198 1l-18 -24l5 -208l233 -20l-9 -44l-221 -5l-3 -80l49 -164l180 -11l11 80l49 4l1 -152
z" />
    <glyph glyph-name="eth" unicode="&#xf0;" horiz-adv-x="518" 
d="M390 139l-5 129l-100 71l-84 -4l-88 -68l-1 -138l112 -64l79 1zM468 106l-141 -118l-152 -6l-145 150v155l125 112l166 7l50 -45l-19 132l-69 93l-99 -92l-24 41l90 98l-19 23l-92 60l32 39l81 -42l36 -41l21 23l22 67l58 -25l-28 -80l-33 -29l81 -91l24 -108z" />
    <glyph glyph-name="afii10023" unicode="&#x401;" horiz-adv-x="604" 
d="M458 817l-4 -54l-56 -24l-30 60l28 31zM273 812l4 -48l-68 -23l-29 53l29 44zM554 2l-500 7l-5 32l97 18l-33 572l-87 29l-6 33l517 -11v-125l-48 2l-13 60l-262 2l-18 -24l4 -207l296 -19l-8 -43l-286 -5l-2 -79l50 -164l244 -10l10 78l49 4z" />
    <glyph glyph-name="afii10071" unicode="&#x451;" horiz-adv-x="489" 
d="M394 627l6 -60l-52 -17l-45 49l36 51zM202 614l4 -48l-52 -18l-47 48l60 52zM134 270l225 37l-28 125l-65 23l-125 -41l-9 -148zM330 497l76 -67l28 -168l-301 -47l51 -153l114 3l134 40l7 -76l-270 -39l-119 176l13 247l128 95z" />
    <glyph glyph-name="afii10032" unicode="&#x41e;" horiz-adv-x="640" 
d="M172 621l-56 -210l51 -243l130 -112l86 -7l135 236l-52 243l-104 99zM416 705l137 -149l37 -291l-154 -278l-182 -6l-165 165l-39 257l54 244l109 76z" />
    <glyph glyph-name="afii10034" unicode="&#x420;" horiz-adv-x="543" 
d="M177 610l12 -263l177 1l86 107l-55 150l-133 32zM183 269v-216l60 -20l6 -36l-208 5l-2 24l71 28l-7 584l-34 27l-39 5l5 37l83 3l46 -24l92 8l214 -43l43 -246l-125 -122z" />
    <glyph glyph-name="afii10035" unicode="&#x421;" horiz-adv-x="500" 
d="M425 70l32 -76l-241 -16l-155 101l-16 450l117 169l194 39l124 -84l-124 -164l-30 23l61 116l-54 48l-132 -31l-54 -140v-388l92 -55z" />
    <glyph glyph-name="afii10039" unicode="&#x425;" horiz-adv-x="660" 
d="M660 1l-209 -6l-4 27l48 20l-124 220l-44 70l-155 -290l47 -16l-3 -29l-215 1l-1 30l71 19l222 336l-186 272l-60 18l1 29l213 1l5 -27l-54 -18l118 -220l18 -28l143 242l-51 25l4 25l208 -15l-7 -36l-74 -16l-193 -270v-2l196 -305l78 -20z" />
    <glyph glyph-name="afii10022" unicode="&#x415;" horiz-adv-x="616" 
d="M566 -9l-510 7l-6 34l99 17l-33 586l-87 30l-9 34l528 -12l1 -127l-50 2l-14 61l-266 1l-19 -24l5 -211l302 -21l-9 -43l-291 -5l-2 -83l50 -166l249 -10l11 80l50 5z" />
    <glyph glyph-name="afii10065" unicode="&#x430;" horiz-adv-x="519" 
d="M247 259l-112 -75l-3 -112l40 -21q20 1 37 2q14 1 25.5 2.5t11.5 3.5l4 6t10.5 15.5t14.5 21t17 23.5q20 28 47 64l-7 73zM183 529l226 -53l4 -411l85 -6l1 -46l-124 -12l-42 88l-52 -82l-169 -32l-62 75l4 152l171 111l106 14l8 109l-167 22l-49 -85l-55 58l10 25z" />
    <glyph glyph-name="afii10080" unicode="&#x43e;" horiz-adv-x="499" 
d="M187 459l-88 -114l19 -197l111 -105l75 1l94 184l-42 173l-67 50zM323 526l106 -98l40 -229l-141 -221l-140 -6l-147 177l-11 228l125 149h168z" />
    <glyph glyph-name="afii10082" unicode="&#x440;" horiz-adv-x="564" 
d="M443 250l-55 161l-112 15l-104 -37l6 -259l104 -40l133 59zM534 232l-104 -181l-161 -31l-101 46l5 -225l67 -23l-4 -39l-202 1l-4 30l62 25l-6 625l-34 12l34 66l87 -45l-7 -40l105 39l171 -2z" />
    <glyph glyph-name="afii10083" unicode="&#x441;" horiz-adv-x="430" 
d="M410 -6l-155 -8l-195 64l-8 247l85 171l141 48l108 -62l-54 -141l-31 16l31 93l-39 32v0l-117 -55l-54 -124l15 -179l118 -46l131 22z" />
    <glyph glyph-name="afii10087" unicode="&#x445;" horiz-adv-x="469" 
d="M469 1h-169l-3 26l32 12l-80 147l-28 57l-97 -197l54 -19l-4 -28l-172 2l-2 28l32 9l154 254l-132 180l-49 16l1 28h174l3 -25l-43 -17l94 -153l88 158l-31 18l6 23l168 -17l-8 -32l-63 -16l-119 -196l142 -208l48 -17z" />
    <glyph glyph-name="afii10070" unicode="&#x435;" horiz-adv-x="495" 
d="M134 274l228 36l-27 128l-66 25l-127 -44l-9 -149zM332 504l78 -69l28 -168l-305 -48l53 -156l115 4l136 41l8 -77l-275 -40l-120 177l13 251l131 95z" />
    <glyph glyph-name="greater" unicode="&#x3e;" horiz-adv-x="502" 
d="M52 509l387 -199l53 -36v-43l-448 -235l-24 60l377 194l-332 181l-17 25z" />
    <glyph glyph-name="period" unicode="." horiz-adv-x="189" 
d="M80 117l77 -20l2 -91l-87 -19l-42 75z" />
    <glyph glyph-name="comma" unicode="," horiz-adv-x="199" 
d="M107 120l62 -52l-34 -90l-72 -90l-33 8l69 99l-48 9l-13 86z" />
    <glyph glyph-name="quotesingle" unicode="'" horiz-adv-x="170" 
d="M130 694l-3 -45l-16 -189l-50 -4l-21 243z" />
    <glyph glyph-name="quotedbl" unicode="&#x22;" horiz-adv-x="316" 
d="M130 694l-3 -45l-16 -189l-50 -4l-21 243zM276 694l-3 -45l-16 -189l-50 -4l-21 243z" />
    <glyph glyph-name="paragraph" unicode="&#xb6;" horiz-adv-x="572" 
d="M497 380l11 -590l-75 -5l-3 217l8 620l-92 10l-3 -188l9 -662l-82 -8l11 139l3 273l-109 16l-145 151l38 259l225 94l219 -13z" />
    <glyph glyph-name="afii10017" unicode="&#x410;" horiz-adv-x="616" 
d="M615 0h-194l-23 24l78 22l-31 141l-24 46l-248 -31l-16 -54l-15 -102l62 -22v-32l-201 15v32l61 15l186 652l109 -16l195 -636l54 -15zM398 302l-85 311l-15 -8l-102 -325v-17z" />
    <glyph glyph-name="ampersand" unicode="&#x26;" horiz-adv-x="639" 
d="M585 51l49 -50l-111 -3l-62 72l-10 -15l-182 -90l-183 76l-66 183l122 147l34 23l-70 149l81 171l192 7l98 -145l-53 -89l-142 -114h-1l141 -165l33 -33l75 84l3 142l106 -4l-50 -147l-86 -121zM229 432l177 124l-51 90l-116 21l-49 -96l15 -110zM412 128l-3 4l-187 194
l-119 -97l24 -115l108 -75l146 54z" />
    <glyph glyph-name="slash" unicode="/" horiz-adv-x="335" 
d="M267 545l-198 -572l-69 6l272 744l63 -16z" />
    <glyph glyph-name="underscore" unicode="_" horiz-adv-x="335" 
d="M0 -52q48 -2 87 -4q16 -1 32.5 -1.5t29.5 -1t22 -1t11 -0.5q3 0 27.5 1t52.5 3q33 2 73 4l-10 -59l-153 -2l-168 -12l-4 73v0z" />
    <glyph glyph-name="bullet" unicode="&#x2022;" horiz-adv-x="326" 
d="M211 421l55 -89l-56 -90l-101 14l-49 81l50 86z" />
    <glyph glyph-name="afii10053" unicode="&#x404;" horiz-adv-x="603" 
d="M49 438l50 172l119 94l128 3l165 -76l30 -105l-84 -27l6 98l-123 52l-167 -76l-49 -148l1 -10l116 -18l147 21l-2 -72l-141 -7l-113 5l7 -56l15 -144l155 -85l176 62l-22 135l76 -4l14 -177l-256 -93l-228 116l-29 229z" />
    <glyph glyph-name="afii10101" unicode="&#x454;" horiz-adv-x="490" 
d="M47 325l42 115l65 53l112 29l138 -63l27 -92l-73 -19l6 81l-103 44l-110 -64l-40 -96v-8l99 -16l92 18l-2 -61l-86 -6l-95 4l5 -46l12 -73l99 -72l148 51l-19 115l65 -4l11 -151l-215 -77l-163 99l-22 144z" />
    <glyph glyph-name="afii10108" unicode="&#x45b;" horiz-adv-x="587" 
d="M113 578l2 53l-65 57l75 51l65 -103l-2 -59h9l168 -2l-6 -78l-131 4h-42l-7 -219l105 142l132 -39l61 -113l-14 -228l21 -14l69 110l54 -47l-117 -120l-84 37l-11 259l-69 77l-142 -131v-169l73 -22l6 -29l-195 -1l-6 30l38 15l11 462h-61l-5 79z" />
    <glyph glyph-name="afii10099" unicode="&#x452;" horiz-adv-x="517" 
d="M395 269l-69 77l-142 -131v-169l63 -22l6 -29l-195 -1l-6 30l48 15l11 462h-61l-5 79l68 -2l2 53l-65 57l75 51l65 -103l-2 -59h9l168 -2l-6 -78l-131 4h-42l-7 -219l105 142l132 -39l61 -113l-3 -214l-49 -111l-145 -67l-25 61l117 45l29 129z" />
    <glyph glyph-name="afii10105" unicode="&#x458;" 
d="M192 458l-8 -450l-49 -111l-200 -76l-5 71l152 44l29 129l-5 396l-53 17l-7 26l204 11l8 -21zM146 579l-53 53l18 67h64l29 -42z" />
    <glyph glyph-name="afii10054" unicode="&#x405;" horiz-adv-x="578" 
d="M409 704l63 -43l28 39l53 -42l-94 -113l-38 35l-48 62l-150 -24l-79 -80l61 -113l259 -68l61 -75l-18 -195l-207 -96l-183 50l-31 -50l-61 14l61 134l51 -15l158 -51l156 62l-30 155l-307 63l-57 209l106 124z" />
    <glyph glyph-name="afii10102" unicode="&#x455;" horiz-adv-x="473" 
d="M248 522l112 -46l40 39l43 -30l-76 -102l-36 34l-164 39l-53 -62l69 -97l201 -50l28 -170l-132 -82l-176 40l-24 -41l-50 9l34 105l204 -48l63 47l-24 84l-214 73l-58 119l48 111z" />
    <glyph glyph-name="quotedblbase" unicode="&#x201e;" horiz-adv-x="378" 
d="M106 136l62 -51l-34 -91l-72 -89l-32 7l68 99l-48 9l-13 86zM285 136l63 -51l-35 -91l-72 -89l-33 7l69 99l-48 9l-13 86z" />
    <glyph glyph-name="ellipsis" unicode="&#x2026;" horiz-adv-x="567" 
d="M80 117l77 -20l2 -91l-87 -19l-42 75zM269 117l77 -20l2 -91l-87 -19l-42 75zM458 117l77 -20l2 -91l-87 -19l-42 75z" />
    <glyph glyph-name="dagger" unicode="&#x2020;" horiz-adv-x="440" 
d="M248 712l6 -268h128q31 0 58 1l-9 -57h-175l2 -92l-12 -536l-64 -7l8 545l-5 90h-183l-2 56h151h32l-13 284z" />
    <glyph glyph-name="daggerdbl" unicode="&#x2021;" horiz-adv-x="440" 
d="M146 56h40l4 242l-5 110h-183l-2 56h183l-13 264l78 -16l6 -248h128q31 0 58 1l-9 -57h-175l2 -112l-6 -240h122q29 0 54 1l3 -57h-180l-5 -240l-64 -7l3 247h-181l-3 56h145z" />
    <glyph glyph-name="perthousand" unicode="&#x2030;" horiz-adv-x="1026" 
d="M121 645l-32 -99l4 -69l60 -54l42 -3l60 70l-4 109l-50 44zM237 704l76 -80l1 -154l-82 -107l-103 -2l-93 89l-6 92l30 132l61 39zM549 680l-44 -77l-234 -604l-59 24l-13 17l216 494l70 177zM493 274l-32 -99l4 -69l60 -54l42 -3l60 70l-4 109l-50 44zM609 333l76 -80
l1 -154l-82 -107l-103 -2l-93 89l-6 92l30 132l61 39zM803 274l-32 -99l4 -69l60 -54l42 -3l60 70l-4 109l-50 44zM919 333l76 -80l1 -154l-82 -107l-103 -2l-93 89l-6 92l30 132l61 39z" />
    <glyph glyph-name="afii10057" unicode="&#x408;" horiz-adv-x="470" 
d="M381 649l-11 -542l-44 -178l-146 -80l-139 67l-41 143l82 27l30 -154l59 -3l93 66l30 154l-6 504l-77 26l3 30l221 1l5 -37z" />
    <glyph glyph-name="logicalnot" unicode="&#xac;" horiz-adv-x="410" 
d="M390 367l-6 -178l-68 4l7 105l-120 4h-178l-5 69l152 -3l147 -2v1h71z" />
    <glyph glyph-name="uni00AD" unicode="&#xad;" horiz-adv-x="360" 
d="M172 368l168 -2l-6 -78l-131 4h-178l-5 79z" />
    <glyph glyph-name="afii10055" unicode="&#x406;" horiz-adv-x="282" 
d="M241 20l2 -30l-191 15l-1 29l69 22l-17 599l-73 25l2 27l214 2l6 -36l-67 -20l-3 -611z" />
    <glyph glyph-name="afii10103" unicode="&#x456;" 
d="M258 -13l-200 -2l-5 29l53 21l4 423l-73 25l-7 25l208 12l10 -20l-61 -34l-4 -430l71 -21zM121 584l-34 68l41 39l64 -8l5 -67z" />
    <glyph glyph-name="afii10056" unicode="&#x407;" horiz-adv-x="282" 
d="M241 20l2 -30l-191 15l-1 29l69 22l-17 599l-73 25l2 27l214 2l6 -36l-67 -20l-3 -611zM258 837l-4 -54l-56 -24l-30 60l28 31zM113 832l4 -48l-68 -23l-29 53l29 44z" />
    <glyph glyph-name="afii10104" unicode="&#x457;" 
d="M258 -13l-200 -2l-5 29l53 21l4 423l-73 25l-7 25l208 12l10 -20l-61 -34l-4 -430l71 -21zM31 584l-34 68l41 39l64 -8l5 -67zM181 584l-34 68l41 39l64 -8l5 -67z" />
    <glyph glyph-name="afii10098" unicode="&#x491;" horiz-adv-x="431" 
d="M335 503l3 69l71 6l2 -52l-5 -91l-229 -4l7 -376l61 -18l-5 -36h-206l-4 29l61 21l12 391l-54 34l1 20z" />
    <glyph glyph-name="afii10050" unicode="&#x490;" horiz-adv-x="510" 
d="M484 627l-298 -2l7 -573l59 -17l-6 -35h-212l-4 28l60 20l10 587l-51 32l1 20l366 11l-2 80l75 -1l1 -62z" />
    <glyph glyph-name="afii10062" unicode="&#x40e;" horiz-adv-x="677" 
d="M191 -23l-66 9l-3 97l135 -39l52 90l-250 512l-59 24l3 28l216 3l-7 -40l-39 -12l176 -430l160 436l-71 20l1 32l234 1l4 -31l-88 -28l-213 -534l-56 -112zM317 797l25 -19l102 121l66 -61l-160 -90h-33l-160 107l50 35z" />
    <glyph glyph-name="afii10110" unicode="&#x45e;" horiz-adv-x="531" 
d="M479 465l-172 -622l-101 -79l-111 26l-29 7l5 118l33 86l60 -25l-49 -71l10 -52l72 -24l50 29l20 91l15 89l-71 -16l-153 422l-45 4l-13 44l133 11l45 -210l110 -231l109 405l-47 15l3 27l175 2l3 -25zM236 609l23 -12l111 92l66 -60l-165 -70h-35l-152 88l50 33z" />
    <glyph glyph-name="brokenbar" unicode="&#xa6;" horiz-adv-x="208" 
d="M138 712l10 -416v-9l-26 1l-42 1v9l-20 430zM72 -247l6 459h68l-10 -452z" />
    <glyph glyph-name="afii10193" unicode="&#x45f;" horiz-adv-x="579" 
d="M500 54l49 -3l-10 -56l-30 8h-169l-14 -164l-49 1l-18 163h-182l-30 -8l-17 55l58 4l14 3l-5 411l-54 21l3 22l177 4l-4 -32l-40 -11l-1 -415h230v415l-40 11l-5 32l179 -4l-10 -22l-41 -21l-7 -411z" />
    <glyph glyph-name="afii10145" unicode="&#x40f;" horiz-adv-x="724" 
d="M634 75l60 -8l-15 -68l-36 10h-234l-15 -170l-49 1l-18 167l6 2h-245l-39 -10l-19 67l66 9h27l-7 568l-66 26l3 26l217 4l-5 -38l-59 -16l-2 -569h322v569l-59 16l-6 38l218 -4l-13 -26l-51 -26l-8 -568h27z" />
    <glyph glyph-name="afii10061" unicode="&#x40c;" horiz-adv-x="630" 
d="M630 54l-60 -80l-130 78l-71 224l-86 66l-86 -27l-2 -261l69 -14l5 -39l-220 4l-4 27l67 20v595l-82 30l1 29h225l6 -37l-61 -17l2 -1l-5 -269l100 28l67 51l61 221l119 24l17 -60l-73 -14l-89 -225l-38 -28l62 -32l77 -234zM285 731l43 139l47 -3l44 3l-49 -76l-42 -63
h-43z" />
    <glyph glyph-name="afii10109" unicode="&#x45c;" horiz-adv-x="495" 
d="M495 45l-42 -65l-84 51l-135 219l-74 -23l-2 -177l75 -23l6 -27l-198 -5l-6 29l50 21l-1 419l-54 17l2 25l202 3l-6 -37l-68 -14v-180l71 15l78 105l66 123l57 -18l-74 -140l-69 -92l138 -187zM217 550l43 139l47 -3l44 3l-49 -76l-42 -63h-43z" />
    <glyph glyph-name="afii10052" unicode="&#x403;" horiz-adv-x="510" 
d="M490 612l-1 -62l-87 13l14 66l-230 -4l7 -573l59 -17l-6 -35h-212l-4 28l60 20l10 587l-51 32l1 20l434 13zM245 731l43 139l47 -3l44 3l-49 -76l-42 -63h-43z" />
    <glyph glyph-name="afii10100" unicode="&#x453;" horiz-adv-x="431" 
d="M411 419l-2 -52l-78 12l14 56l-168 -4l7 -376l61 -18l-5 -36h-206l-4 29l61 21l12 391l-54 34l1 20l356 14zM197 540l43 139l47 -3l44 3l-49 -76l-42 -63h-43z" />
    <glyph glyph-name="quotesinglbase" unicode="&#x201a;" horiz-adv-x="199" 
d="M107 120l62 -52l-34 -90l-72 -90l-33 8l69 99l-48 9l-13 86z" />
    <glyph glyph-name="grave" unicode="`" horiz-adv-x="134" 
d="M91 571l-42 63l-49 76l44 -3l47 3l43 -139h-43z" />
    <glyph glyph-name="afii10060" unicode="&#x40b;" horiz-adv-x="735" 
d="M261 627l-3 -247l287 48l83 -56l12 -329l65 -25l-3 -26h-218l-5 34l66 20l9 273l-77 34l-224 -23l-10 -277l65 -23l7 -26l-203 -12l-12 23l71 39v574l-13 1l-82 -11l-4 -41l-58 -6l-14 129l148 -6l327 6l-20 -120l-50 10l-5 36h-100z" />
    <glyph glyph-name="afii10051" unicode="&#x402;" horiz-adv-x="675" 
d="M575 -53l-145 -67l-25 61l117 45l29 129l3 204l-77 34l-224 -23l-10 -277l65 -23l7 -26l-203 -12l-12 23l71 39v574l-13 1l-82 -11l-4 -41l-58 -6l-14 129l148 -6l327 6l-20 -120l-50 10l-5 36h-100l-39 1l-3 -247l287 48l83 -56l7 -306z" />
    <glyph glyph-name="mu" unicode="&#xb5;" horiz-adv-x="600" 
d="M218 -229l-211 4l-3 26l72 21v323l-1 4l-3 308l-42 18l3 24l179 4l-5 -36l-52 -21v-282l37 -89l65 36l121 67l16 278l-44 20l3 27h158l5 -34l-52 -20l-3 -371l15 -25l100 87l44 -76l-147 -70l-56 15l-18 58l-13 69l-177 -141l-62 21l-2 -193l68 -14z" />
    <glyph glyph-name="afii10059" unicode="&#x40a;" horiz-adv-x="876" 
d="M714 395l132 -116l-45 -227l-204 -46l-105 8l-49 -25l-86 2l-5 39l41 5l35 29l-3 269h-235l-15 -273l78 -26l6 -37l-219 3l-2 25l76 30l-18 585l-66 23l3 28l220 2l6 -37l-66 -20l-3 -215l235 -17l-2 235l-63 6l-10 52l203 -3l9 -34l-62 -20v-230zM607 65l119 35l52 135
l-85 91l-187 2l-1 -236z" />
    <glyph glyph-name="afii10107" unicode="&#x45a;" horiz-adv-x="786" 
d="M680 7l-129 -3l-106 38l6 -39l-87 -46l-34 67l45 9l-3 199h-212l-14 -182l69 -22l4 -32l-178 2l-3 23l64 26l-14 413l-58 21l4 25h181l4 -30l-56 -17l-3 -160l211 -3l-2 159l-36 3l-13 38l182 14l6 -39l-69 -20l3 -149l237 -7l87 -126zM650 228l-199 9l-2 -131l106 -35
l80 3l52 76z" />
    <glyph glyph-name="afii10058" unicode="&#x409;" horiz-adv-x="856" 
d="M694 435l132 -126l-45 -257l-204 -56l-59 5l-170 4l-3 27l71 15l14 581h-64l-84 -16l-26 -206l-55 -302l-45 -95l-139 -26l-17 60l84 24l45 50l57 299l22 209l-80 25l4 53l204 -10l239 18l18 -68l-64 -16l-19 -2l-3 -175zM506 368l-2 -289l83 -24l119 45l47 155l-80 111z
" />
    <glyph glyph-name="afii10106" unicode="&#x459;" horiz-adv-x="775" 
d="M505 509l16 -53l-57 -14l-19 -1l-2 -158l94 41l123 -31l95 -156l-84 -135l-125 -3l-46 2l1 -4l-194 4l-2 25l61 24l13 392h-56l-87 -15l-23 -137l-27 -187l-40 -90l-132 -22l-14 54l79 22l42 47l28 189l20 138l-75 21l4 40l197 -9zM641 226l-96 41l-99 -52l-2 -144
l106 -5l86 3l47 69z" />
    <glyph glyph-name="asciicircum" unicode="^" horiz-adv-x="358" 
d="M80 480h-80l137 233l70 -4l151 -229h-76l-113 161l-73 -131z" />
    <glyph glyph-name="A" unicode="A" horiz-adv-x="616" 
d="M615 0h-194l-23 24l78 22l-31 141l-24 46l-248 -31l-16 -54l-15 -102l62 -22v-32l-201 15v32l61 15l186 652l109 -16l195 -636l54 -15zM398 302l-85 311l-15 -8l-102 -325v-17z" />
    <glyph glyph-name="caron" unicode="&#x2c7;" horiz-adv-x="320" 
d="M170 572l-170 138l50 7l40 8l77 -88l63 73l47 -3l43 -8l-149 -128h-1v1z" />
    <glyph glyph-name="breve" unicode="&#x2d8;" horiz-adv-x="353" 
d="M160 627l25 -19l102 121l66 -61l-160 -90h-33l-160 107l50 35z" />
    <glyph glyph-name="dieresis" unicode="&#xa8;" horiz-adv-x="268" 
d="M268 673l-4 -54l-56 -24l-30 60l28 31zM93 668l4 -48l-68 -23l-29 53l29 44z" />
    <glyph glyph-name="acute" unicode="&#xb4;" horiz-adv-x="134" 
d="M0 570l43 139l47 -3l44 3l-49 -76l-42 -63h-43z" />
    <glyph glyph-name="hungarumlaut" unicode="&#x2dd;" horiz-adv-x="250" 
d="M0 580l59 129l37 -3l44 2l-63 -75l-44 -53h-33zM110 578l59 130l37 -4l44 3l-63 -76l-44 -53h-33z" />
    <glyph glyph-name="circumflex" unicode="&#x2c6;" horiz-adv-x="320" 
d="M150 724l170 -146l-50 1l-40 2l-77 78l-63 -83l-47 3l-43 8l149 138h1v-1z" />
    <glyph glyph-name="florin" unicode="&#x192;" horiz-adv-x="406" 
d="M183 -59l-118 -107l-155 26l27 55l112 -18l61 65l65 420l8 39l-68 9l10 36l63 19l24 129l118 107l156 -26l-27 -55l-113 18l-61 -65l-20 -106l141 19l-4 -53l-144 -15z" />
    <glyph glyph-name="Scaron" unicode="&#x160;" horiz-adv-x="578" 
d="M25 0zM409 704l63 -43l28 39l53 -42l-94 -113l-38 35l-48 62l-150 -24l-79 -80l61 -113l259 -68l61 -75l-18 -195l-207 -96l-183 50l-31 -50l-61 14l61 134l51 -15l158 -51l156 62l-30 155l-307 63l-57 209l106 124zM299 732l-170 138l50 7l40 8l77 -88l63 73l47 -3
l43 -8l-149 -128h-1v1z" />
    <glyph glyph-name="Zcaron" unicode="&#x17d;" horiz-adv-x="560" 
d="M30 2zM66 715l53 -18l395 7l8 -66l-383 -544l22 -19l262 18l8 54l82 6l17 -140l-487 -11l-13 73l383 548l-271 3l-17 -48l-75 16zM290 732l-170 138l50 7l40 8l77 -88l63 73l47 -3l43 -8l-149 -128h-1v1z" />
    <glyph glyph-name="scaron" unicode="&#x161;" horiz-adv-x="473" 
d="M30 0zM248 522l112 -46l40 39l43 -30l-76 -102l-36 34l-164 39l-53 -62l69 -97l201 -50l28 -170l-132 -82l-176 40l-24 -41l-50 9l34 105l204 -48l63 47l-24 84l-214 73l-58 119l48 111zM246 543l-170 138l50 7l40 8l77 -88l63 73l47 -3l43 -8l-149 -128h-1v1z" />
    <glyph glyph-name="zcaron" unicode="&#x17e;" horiz-adv-x="482" 
d="M40 3zM122 503l301 11l3 -78l-291 -375l213 21l11 60l82 6l1 -145l-402 7l8 64l283 366l-202 12l-19 -42l-37 7l2 97zM251 543l-170 138l50 7l40 8l77 -88l63 73l47 -3l43 -8l-149 -128h-1v1z" />
    <glyph glyph-name="Ydieresis" unicode="&#x178;" horiz-adv-x="630" 
d="M0 2zM396 39l5 -37l-210 4l-2 24l71 28l-3 249l-203 346l-54 21l3 26l210 4l-7 -37l-35 -12l130 -266l171 273l-64 17l2 30l215 1l5 -29l-82 -26l-225 -341l6 -254zM449 843l-4 -54l-56 -24l-30 60l28 31zM274 838l4 -48l-68 -23l-29 53l29 44z" />
    <glyph glyph-name="exclamdown" unicode="&#xa1;" horiz-adv-x="211" 
d="M82 413l-32 38l12 56l65 2l29 -75zM60 -187l17 208l-2 322l54 6l32 -486l-7 -45z" />
    <glyph glyph-name="macron" unicode="&#xaf;" horiz-adv-x="249" 
d="M124 662l125 -2l-4 -58l-98 3h-143l-4 59z" />
    <glyph glyph-name="questiondown" unicode="&#xbf;" horiz-adv-x="420" 
d="M211 -215l-171 59l-20 127l134 138l106 159l-8 68h45l13 -89l-48 -119l-165 -164l30 -77l102 -43l160 60l11 -84zM226 428l-28 45l63 50l41 -54l-14 -45z" />
    <glyph glyph-name="Agrave" unicode="&#xc0;" horiz-adv-x="616" 
d="M3 0zM615 0h-194l-23 24l78 22l-31 141l-24 46l-248 -31l-16 -54l-15 -102l62 -22v-32l-201 15v32l61 15l186 652l109 -16l195 -636l54 -15zM398 302l-85 311l-15 -8l-102 -325v-17zM282 751l-42 63l-49 76l44 -3l47 3l43 -139h-43z" />
    <glyph glyph-name="Aacute" unicode="&#xc1;" horiz-adv-x="616" 
d="M3 0zM615 0h-194l-23 24l78 22l-31 141l-24 46l-248 -31l-16 -54l-15 -102l62 -22v-32l-201 15v32l61 15l186 652l109 -16l195 -636l54 -15zM398 302l-85 311l-15 -8l-102 -325v-17zM281 750l43 139l47 -3l44 3l-49 -76l-42 -63h-43z" />
    <glyph glyph-name="Acircumflex" unicode="&#xc2;" horiz-adv-x="616" 
d="M3 0zM615 0h-194l-23 24l78 22l-31 141l-24 46l-248 -31l-16 -54l-15 -102l62 -22v-32l-201 15v32l61 15l186 652l109 -16l195 -636l54 -15zM398 302l-85 311l-15 -8l-102 -325v-17zM298 884l170 -146l-50 1l-40 2l-77 78l-63 -83l-47 3l-43 8l149 138h1v-1z" />
    <glyph glyph-name="Adieresis" unicode="&#xc4;" horiz-adv-x="616" 
d="M3 0zM615 0h-194l-23 24l78 22l-31 141l-24 46l-248 -31l-16 -54l-15 -102l62 -22v-32l-201 15v32l61 15l186 652l109 -16l195 -636l54 -15zM398 302l-85 311l-15 -8l-102 -325v-17zM432 823l-4 -54l-56 -24l-30 60l28 31zM257 818l4 -48l-68 -23l-29 53l29 44z" />
    <glyph glyph-name="Ccedilla" unicode="&#xc7;" horiz-adv-x="500" 
d="M45 0zM425 70l32 -76l-241 -16l-155 101l-16 450l117 169l194 39l124 -84l-124 -164l-30 23l61 116l-54 48l-132 -31l-54 -140v-388l92 -55zM310 20l-24 -60l66 -31l-31 -90l-75 -38l-87 18l23 53l41 -27l50 30l-1 44l-69 24l67 85z" />
    <glyph glyph-name="Egrave" unicode="&#xc8;" horiz-adv-x="626" 
d="M20 0zM576 -12l-520 7l-5 34l100 18l-34 596l-89 31l-8 35l538 -13l1 -129l-51 2l-15 63l-271 1l-19 -25l5 -215l308 -21l-9 -44l-296 -6l-3 -83l51 -170l253 -10l12 81l51 6zM317 751l-42 63l-49 76l44 -3l47 3l43 -139h-43z" />
    <glyph glyph-name="Eacute" unicode="&#xc9;" horiz-adv-x="626" 
d="M20 0zM576 -12l-520 7l-5 34l100 18l-34 596l-89 31l-8 35l538 -13l1 -129l-51 2l-15 63l-271 1l-19 -25l5 -215l308 -21l-9 -44l-296 -6l-3 -83l51 -170l253 -10l12 81l51 6zM286 750l43 139l47 -3l44 3l-49 -76l-42 -63h-43z" />
    <glyph glyph-name="Ecircumflex" unicode="&#xca;" horiz-adv-x="626" 
d="M20 0zM576 -12l-520 7l-5 34l100 18l-34 596l-89 31l-8 35l538 -13l1 -129l-51 2l-15 63l-271 1l-19 -25l5 -215l308 -21l-9 -44l-296 -6l-3 -83l51 -170l253 -10l12 81l51 6zM303 904l170 -146l-50 1l-40 2l-77 78l-63 -83l-47 3l-43 8l149 138h1v-1z" />
    <glyph glyph-name="Edieresis" unicode="&#xcb;" horiz-adv-x="626" 
d="M20 0zM576 -12l-520 7l-5 34l100 18l-34 596l-89 31l-8 35l538 -13l1 -129l-51 2l-15 63l-271 1l-19 -25l5 -215l308 -21l-9 -44l-296 -6l-3 -83l51 -170l253 -10l12 81l51 6zM447 853l-4 -54l-56 -24l-30 60l28 31zM272 848l4 -48l-68 -23l-29 53l29 44z" />
    <glyph glyph-name="Igrave" unicode="&#xcc;" horiz-adv-x="282" 
d="M30 0zM241 20l2 -30l-191 15l-1 29l69 22l-17 599l-73 25l2 27l214 2l6 -36l-67 -20l-3 -611zM135 761l-42 63l-49 76l44 -3l47 3l43 -139h-43z" />
    <glyph glyph-name="Iacute" unicode="&#xcd;" horiz-adv-x="282" 
d="M30 0zM241 20l2 -30l-191 15l-1 29l69 22l-17 599l-73 25l2 27l214 2l6 -36l-67 -20l-3 -611zM104 760l43 139l47 -3l44 3l-49 -76l-42 -63h-43z" />
    <glyph glyph-name="Icircumflex" unicode="&#xce;" horiz-adv-x="282" 
d="M0 0zM241 20l2 -30l-191 15l-1 29l69 22l-17 599l-73 25l2 27l214 2l6 -36l-67 -20l-3 -611zM132 904l170 -146l-50 1l-40 2l-77 78l-63 -83l-47 3l-43 8l149 138h1v-1z" />
    <glyph glyph-name="Idieresis" unicode="&#xcf;" horiz-adv-x="282" 
d="M7 0zM241 20l2 -30l-191 15l-1 29l69 22l-17 599l-73 25l2 27l214 2l6 -36l-67 -20l-3 -611zM275 843l-4 -54l-56 -24l-30 60l28 31zM100 838l4 -48l-68 -23l-29 53l29 44z" />
    <glyph glyph-name="Eth" unicode="&#xd0;" horiz-adv-x="656" 
d="M143 398l2 239l-70 27l4 36l99 5l248 -19l200 -213l-32 -321l-160 -160l-254 18l-150 -3l3 31l108 25l2 258h-78l-5 79zM547 456l-132 148l-111 27l-74 -20l-3 -214l153 -2l-6 -78l-131 4h-17l-2 -228l191 -19l121 139z" />
    <glyph glyph-name="Ograve" unicode="&#xd2;" horiz-adv-x="629" 
d="M50 0zM170 614l-55 -206l50 -238l127 -109l84 -7l132 231l-50 238l-102 97zM409 696l134 -146l36 -285l-151 -272l-178 -6l-162 162l-38 252l53 239l107 74zM288 761l-42 63l-49 76l44 -3l47 3l43 -139h-43z" />
    <glyph glyph-name="Oacute" unicode="&#xd3;" horiz-adv-x="629" 
d="M50 0zM170 614l-55 -206l50 -238l127 -109l84 -7l132 231l-50 238l-102 97zM409 696l134 -146l36 -285l-151 -272l-178 -6l-162 162l-38 252l53 239l107 74zM257 760l43 139l47 -3l44 3l-49 -76l-42 -63h-43z" />
    <glyph glyph-name="Ocircumflex" unicode="&#xd4;" horiz-adv-x="629" 
d="M50 0zM170 614l-55 -206l50 -238l127 -109l84 -7l132 231l-50 238l-102 97zM409 696l134 -146l36 -285l-151 -272l-178 -6l-162 162l-38 252l53 239l107 74zM294 904l170 -146l-50 1l-40 2l-77 78l-63 -83l-47 3l-43 8l149 138h1v-1z" />
    <glyph glyph-name="Odieresis" unicode="&#xd6;" horiz-adv-x="629" 
d="M50 0zM170 614l-55 -206l50 -238l127 -109l84 -7l132 231l-50 238l-102 97zM409 696l134 -146l36 -285l-151 -272l-178 -6l-162 162l-38 252l53 239l107 74zM428 843l-4 -54l-56 -24l-30 60l28 31zM253 838l4 -48l-68 -23l-29 53l29 44z" />
    <glyph glyph-name="Oslash" unicode="&#xd8;" horiz-adv-x="629" 
d="M456 645l87 -95l36 -285l-151 -272l-178 -6l-22 21l-12 -35l-69 6l29 81l-88 89l-38 252l53 239l107 74l199 -18l10 27l63 -16zM170 614l-55 -206l50 -238l39 -34l170 466l-18 18zM420 559l-6 -14l-157 -454l35 -30l84 -7l132 231l-50 238z" />
    <glyph glyph-name="Ugrave" unicode="&#xd9;" horiz-adv-x="696" 
d="M30 0zM662 673l-55 -19l-19 -535l-101 -119l-256 -10l-117 126l-23 498l-5 42l-56 15l1 29l211 2l3 -29l-66 -20l3 -481l63 -101l207 7l61 87l-8 495l-47 15l1 27l207 7zM342 731l-42 63l-49 76l44 -3l47 3l43 -139h-43z" />
    <glyph glyph-name="Uacute" unicode="&#xda;" horiz-adv-x="696" 
d="M30 0zM662 673l-55 -19l-19 -535l-101 -119l-256 -10l-117 126l-23 498l-5 42l-56 15l1 29l211 2l3 -29l-66 -20l3 -481l63 -101l207 7l61 87l-8 495l-47 15l1 27l207 7zM321 730l43 139l47 -3l44 3l-49 -76l-42 -63h-43z" />
    <glyph glyph-name="Ucircumflex" unicode="&#xdb;" horiz-adv-x="696" 
d="M30 0zM662 673l-55 -19l-19 -535l-101 -119l-256 -10l-117 126l-23 498l-5 42l-56 15l1 29l211 2l3 -29l-66 -20l3 -481l63 -101l207 7l61 87l-8 495l-47 15l1 27l207 7zM338 894l170 -146l-50 1l-40 2l-77 78l-63 -83l-47 3l-43 8l149 138h1v-1z" />
    <glyph glyph-name="Udieresis" unicode="&#xdc;" horiz-adv-x="696" 
d="M30 0zM662 673l-55 -19l-19 -535l-101 -119l-256 -10l-117 126l-23 498l-5 42l-56 15l1 29l211 2l3 -29l-66 -20l3 -481l63 -101l207 7l61 87l-8 495l-47 15l1 27l207 7zM482 833l-4 -54l-56 -24l-30 60l28 31zM307 828l4 -48l-68 -23l-29 53l29 44z" />
    <glyph glyph-name="Yacute" unicode="&#xdd;" horiz-adv-x="630" 
d="M0 2zM396 39l5 -37l-210 4l-2 24l71 28l-3 249l-203 346l-54 21l3 26l210 4l-7 -37l-35 -12l130 -266l171 273l-64 17l2 30l215 1l5 -29l-82 -26l-225 -341l6 -254zM268 730l43 139l47 -3l44 3l-49 -76l-42 -63h-43z" />
    <glyph glyph-name="agrave" unicode="&#xe0;" horiz-adv-x="519" 
d="M50 0zM247 259l-112 -75l-3 -112l40 -21q20 1 37 2q14 1 25.5 2.5t11.5 3.5l4 6t10.5 15.5t14.5 21t17 23.5q20 28 47 64l-7 73zM183 529l226 -53l4 -411l85 -6l1 -46l-124 -12l-42 88l-52 -82l-169 -32l-62 75l4 152l171 111l106 14l8 109l-167 22l-49 -85l-55 58l10 25
zM248 562l-42 63l-49 76l44 -3l47 3l43 -139h-43z" />
    <glyph glyph-name="aacute" unicode="&#xe1;" horiz-adv-x="519" 
d="M50 0zM247 259l-112 -75l-3 -112l40 -21q20 1 37 2q14 1 25.5 2.5t11.5 3.5l4 6t10.5 15.5t14.5 21t17 23.5q20 28 47 64l-7 73zM183 529l226 -53l4 -411l85 -6l1 -46l-124 -12l-42 88l-52 -82l-169 -32l-62 75l4 152l171 111l106 14l8 109l-167 22l-49 -85l-55 58l10 25
zM217 561l43 139l47 -3l44 3l-49 -76l-42 -63h-43z" />
    <glyph glyph-name="acircumflex" unicode="&#xe2;" horiz-adv-x="519" 
d="M50 0zM247 259l-112 -75l-3 -112l40 -21q20 1 37 2q14 1 25.5 2.5t11.5 3.5l4 6t10.5 15.5t14.5 21t17 23.5q20 28 47 64l-7 73zM183 529l226 -53l4 -411l85 -6l1 -46l-124 -12l-42 88l-52 -82l-169 -32l-62 75l4 152l171 111l106 14l8 109l-167 22l-49 -85l-55 58l10 25
zM244 715l170 -146l-50 1l-40 2l-77 78l-63 -83l-47 3l-43 8l149 138h1v-1z" />
    <glyph glyph-name="adieresis" unicode="&#xe4;" horiz-adv-x="519" 
d="M50 0zM247 259l-112 -75l-3 -112l40 -21q20 1 37 2q14 1 25.5 2.5t11.5 3.5l4 6t10.5 15.5t14.5 21t17 23.5q20 28 47 64l-7 73zM183 529l226 -53l4 -411l85 -6l1 -46l-124 -12l-42 88l-52 -82l-169 -32l-62 75l4 152l171 111l106 14l8 109l-167 22l-49 -85l-55 58l10 25
zM378 644l-4 -54l-56 -24l-30 60l28 31zM203 639l4 -48l-68 -23l-29 53l29 44z" />
    <glyph glyph-name="ccedilla" unicode="&#xe7;" horiz-adv-x="430" 
d="M52 0zM410 4l-155 -8l-195 64l-8 247l85 171l141 48l108 -62l-54 -141l-31 16l31 93l-39 32v0l-117 -55l-54 -124l15 -179l118 -46l131 22zM279 20l-24 -60l66 -31l-31 -90l-75 -38l-87 18l23 53l41 -27l50 30l-1 44l-69 24l67 85z" />
    <glyph glyph-name="egrave" unicode="&#xe8;" horiz-adv-x="505" 
d="M50 0zM136 268l234 37l-28 131l-67 25l-131 -44l-9 -153zM339 503l80 -70l29 -172l-313 -50l54 -159l118 3l140 42l8 -79l-282 -40l-123 182l14 257l134 97zM246 562l-42 63l-49 76l44 -3l47 3l43 -139h-43z" />
    <glyph glyph-name="eacute" unicode="&#xe9;" horiz-adv-x="505" 
d="M50 0zM136 268l234 37l-28 131l-67 25l-131 -44l-9 -153zM339 503l80 -70l29 -172l-313 -50l54 -159l118 3l140 42l8 -79l-282 -40l-123 182l14 257l134 97zM225 561l43 139l47 -3l44 3l-49 -76l-42 -63h-43z" />
    <glyph glyph-name="ecircumflex" unicode="&#xea;" horiz-adv-x="505" 
d="M50 0zM136 268l234 37l-28 131l-67 25l-131 -44l-9 -153zM339 503l80 -70l29 -172l-313 -50l54 -159l118 3l140 42l8 -79l-282 -40l-123 182l14 257l134 97zM242 705l170 -146l-50 1l-40 2l-77 78l-63 -83l-47 3l-43 8l149 138h1v-1z" />
    <glyph glyph-name="edieresis" unicode="&#xeb;" horiz-adv-x="505" 
d="M50 0zM136 268l234 37l-28 131l-67 25l-131 -44l-9 -153zM339 503l80 -70l29 -172l-313 -50l54 -159l118 3l140 42l8 -79l-282 -40l-123 182l14 257l134 97zM386 644l-4 -54l-56 -24l-30 60l28 31zM211 639l4 -48l-68 -23l-29 53l29 44z" />
    <glyph glyph-name="igrave" unicode="&#xec;" 
d="M258 -13l-200 -2l-5 29l53 21l4 423l-73 25l-7 25l208 12l10 -20l-61 -34l-4 -430l71 -21zM128 571l-42 63l-49 76l44 -3l47 3l43 -139h-43z" />
    <glyph glyph-name="iacute" unicode="&#xed;" 
d="M258 -13l-200 -2l-5 29l53 21l4 423l-73 25l-7 25l208 12l10 -20l-61 -34l-4 -430l71 -21zM107 570l43 139l47 -3l44 3l-49 -76l-42 -63h-43z" />
    <glyph glyph-name="icircumflex" unicode="&#xee;" 
d="M258 -13l-200 -2l-5 29l53 21l4 423l-73 25l-7 25l208 12l10 -20l-61 -34l-4 -430l71 -21zM134 704l170 -146l-50 1l-40 2l-77 78l-63 -83l-47 3l-43 8l149 138h1v-1z" />
    <glyph glyph-name="idieresis" unicode="&#xef;" 
d="M258 -13l-200 -2l-5 29l53 21l4 423l-73 25l-7 25l208 12l10 -20l-61 -34l-4 -430l71 -21zM268 663l-4 -54l-56 -24l-30 60l28 31zM93 658l4 -48l-68 -23l-29 53l29 44z" />
    <glyph glyph-name="ograve" unicode="&#xf2;" horiz-adv-x="499" 
d="M30 0zM187 459l-88 -114l19 -197l111 -105l75 1l94 184l-42 173l-67 50zM323 526l106 -98l40 -229l-141 -221l-140 -6l-147 177l-11 228l125 149h168zM233 571l-42 63l-49 76l44 -3l47 3l43 -139h-43z" />
    <glyph glyph-name="oacute" unicode="&#xf3;" horiz-adv-x="499" 
d="M30 0zM187 459l-88 -114l19 -197l111 -105l75 1l94 184l-42 173l-67 50zM323 526l106 -98l40 -229l-141 -221l-140 -6l-147 177l-11 228l125 149h168zM212 570l43 139l47 -3l44 3l-49 -76l-42 -63h-43z" />
    <glyph glyph-name="ocircumflex" unicode="&#xf4;" horiz-adv-x="499" 
d="M30 0zM187 459l-88 -114l19 -197l111 -105l75 1l94 184l-42 173l-67 50zM323 526l106 -98l40 -229l-141 -221l-140 -6l-147 177l-11 228l125 149h168zM229 715l170 -146l-50 1l-40 2l-77 78l-63 -83l-47 3l-43 8l149 138h1v-1z" />
    <glyph glyph-name="odieresis" unicode="&#xf6;" horiz-adv-x="499" 
d="M30 0zM187 459l-88 -114l19 -197l111 -105l75 1l94 184l-42 173l-67 50zM323 526l106 -98l40 -229l-141 -221l-140 -6l-147 177l-11 228l125 149h168zM373 654l-4 -54l-56 -24l-30 60l28 31zM198 649l4 -48l-68 -23l-29 53l29 44z" />
    <glyph glyph-name="divide" unicode="&#xf7;" horiz-adv-x="461" 
d="M441 355v-63l-90 5l-221 -1h-110l2 60l115 -3l206 8zM264 572l30 -69l-56 -72l-88 55l26 82zM206 207l77 -20l2 -91l-87 -19l-42 75z" />
    <glyph glyph-name="oslash" unicode="&#xf8;" horiz-adv-x="499" 
d="M121 -37l-59 16l49 85l-70 85l-11 228l125 149h168l34 -32l30 52l53 -26l-38 -67l27 -25l40 -229l-141 -221l-140 -6l-37 44zM187 459l-88 -114l19 -197l26 -25l175 305l-30 23zM229 43l75 1l94 184l-37 153l-172 -300z" />
    <glyph glyph-name="ugrave" unicode="&#xf9;" horiz-adv-x="600" 
d="M30 0zM620 54l-147 -70l-56 15l-18 58l-13 69l-177 -141l-104 36l-30 118l-3 308l-42 18l3 24l179 4l-5 -36l-52 -21v-282l37 -89l65 36l121 67l16 278l-44 20l3 27h158l5 -34l-52 -20l-3 -371l15 -25l100 87zM264 552l-42 63l-49 76l44 -3l47 3l43 -139h-43z" />
    <glyph glyph-name="uacute" unicode="&#xfa;" horiz-adv-x="600" 
d="M30 0zM620 54l-147 -70l-56 15l-18 58l-13 69l-177 -141l-104 36l-30 118l-3 308l-42 18l3 24l179 4l-5 -36l-52 -21v-282l37 -89l65 36l121 67l16 278l-44 20l3 27h158l5 -34l-52 -20l-3 -371l15 -25l100 87zM243 551l43 139l47 -3l44 3l-49 -76l-42 -63h-43z" />
    <glyph glyph-name="ucircumflex" unicode="&#xfb;" horiz-adv-x="600" 
d="M30 0zM620 54l-147 -70l-56 15l-18 58l-13 69l-177 -141l-104 36l-30 118l-3 308l-42 18l3 24l179 4l-5 -36l-52 -21v-282l37 -89l65 36l121 67l16 278l-44 20l3 27h158l5 -34l-52 -20l-3 -371l15 -25l100 87zM270 705l170 -146l-50 1l-40 2l-77 78l-63 -83l-47 3l-43 8
l149 138h1v-1z" />
    <glyph glyph-name="udieresis" unicode="&#xfc;" horiz-adv-x="600" 
d="M30 0zM620 54l-147 -70l-56 15l-18 58l-13 69l-177 -141l-104 36l-30 118l-3 308l-42 18l3 24l179 4l-5 -36l-52 -21v-282l37 -89l65 36l121 67l16 278l-44 20l3 27h158l5 -34l-52 -20l-3 -371l15 -25l100 87zM404 644l-4 -54l-56 -24l-30 60l28 31zM229 639l4 -48
l-68 -23l-29 53l29 44z" />
    <glyph glyph-name="yacute" unicode="&#xfd;" horiz-adv-x="509" 
d="M0 0zM454 464l-212 -611l-115 -49l-125 65l27 66l105 -66l55 15l29 82l26 88l-52 -28l-135 418l-45 4l-12 42l131 12l45 -207l76 -219l124 392l-46 14l1 26l172 1l6 -25zM217 541l43 139l47 -3l44 3l-49 -76l-42 -63h-43z" />
    <glyph glyph-name="ydieresis" unicode="&#xff;" horiz-adv-x="509" 
d="M0 0zM454 464l-212 -611l-115 -49l-125 65l27 66l105 -66l55 15l29 82l26 88l-52 -28l-135 418l-45 4l-12 42l131 12l45 -207l76 -219l124 392l-46 14l1 26l172 1l6 -25zM378 644l-4 -54l-56 -24l-30 60l28 31zM203 639l4 -48l-68 -23l-29 53l29 44z" />
    <glyph glyph-name="Thorn" unicode="&#xde;" horiz-adv-x="645" 
d="M190 206l248 -23l110 141l-57 202l-202 33l-112 -27zM183 122v-89l64 -20l4 -38l-217 3l-4 27l76 28l-1 667l-49 11l-3 31l168 4l-1 -31l-48 -15l2 -88l106 8l288 -44l47 -306l-156 -156z" />
    <glyph glyph-name="thorn" unicode="&#xfe;" horiz-adv-x="564" 
d="M443 250l-55 161l-112 15l-104 -37l6 -259l104 -40l133 59zM28 675l4 30l202 1l4 -39l-67 -23l-1 -189l101 37l171 -2l92 -258l-104 -181l-161 -31l-101 46l5 -225l67 -23l-4 -39l-202 1l-4 30l62 25l-6 625l4 190z" />
    <glyph glyph-name="Sacute" unicode="&#x15a;" horiz-adv-x="578" 
d="M25 0zM409 704l63 -43l28 39l53 -42l-94 -113l-38 35l-48 62l-150 -24l-79 -80l61 -113l259 -68l61 -75l-18 -195l-207 -96l-183 50l-31 -50l-61 14l61 134l51 -15l158 -51l156 62l-30 155l-307 63l-57 209l106 124zM262 740l43 139l47 -3l44 3l-49 -76l-42 -63h-43z" />
    <glyph glyph-name="Tcaron" unicode="&#x164;" horiz-adv-x="575" 
d="M21 0zM556 699l-15 -110l-55 15v39h-166l23 -598l49 -15v-39l-205 7v25l70 22l-8 598h-55l-101 -15v-39l-64 -8l-8 118h149h386zM287 742l-170 138l50 7l40 8l77 -88l63 73l47 -3l43 -8l-149 -128h-1v1z" />
    <glyph glyph-name="Zacute" unicode="&#x179;" horiz-adv-x="560" 
d="M30 2zM66 715l53 -18l395 7l8 -66l-383 -544l22 -19l262 18l8 54l82 6l17 -140l-487 -11l-13 73l383 548l-271 3l-17 -48l-75 16zM263 750l43 139l47 -3l44 3l-49 -76l-42 -63h-43z" />
    <glyph glyph-name="sacute" unicode="&#x15b;" horiz-adv-x="473" 
d="M30 0zM248 522l112 -46l40 39l43 -30l-76 -102l-36 34l-164 39l-53 -62l69 -97l201 -50l28 -170l-132 -82l-176 40l-24 -41l-50 9l34 105l204 -48l63 47l-24 84l-214 73l-58 119l48 111zM199 561l43 139l47 -3l44 3l-49 -76l-42 -63h-43z" />
    <glyph glyph-name="tcaron" unicode="&#x165;" horiz-adv-x="490" 
d="M18 0zM354 31l-164 -31l-78 77v103v258l-48 -8l-39 -9l-7 48l71 23h14v94l-14 32h85l8 -87v-32l140 17v-78l-140 7v-329l47 -53l125 23v-55zM429 623l51 -43l-28 -75l-60 -74l-27 7l57 82l-40 7l-10 71z" />
    <glyph glyph-name="zacute" unicode="&#x17a;" horiz-adv-x="482" 
d="M40 3zM122 503l301 11l3 -78l-291 -375l213 21l11 60l82 6l1 -145l-402 7l8 64l283 366l-202 12l-19 -42l-37 7l2 97zM214 551l43 139l47 -3l44 3l-49 -76l-42 -63h-43z" />
    <glyph glyph-name="Lslash" unicode="&#x141;" horiz-adv-x="479" 
d="M453 7l-396 -30l-2 21l55 34l-7 263l-102 -50l2 83l97 50l-7 272l-63 21l4 27l219 1l5 -36l-59 -18l-1 -216l114 59v-89l-114 -57l-1 -299l183 39l-13 67l91 11l1 -63z" />
    <glyph glyph-name="lslash" unicode="&#x142;" horiz-adv-x="294" 
d="M264 1l-211 4l-3 26l72 21v241l-73 -48l-4 73l77 46v288l-53 -11l4 66l127 3l-4 -302l84 50v-59l-85 -57l-4 -289l68 -14z" />
    <glyph glyph-name="ncaron" unicode="&#x148;" horiz-adv-x="638" 
d="M44 0zM651 71l-167 -84l-60 31v304l-31 91l-76 8l-115 -167v-205l54 -16l-8 -38l-182 8l-8 22l53 24v364l-67 38l52 69l92 -99l14 -92l100 160l129 -7l76 -137l-16 -267l16 -14l91 68zM309 533l-170 138l50 7l40 8l77 -88l63 73l47 -3l43 -8l-149 -128h-1v1z" />
    <glyph glyph-name="ohungarumlaut" unicode="&#x151;" horiz-adv-x="499" 
d="M30 0zM187 459l-88 -114l19 -197l111 -105l75 1l94 184l-42 173l-67 50zM323 526l106 -98l40 -229l-141 -221l-140 -6l-147 177l-11 228l125 149h168zM154 571l59 129l37 -3l44 2l-63 -75l-44 -53h-33zM264 569l59 130l37 -4l44 3l-63 -76l-44 -53h-33z" />
    <glyph glyph-name="rcaron" unicode="&#x159;" horiz-adv-x="415" 
d="M47 3zM395 412l-61 -52l-53 77l-81 -27l-24 -53l4 -300l59 -19l-6 -35h-177l-3 27l47 19l-1 400l-49 28l43 55l73 -47l6 -34l51 20l101 25zM217 543l-170 138l50 7l40 8l77 -88l63 73l47 -3l43 -8l-149 -128h-1v1z" />
    <glyph glyph-name="uhungarumlaut" unicode="&#x171;" horiz-adv-x="600" 
d="M30 0zM620 54l-147 -70l-56 15l-18 58l-13 69l-177 -141l-104 36l-30 118l-3 308l-42 18l3 24l179 4l-5 -36l-52 -21v-282l37 -89l65 36l121 67l16 278l-44 20l3 27h158l5 -34l-52 -20l-3 -371l15 -25l100 87zM175 551l59 129l37 -3l44 2l-63 -75l-44 -53h-33zM285 549
l59 130l37 -4l44 3l-63 -76l-44 -53h-33z" />
    <glyph glyph-name="nacute" unicode="&#x144;" horiz-adv-x="638" 
d="M44 0zM651 71l-167 -84l-60 31v304l-31 91l-76 8l-115 -167v-205l54 -16l-8 -38l-182 8l-8 22l53 24v364l-67 38l52 69l92 -99l14 -92l100 160l129 -7l76 -137l-16 -267l16 -14l91 68zM262 541l43 139l47 -3l44 3l-49 -76l-42 -63h-43z" />
    <glyph glyph-name="dcroat" unicode="&#x111;" horiz-adv-x="550" 
d="M390 5l-41 91l-66 -89l-152 9l-101 202l60 234l145 58l134 -55l2 117h-131l-5 79l138 -3l1 57l63 75l56 -46l-42 -35l-2 -52l106 -1l-6 -78l-102 3l-13 -509l96 18l20 -62zM358 399l-117 44l-107 -35l-26 -196l89 -147l57 13l99 104z" />
    <glyph glyph-name="dcaron" unicode="&#x10f;" horiz-adv-x="650" 
d="M30 5zM358 399l-117 44l-107 -35l-26 -196l89 -147l57 13l99 104zM390 5l-41 91l-66 -89l-152 9l-101 202l60 234l145 58l134 -55l5 250l63 75l56 -46l-42 -35l-17 -637l96 18l20 -62zM589 712l51 -43l-28 -75l-60 -74l-27 7l57 82l-40 7l-10 71z" />
    <glyph glyph-name="ecaron" unicode="&#x11b;" horiz-adv-x="505" 
d="M50 0zM136 268l234 37l-28 131l-67 25l-131 -44l-9 -153zM339 503l80 -70l29 -172l-313 -50l54 -159l118 3l140 42l8 -79l-282 -40l-123 182l14 257l134 97zM262 543l-170 138l50 7l40 8l77 -88l63 73l47 -3l43 -8l-149 -128h-1v1z" />
    <glyph glyph-name="ccaron" unicode="&#x10d;" horiz-adv-x="430" 
d="M52 0zM410 4l-155 -8l-195 64l-8 247l85 171l141 48l108 -62l-54 -141l-31 16l31 93l-39 32v0l-117 -55l-54 -124l15 -179l118 -46l131 22zM235 543l-170 138l50 7l40 8l77 -88l63 73l47 -3l43 -8l-149 -128h-1v1z" />
    <glyph glyph-name="cacute" unicode="&#x107;" horiz-adv-x="430" 
d="M52 0zM410 4l-155 -8l-195 64l-8 247l85 171l141 48l108 -62l-54 -141l-31 16l31 93l-39 32v0l-117 -55l-54 -124l15 -179l118 -46l131 22zM188 561l43 139l47 -3l44 3l-49 -76l-42 -63h-43z" />
    <glyph glyph-name="lacute" unicode="&#x13a;" horiz-adv-x="294" 
d="M50 1zM264 1l-211 4l-3 26l72 21v600l-53 -11l4 66l127 3l-9 -657l68 -14zM110 750l43 139l47 -3l44 3l-49 -76l-42 -63h-43z" />
    <glyph glyph-name="abreve" unicode="&#x103;" horiz-adv-x="519" 
d="M50 0zM247 259l-112 -75l-3 -112l40 -21q20 1 37 2q14 1 25.5 2.5t11.5 3.5l4 6t10.5 15.5t14.5 21t17 23.5q20 28 47 64l-7 73zM183 529l226 -53l4 -411l85 -6l1 -46l-124 -12l-42 88l-52 -82l-169 -32l-62 75l4 152l171 111l106 14l8 109l-167 22l-49 -85l-55 58l10 25
zM238 608l25 -19l102 121l66 -61l-160 -90h-33l-160 107l50 35z" />
    <glyph glyph-name="racute" unicode="&#x155;" horiz-adv-x="415" 
d="M50 3zM395 412l-61 -52l-53 77l-81 -27l-24 -53l4 -300l59 -19l-6 -35h-177l-3 27l47 19l-1 400l-49 28l43 55l73 -47l6 -34l51 20l101 25zM180 551l43 139l47 -3l44 3l-49 -76l-42 -63h-43z" />
    <glyph glyph-name="Uhungarumlaut" unicode="&#x170;" horiz-adv-x="696" 
d="M30 0zM662 673l-55 -19l-19 -535l-101 -119l-256 -10l-117 126l-23 498l-5 42l-56 15l1 29l211 2l3 -29l-66 -20l3 -481l63 -101l207 7l61 87l-8 495l-47 15l1 27l207 7zM263 760l59 129l37 -3l44 2l-63 -75l-44 -53h-33zM373 758l59 130l37 -4l44 3l-63 -76l-44 -53h-33
z" />
    <glyph glyph-name="Rcaron" unicode="&#x158;" horiz-adv-x="713" 
d="M30 3zM510 478l-36 129l-147 26l-103 -16l17 -222l180 -12zM713 123l-124 -111l-78 13l-53 235l-94 69l-130 -19l3 -248l63 -21l8 -38l-215 3l-2 27l59 23l-12 529l-36 39l-72 8l3 54l82 2l42 -17l25 22l272 -4l126 -116l-18 -167l-87 -66l74 -71l7 -180l22 -8l72 108z
M336 732l-170 138l50 7l40 8l77 -88l63 73l47 -3l43 -8l-149 -128h-1v1z" />
    <glyph glyph-name="Ncaron" unicode="&#x147;" horiz-adv-x="733" 
d="M30 0zM676 35l5 -36l-210 4l-3 25l50 20l-337 503l5 -502l51 -17l4 -37l-209 4l-2 25l82 32l-7 594l-65 18l1 29l217 2l4 -29l-57 -17l337 -515l10 516l-71 18l1 29l216 1l5 -27l-67 -21l-33 -596zM366 732l-170 138l50 7l40 8l77 -88l63 73l47 -3l43 -8l-149 -128h-1v1z
" />
    <glyph glyph-name="Nacute" unicode="&#x143;" horiz-adv-x="733" 
d="M30 0zM676 35l5 -36l-210 4l-3 25l50 20l-337 503l5 -502l51 -17l4 -37l-209 4l-2 25l82 32l-7 594l-65 18l1 29l217 2l4 -29l-57 -17l337 -515l10 516l-71 18l1 29l216 1l5 -27l-67 -21l-33 -596zM339 740l43 139l47 -3l44 3l-49 -76l-42 -63h-43z" />
    <glyph glyph-name="Dcroat" unicode="&#x110;" horiz-adv-x="656" 
d="M626 473l-32 -321l-160 -160l-254 18l-150 -3l3 31l108 25l2 272h-76l-4 59l80 -2l2 245l-70 27l4 36l99 5l248 -19zM547 456l-132 148l-111 27l-74 -20l-3 -220l85 -1l-4 -58l-81 2l-3 -241l191 -19l121 139z" />
    <glyph glyph-name="Dcaron" unicode="&#x10e;" horiz-adv-x="656" 
d="M30 0zM547 456l-132 148l-111 27l-74 -20l-6 -518l191 -19l121 139zM626 473l-32 -321l-160 -160l-254 18l-150 -3l3 31l108 25l4 574l-70 27l4 36l99 5l248 -19zM318 732l-170 138l50 7l40 8l77 -88l63 73l47 -3l43 -8l-149 -128h-1v1z" />
    <glyph glyph-name="Ohungarumlaut" unicode="&#x150;" horiz-adv-x="629" 
d="M50 0zM170 614l-55 -206l50 -238l127 -109l84 -7l132 231l-50 238l-102 97zM409 696l134 -146l36 -285l-151 -272l-178 -6l-162 162l-38 252l53 239l107 74zM199 750l59 129l37 -3l44 2l-63 -75l-44 -53h-33zM309 748l59 130l37 -4l44 3l-63 -76l-44 -53h-33z" />
    <glyph glyph-name="Ecaron" unicode="&#x11a;" horiz-adv-x="626" 
d="M20 0zM576 -12l-520 7l-5 34l100 18l-34 596l-89 31l-8 35l538 -13l1 -129l-51 2l-15 63l-271 1l-19 -25l5 -215l308 -21l-9 -44l-296 -6l-3 -83l51 -170l253 -10l12 81l51 6zM323 742l-170 138l50 7l40 8l77 -88l63 73l47 -3l43 -8l-149 -128h-1v1z" />
    <glyph glyph-name="Ccaron" unicode="&#x10c;" horiz-adv-x="500" 
d="M45 0zM425 70l32 -76l-241 -16l-155 101l-16 450l117 169l194 39l124 -84l-124 -164l-30 23l61 116l-54 48l-132 -31l-54 -140v-388l92 -55zM266 752l-170 138l50 7l40 8l77 -88l63 73l47 -3l43 -8l-149 -128h-1v1z" />
    <glyph glyph-name="Cacute" unicode="&#x106;" horiz-adv-x="500" 
d="M45 0zM425 70l32 -76l-241 -16l-155 101l-16 450l117 169l194 39l124 -84l-124 -164l-30 23l61 116l-54 48l-132 -31l-54 -140v-388l92 -55zM219 760l43 139l47 -3l44 3l-49 -76l-42 -63h-43z" />
    <glyph glyph-name="Lacute" unicode="&#x139;" horiz-adv-x="479" 
d="M30 0zM453 7l-396 -30l-2 21l55 34l-17 618l-63 21l4 27l219 1l5 -36l-59 -18l-2 -602l183 39l-13 67l91 11l1 -63zM122 740l43 139l47 -3l44 3l-49 -76l-42 -63h-43z" />
    <glyph glyph-name="Abreve" unicode="&#x102;" horiz-adv-x="616" 
d="M3 0zM615 0h-194l-23 24l78 22l-31 141l-24 46l-248 -31l-16 -54l-15 -102l62 -22v-32l-201 15v32l61 15l186 652l109 -16l195 -636l54 -15zM398 302l-85 311l-15 -8l-102 -325v-17zM291 797l25 -19l102 121l66 -61l-160 -90h-33l-160 107l50 35z" />
    <glyph glyph-name="Racute" unicode="&#x154;" horiz-adv-x="713" 
d="M30 3zM510 478l-36 129l-147 26l-103 -16l17 -222l180 -12zM713 123l-124 -111l-78 13l-53 235l-94 69l-130 -19l3 -248l63 -21l8 -38l-215 3l-2 27l59 23l-12 529l-36 39l-72 8l3 54l82 2l42 -17l25 22l272 -4l126 -116l-18 -167l-87 -66l74 -71l7 -180l22 -8l72 108z
M299 740l43 139l47 -3l44 3l-49 -76l-42 -63h-43z" />
    <glyph glyph-name="Lcaron" unicode="&#x13d;" horiz-adv-x="479" 
d="M30 0zM453 7l-396 -30l-2 21l55 34l-17 618l-63 21l4 27l219 1l5 -36l-59 -18l-2 -602l183 39l-13 67l91 11l1 -63zM359 712l51 -43l-28 -75l-60 -74l-27 7l57 82l-40 7l-10 71z" />
    <glyph glyph-name="lcaron" unicode="&#x13e;" horiz-adv-x="370" 
d="M50 1zM264 1l-211 4l-3 26l72 21v600l-53 -11l4 66l127 3l-9 -657l68 -14zM319 712l51 -43l-28 -75l-60 -74l-27 7l57 82l-40 7l-10 71z" />
    <glyph glyph-name="Amacron" unicode="&#x100;" horiz-adv-x="616" 
d="M3 0zM615 0h-194l-23 24l78 22l-31 141l-24 46l-248 -31l-16 -54l-15 -102l62 -22v-32l-201 15v32l61 15l186 652l109 -16l195 -636l54 -15zM398 302l-85 311l-15 -8l-102 -325v-17zM307 822l125 -2l-4 -58l-98 3h-143l-4 59z" />
    <glyph glyph-name="Emacron" unicode="&#x112;" horiz-adv-x="626" 
d="M20 0zM576 -12l-520 7l-5 34l100 18l-34 596l-89 31l-8 35l538 -13l1 -129l-51 2l-15 63l-271 1l-19 -25l5 -215l308 -21l-9 -44l-296 -6l-3 -83l51 -170l253 -10l12 81l51 6zM312 822l125 -2l-4 -58l-98 3h-143l-4 59z" />
    <glyph glyph-name="Imacron" unicode="&#x12a;" horiz-adv-x="282" 
d="M16 0zM241 20l2 -30l-191 15l-1 29l69 22l-17 599l-73 25l2 27l214 2l6 -36l-67 -20l-3 -611zM140 832l125 -2l-4 -58l-98 3h-143l-4 59z" />
    <glyph glyph-name="Omacron" unicode="&#x14c;" horiz-adv-x="629" 
d="M50 0zM170 614l-55 -206l50 -238l127 -109l84 -7l132 231l-50 238l-102 97zM409 696l134 -146l36 -285l-151 -272l-178 -6l-162 162l-38 252l53 239l107 74zM314 832l125 -2l-4 -58l-98 3h-143l-4 59z" />
    <glyph glyph-name="Umacron" unicode="&#x16a;" horiz-adv-x="696" 
d="M30 0zM662 673l-55 -19l-19 -535l-101 -119l-256 -10l-117 126l-23 498l-5 42l-56 15l1 29l211 2l3 -29l-66 -20l3 -481l63 -101l207 7l61 87l-8 495l-47 15l1 27l207 7zM347 832l125 -2l-4 -58l-98 3h-143l-4 59z" />
    <glyph glyph-name="amacron" unicode="&#x101;" horiz-adv-x="519" 
d="M50 0zM247 259l-112 -75l-3 -112l40 -21q20 1 37 2q14 1 25.5 2.5t11.5 3.5l4 6t10.5 15.5t14.5 21t17 23.5q20 28 47 64l-7 73zM183 529l226 -53l4 -411l85 -6l1 -46l-124 -12l-42 88l-52 -82l-169 -32l-62 75l4 152l171 111l106 14l8 109l-167 22l-49 -85l-55 58l10 25
zM254 643l125 -2l-4 -58l-98 3h-143l-4 59z" />
    <glyph glyph-name="emacron" unicode="&#x113;" horiz-adv-x="505" 
d="M50 0zM136 268l234 37l-28 131l-67 25l-131 -44l-9 -153zM339 503l80 -70l29 -172l-313 -50l54 -159l118 3l140 42l8 -79l-282 -40l-123 182l14 257l134 97zM252 643l125 -2l-4 -58l-98 3h-143l-4 59z" />
    <glyph glyph-name="imacron" unicode="&#x12b;" 
d="M258 -13l-200 -2l-5 29l53 21l4 423l-73 25l-7 25l208 12l10 -20l-61 -34l-4 -430l71 -21zM133 652l125 -2l-4 -58l-98 3h-143l-4 59z" />
    <glyph glyph-name="omacron" unicode="&#x14d;" horiz-adv-x="499" 
d="M30 0zM187 459l-88 -114l19 -197l111 -105l75 1l94 184l-42 173l-67 50zM323 526l106 -98l40 -229l-141 -221l-140 -6l-147 177l-11 228l125 149h168zM249 653l125 -2l-4 -58l-98 3h-143l-4 59z" />
    <glyph glyph-name="umacron" unicode="&#x16b;" horiz-adv-x="600" 
d="M30 0zM620 54l-147 -70l-56 15l-18 58l-13 69l-177 -141l-104 36l-30 118l-3 308l-42 18l3 24l179 4l-5 -36l-52 -21v-282l37 -89l65 36l121 67l16 278l-44 20l3 27h158l5 -34l-52 -20l-3 -371l15 -25l100 87zM279 643l125 -2l-4 -58l-98 3h-143l-4 59z" />
    <glyph glyph-name="dotlessi" unicode="&#x131;" 
d="M258 -13l-200 -2l-5 29l53 21l4 423l-73 25l-7 25l208 12l10 -20l-61 -34l-4 -430l71 -21z" />
    <glyph glyph-name="scedilla" unicode="&#x15f;" horiz-adv-x="473" 
d="M30 0zM248 522l112 -46l40 39l43 -30l-76 -102l-36 34l-164 39l-53 -62l69 -97l201 -50l28 -170l-132 -82l-176 40l-24 -41l-50 9l34 105l204 -48l63 47l-24 84l-214 73l-58 119l48 111zM261 20l-24 -60l66 -31l-31 -90l-75 -38l-87 18l23 53l41 -27l50 30l-1 44l-69 24
l67 85z" />
    <glyph glyph-name="Scedilla" unicode="&#x15e;" horiz-adv-x="578" 
d="M25 0zM409 704l63 -43l28 39l53 -42l-94 -113l-38 35l-48 62l-150 -24l-79 -80l61 -113l259 -68l61 -75l-18 -195l-207 -96l-183 50l-31 -50l-61 14l61 134l51 -15l158 -51l156 62l-30 155l-307 63l-57 209l106 124zM313 20l-24 -60l66 -31l-31 -90l-75 -38l-87 18l23 53
l41 -27l50 30l-1 44l-69 24l67 85z" />
    <glyph glyph-name="tilde" unicode="&#x2dc;" 
d="M0 604l46 87l74 13l63 -68l24 9l10 51l61 2l-15 -64l-41 -45l-59 -9l-66 72l-21 -9l-7 -48z" />
    <glyph glyph-name="Ntilde" unicode="&#xd1;" horiz-adv-x="733" 
d="M30 0zM676 35l5 -36l-210 4l-3 25l50 20l-337 503l5 -502l51 -17l4 -37l-209 4l-2 25l82 32l-7 594l-65 18l1 29l217 2l4 -29l-57 -17l337 -515l10 516l-71 18l1 29l216 1l5 -27l-67 -21l-33 -596zM236 764l46 87l74 13l63 -68l24 9l10 51l61 2l-15 -64l-41 -45l-59 -9
l-66 72l-21 -9l-7 -48z" />
    <glyph glyph-name="Atilde" unicode="&#xc3;" horiz-adv-x="616" 
d="M3 0zM615 0h-194l-23 24l78 22l-31 141l-24 46l-248 -31l-16 -54l-15 -102l62 -22v-32l-201 15v32l61 15l186 652l109 -16l195 -636l54 -15zM398 302l-85 311l-15 -8l-102 -325v-17zM158 764l46 87l74 13l63 -68l24 9l10 51l61 2l-15 -64l-41 -45l-59 -9l-66 72l-21 -9
l-7 -48z" />
    <glyph glyph-name="Otilde" unicode="&#xd5;" horiz-adv-x="629" 
d="M50 0zM170 614l-55 -206l50 -238l127 -109l84 -7l132 231l-50 238l-102 97zM409 696l134 -146l36 -285l-151 -272l-178 -6l-162 162l-38 252l53 239l107 74zM174 774l46 87l74 13l63 -68l24 9l10 51l61 2l-15 -64l-41 -45l-59 -9l-66 72l-21 -9l-7 -48z" />
    <glyph glyph-name="Gbreve" unicode="&#x11e;" horiz-adv-x="589" 
d="M30 0zM332 255l163 -20l-3 -233l-342 -3l-120 157l121 481l165 64l135 1l88 -50l-108 -189l-46 9l55 136l-76 17l-163 -62l-75 -417l77 -63l162 -23l51 53l-4 80l-69 15zM308 797l25 -19l102 121l66 -61l-160 -90h-33l-160 107l50 35z" />
    <glyph glyph-name="atilde" unicode="&#xe3;" horiz-adv-x="519" 
d="M50 0zM247 259l-112 -75l-3 -112l40 -21q20 1 37 2q14 1 25.5 2.5t11.5 3.5l4 6t10.5 15.5t14.5 21t17 23.5q20 28 47 64l-7 73zM183 529l226 -53l4 -411l85 -6l1 -46l-124 -12l-42 88l-52 -82l-169 -32l-62 75l4 152l171 111l106 14l8 109l-167 22l-49 -85l-55 58l10 25
zM115 585l46 87l74 13l63 -68l24 9l10 51l61 2l-15 -64l-41 -45l-59 -9l-66 72l-21 -9l-7 -48z" />
    <glyph glyph-name="gbreve" unicode="&#x11f;" horiz-adv-x="509" 
d="M40 0zM118 338l75 -103l144 -24l62 118l-37 92l-142 22l-69 -32zM144 187l-20 -112l208 -11l69 -7l46 -140l-354 -89l-53 125l70 -16l5 -55l253 86l-15 31l-280 33l-27 70l42 131l-37 45l3 112l100 103l165 3l19 -15l130 85l11 -47l-93 -72l23 -17l67 -83l-75 -191
l-220 3zM238 598l25 -19l102 121l66 -61l-160 -90h-33l-160 107l50 35z" />
    <glyph glyph-name="otilde" unicode="&#xf5;" horiz-adv-x="499" 
d="M30 0zM187 459l-88 -114l19 -197l111 -105l75 1l94 184l-42 173l-67 50zM323 526l106 -98l40 -229l-141 -221l-140 -6l-147 177l-11 228l125 149h168zM110 585l46 87l74 13l63 -68l24 9l10 51l61 2l-15 -64l-41 -45l-59 -9l-66 72l-21 -9l-7 -48z" />
    <glyph glyph-name="ntilde" unicode="&#xf1;" horiz-adv-x="638" 
d="M44 0zM651 71l-167 -84l-60 31v304l-31 91l-76 8l-115 -167v-205l54 -16l-8 -38l-182 8l-8 22l53 24v364l-67 38l52 69l92 -99l14 -92l100 160l129 -7l76 -137l-16 -267l16 -14l91 68zM180 565l46 87l74 13l63 -68l24 9l10 51l61 2l-15 -64l-41 -45l-59 -9l-66 72l-21 -9
l-7 -48z" />
    <glyph glyph-name="dotaccent" unicode="&#x2d9;" horiz-adv-x="110" 
d="M34 584l-34 68l41 39l64 -8l5 -67z" />
    <glyph glyph-name="Zdotaccent" unicode="&#x17b;" horiz-adv-x="560" 
d="M30 2zM66 715l53 -18l395 7l8 -66l-383 -544l22 -19l262 18l8 54l82 6l17 -140l-487 -11l-13 73l383 548l-271 3l-17 -48l-75 16zM269 744l-34 68l41 39l64 -8l5 -67z" />
    <glyph glyph-name="zdotaccent" unicode="&#x17c;" horiz-adv-x="482" 
d="M40 3zM122 503l301 11l3 -78l-291 -375l213 21l11 60l82 6l1 -145l-402 7l8 64l283 366l-202 12l-19 -42l-37 7l2 97zM230 555l-34 68l41 39l64 -8l5 -67z" />
    <glyph glyph-name="ogonek" unicode="&#x2db;" horiz-adv-x="205" 
d="M114 10h91v-10l-111 -50l-30 -40l-1 -35l51 -25l60 10v-50l-84 -9l-75 38l-15 71l54 70l60 20v10z" />
    <glyph glyph-name="Aogonek" unicode="&#x104;" horiz-adv-x="616" 
d="M3 0zM615 0h-194l-23 24l78 22l-31 141l-24 46l-248 -31l-16 -54l-15 -102l62 -22v-32l-201 15v32l61 15l186 652l109 -16l195 -636l54 -15zM398 302l-85 311l-15 -8l-102 -325v-17zM525 10h91v-10l-111 -50l-30 -40l-1 -35l51 -25l60 10v-50l-84 -9l-75 38l-15 71l54 70
l60 20v10z" />
    <glyph glyph-name="aogonek" unicode="&#x105;" horiz-adv-x="519" 
d="M408 4l-33 -3l-42 88l-52 -82l-169 -32l-62 75l4 152l171 111l106 14l8 109l-167 22l-49 -85l-55 58l10 25l105 73l226 -53l4 -411l85 -6l1 -39v-20l-111 -50l-30 -40l-1 -35l51 -25l60 10v-50l-84 -9l-75 38l-15 71l54 70l60 20v4zM247 259l-112 -75l-3 -112l40 -21
q20 1 37 2q14 1 25.5 2.5t11.5 3.5l4 6t10.5 15.5t14.5 21t17 23.5q20 28 47 64l-7 73z" />
    <glyph glyph-name="Eogonek" unicode="&#x118;" horiz-adv-x="626" 
d="M20 0zM576 -12l-520 7l-5 34l100 18l-34 596l-89 31l-8 35l538 -13l1 -129l-51 2l-15 63l-271 1l-19 -25l5 -215l308 -21l-9 -44l-296 -6l-3 -83l51 -170l253 -10l12 81l51 6zM365 10h91v-10l-111 -50l-30 -40l-1 -35l51 -25l60 10v-50l-84 -9l-75 38l-15 71l54 70l60 20
v10z" />
    <glyph glyph-name="eogonek" unicode="&#x119;" horiz-adv-x="505" 
d="M339 503l80 -70l29 -172l-313 -50l54 -159l118 3l140 42l8 -79l-76 -11l-105 -57l-30 -40l-1 -35l51 -25l60 10v-50l-84 -9l-75 38l-15 71l53 62l18 17l-78 -11l-123 182l14 257l134 97zM136 268l234 37l-28 131l-67 25l-131 -44l-9 -153z" />
    <glyph glyph-name="ring" unicode="&#x2da;" horiz-adv-x="175" 
d="M60 657l-9 -58l25 -29l40 9l18 53l-28 31zM133 702l42 -47l-8 -94l-92 -42l-66 47l-9 71l39 62z" />
    <glyph glyph-name="Aring" unicode="&#xc5;" horiz-adv-x="616" 
d="M353 842l42 -47l-8 -94l-27 -12l190 -639l59 -10l7 -39l-200 -3l-18 24l63 22l-30 134l-22 35l-242 -27l-10 -39l-18 -105l59 -23l4 -31l-200 17l-2 31l60 18l188 638l-19 14l-9 71l39 62zM388 294l-74 302l-18 -7l-93 -308l3 -22zM280 797l-9 -58l25 -29l40 9l18 53
l-28 31z" />
    <glyph glyph-name="aring" unicode="&#xe5;" horiz-adv-x="519" 
d="M50 0zM247 259l-112 -75l-3 -112l40 -21q20 1 37 2q14 1 25.5 2.5t11.5 3.5l4 6t10.5 15.5t14.5 21t17 23.5q20 28 47 64l-7 73zM183 529l226 -53l4 -411l85 -6l1 -46l-124 -12l-42 88l-52 -82l-169 -32l-62 75l4 152l171 111l106 14l8 109l-167 22l-49 -85l-55 58l10 25
zM237 677l-9 -58l25 -29l40 9l18 53l-28 31zM310 722l42 -47l-8 -94l-92 -42l-66 47l-9 71l39 62z" />
    <glyph glyph-name="Uring" unicode="&#x16e;" horiz-adv-x="696" 
d="M30 0zM662 673l-55 -19l-19 -535l-101 -119l-256 -10l-117 126l-23 498l-5 42l-56 15l1 29l211 2l3 -29l-66 -20l3 -481l63 -101l207 7l61 87l-8 495l-47 15l1 27l207 7zM320 827l-9 -58l25 -29l40 9l18 53l-28 31zM393 872l42 -47l-8 -94l-92 -42l-66 47l-9 71l39 62z
" />
    <glyph glyph-name="uring" unicode="&#x16f;" horiz-adv-x="600" 
d="M30 0zM620 54l-147 -70l-56 15l-18 58l-13 69l-177 -141l-104 36l-30 118l-3 308l-42 18l3 24l179 4l-5 -36l-52 -21v-282l37 -89l65 36l121 67l16 278l-44 20l3 27h158l5 -34l-52 -20l-3 -371l15 -25l100 87zM262 638l-9 -58l25 -29l40 9l18 53l-28 31zM335 683l42 -47
l-8 -94l-92 -42l-66 47l-9 71l39 62z" />
    <glyph glyph-name="commaaccent" horiz-adv-x="115" 
d="M64 90l51 -43l-28 -75l-60 -74l-27 7l57 82l-40 7l-10 71z" />
    <glyph glyph-name="scommaaccent" unicode="&#x219;" horiz-adv-x="473" 
d="M30 0zM248 522l112 -46l40 39l43 -30l-76 -102l-36 34l-164 39l-53 -62l69 -97l201 -50l28 -170l-132 -82l-176 40l-24 -41l-50 9l34 105l204 -48l63 47l-24 84l-214 73l-58 119l48 111zM243 -19l51 -43l-28 -75l-60 -74l-27 7l57 82l-40 7l-10 71z" />
    <glyph glyph-name="Scommaaccent" unicode="&#x218;" horiz-adv-x="578" 
d="M25 0zM409 704l63 -43l28 39l53 -42l-94 -113l-38 35l-48 62l-150 -24l-79 -80l61 -113l259 -68l61 -75l-18 -195l-207 -96l-183 50l-31 -50l-61 14l61 134l51 -15l158 -51l156 62l-30 155l-307 63l-57 209l106 124zM303 -29l51 -43l-28 -75l-60 -74l-27 7l57 82l-40 7
l-10 71z" />
    <glyph glyph-name="Tcommaaccent" unicode="&#x162;" horiz-adv-x="575" 
d="M555 700l-20 -120l-50 10l-5 36h-140l17 -574l47 -16l7 -39l-220 3l-3 28l67 25l-8 575l-49 1l-102 -11l-4 -41l-58 -6l-14 129l148 -6zM303 -30l51 -43l-28 -75l-60 -74l-27 7l57 82l-40 7l-10 71z" />
    <glyph glyph-name="tcommaaccent" unicode="&#x163;" horiz-adv-x="375" 
d="M18 0zM354 31l-164 -31l-78 77v103v258l-48 -8l-39 -9l-7 48l71 23h14v94l-14 32h85l8 -87v-32l140 17v-78l-140 7v-329l47 -53l125 23v-55zM214 -19l51 -43l-28 -75l-60 -74l-27 7l57 82l-40 7l-10 71z" />
    <glyph glyph-name="rcommaaccent" unicode="&#x157;" horiz-adv-x="415" 
d="M50 0zM395 412l-61 -52l-53 77l-81 -27l-24 -53l4 -300l59 -19l-6 -35h-177l-3 27l47 19l-1 400l-49 28l43 55l73 -47l6 -34l51 20l101 25zM151 -29l51 -43l-28 -75l-60 -74l-27 7l57 82l-40 7l-10 71z" />
    <glyph glyph-name="Iogonek" unicode="&#x12e;" horiz-adv-x="282" 
d="M30 0zM241 20l2 -30l-191 15l-1 29l69 22l-17 599l-73 25l2 27l214 2l6 -36l-67 -20l-3 -611zM151 10h91v-10l-111 -50l-30 -40l-1 -35l51 -25l60 10v-50l-84 -9l-75 38l-15 71l54 70l60 20v10z" />
    <glyph glyph-name="Edotaccent" unicode="&#x116;" horiz-adv-x="626" 
d="M20 0zM576 -12l-520 7l-5 34l100 18l-34 596l-89 31l-8 35l538 -13l1 -129l-51 2l-15 63l-271 1l-19 -25l5 -215l308 -21l-9 -44l-296 -6l-3 -83l51 -170l253 -10l12 81l51 6zM292 754l-34 68l41 39l64 -8l5 -67z" />
    <glyph glyph-name="Gcommaaccent" unicode="&#x122;" horiz-adv-x="589" 
d="M30 0zM332 255l163 -20l-3 -233l-342 -3l-120 157l121 481l165 64l135 1l88 -50l-108 -189l-46 9l55 136l-76 17l-163 -62l-75 -417l77 -63l162 -23l51 53l-4 80l-69 15zM301 -19l51 -43l-28 -75l-60 -74l-27 7l57 82l-40 7l-10 71z" />
    <glyph glyph-name="Kcommaaccent" unicode="&#x136;" horiz-adv-x="633" 
d="M30 0zM633 49l-61 -80l-131 78l-72 224l-84 66l-86 -27l-3 -261l68 -14l6 -39l-220 4l-3 27l67 20v595l-84 30l5 29h223l5 -37l-61 -17l2 -1l-5 -269l101 28l67 51l59 221l121 24l16 -60l-71 -14l-91 -225l-37 -28l62 -32l76 -234zM353 1l51 -43l-28 -75l-60 -74l-27 7
l57 82l-40 7l-10 71z" />
    <glyph glyph-name="Lcommaaccent" unicode="&#x13b;" horiz-adv-x="479" 
d="M30 0zM453 7l-396 -30l-2 21l55 34l-17 618l-63 21l4 27l219 1l5 -36l-59 -18l-2 -602l183 39l-13 67l91 11l1 -63zM276 -29l51 -43l-28 -75l-60 -74l-27 7l57 82l-40 7l-10 71z" />
    <glyph glyph-name="Ncommaaccent" unicode="&#x145;" horiz-adv-x="733" 
d="M30 0zM676 35l5 -36l-210 4l-3 25l50 20l-337 503l5 -502l51 -17l4 -37l-209 4l-2 25l82 32l-7 594l-65 18l1 29l217 2l4 -29l-57 -17l337 -515l10 516l-71 18l1 29l216 1l5 -27l-67 -21l-33 -596zM373 21l51 -43l-28 -75l-60 -74l-27 7l57 82l-40 7l-10 71z" />
    <glyph glyph-name="Uogonek" unicode="&#x172;" horiz-adv-x="696" 
d="M30 0zM662 673l-55 -19l-19 -535l-101 -119l-256 -10l-117 126l-23 498l-5 42l-56 15l1 29l211 2l3 -29l-66 -20l3 -481l63 -101l207 7l61 87l-8 495l-47 15l1 27l207 7zM375 10h91v-10l-111 -50l-30 -40l-1 -35l51 -25l60 10v-50l-84 -9l-75 38l-15 71l54 70l60 20v10z
" />
    <glyph glyph-name="iogonek" unicode="&#x12f;" 
d="M30 0zM258 -13l-200 -2l-5 29l53 21l4 423l-73 25l-7 25l208 12l10 -20l-61 -34l-4 -430l71 -21zM121 584l-34 68l41 39l64 -8l5 -67zM155 10h91v-10l-111 -50l-30 -40l-1 -35l51 -25l60 10v-50l-84 -9l-75 38l-15 71l54 70l60 20v10z" />
    <glyph glyph-name="edotaccent" unicode="&#x117;" horiz-adv-x="505" 
d="M50 0zM136 268l234 37l-28 131l-67 25l-131 -44l-9 -153zM339 503l80 -70l29 -172l-313 -50l54 -159l118 3l140 42l8 -79l-282 -40l-123 182l14 257l134 97zM241 555l-34 68l41 39l64 -8l5 -67z" />
    <glyph glyph-name="gcommaaccent" unicode="&#x123;" horiz-adv-x="509" 
d="M40 0zM118 338l75 -103l144 -24l62 118l-37 92l-142 22l-69 -32zM144 187l-20 -112l208 -11l69 -7l46 -140l-354 -89l-53 125l70 -16l5 -55l253 86l-15 31l-280 33l-27 70l42 131l-37 45l3 112l100 103l165 3l19 -15l130 85l11 -47l-93 -72l23 -17l67 -83l-75 -191
l-220 3zM253.984 525.968l-50.9971 42.9971l27.999 74.9961l59.9961 73.9951l26.998 -6.99902l-56.9961 -81.9951l39.9971 -7l10 -70.9951z" />
    <glyph glyph-name="kcommaaccent" unicode="&#x137;" horiz-adv-x="506" 
d="M50 0zM506 36l-41 -65l-84 52l-139 222l-44 -22v-182l76 -22l6 -28l-199 -5l-4 30l48 20l-20 626l-55 15l2 27l215 5l-3 -39l-68 -15l2 -381l40 15l81 107l68 125l58 -18l-76 -143l-70 -94l142 -189zM309 -9l51 -43l-28 -75l-60 -74l-27 7l57 82l-40 7l-10 71z" />
    <glyph glyph-name="lcommaaccent" unicode="&#x13c;" horiz-adv-x="294" 
d="M50 0zM264 1l-211 4l-3 26l72 21v600l-53 -11l4 66l127 3l-9 -657l68 -14zM163 -19l51 -43l-28 -75l-60 -74l-27 7l57 82l-40 7l-10 71z" />
    <glyph glyph-name="ncommaaccent" unicode="&#x146;" horiz-adv-x="638" 
d="M44 0zM651 71l-167 -84l-60 31v304l-31 91l-76 8l-115 -167v-205l54 -16l-8 -38l-182 8l-8 22l53 24v364l-67 38l52 69l92 -99l14 -92l100 160l129 -7l76 -137l-16 -267l16 -14l91 68zM345 11l51 -43l-28 -75l-60 -74l-27 7l57 82l-40 7l-10 71z" />
    <glyph glyph-name="uogonek" unicode="&#x173;" horiz-adv-x="600" 
d="M30 0zM620 54l-147 -70l-56 15l-18 58l-13 69l-177 -141l-104 36l-30 118l-3 308l-42 18l3 24l179 4l-5 -36l-52 -21v-282l37 -89l65 36l121 67l16 278l-44 20l3 27h158l5 -34l-52 -20l-3 -371l15 -25l100 87zM526 70h91v-10l-111 -50l-30 -40l-1 -35l51 -25l60 10v-50
l-84 -9l-75 38l-15 71l54 70l60 20v10z" />
    <glyph glyph-name="Rcommaaccent" unicode="&#x156;" horiz-adv-x="713" 
d="M30 0zM510 478l-36 129l-147 26l-103 -16l17 -222l180 -12zM713 123l-124 -111l-78 13l-53 235l-94 69l-130 -19l3 -248l63 -21l8 -38l-215 3l-2 27l59 23l-12 529l-36 39l-72 8l3 54l82 2l42 -17l25 22l272 -4l126 -116l-18 -167l-87 -66l74 -71l7 -180l22 -8l72 108z
M393 31l51 -43l-28 -75l-60 -74l-27 7l57 82l-40 7l-10 71z" />
    <glyph glyph-name="Idotaccent" unicode="&#x130;" horiz-adv-x="282" 
d="M30 0zM241 20l2 -30l-191 15l-1 29l69 22l-17 599l-73 25l2 27l214 2l6 -36l-67 -20l-3 -611zM120 744l-34 68l41 39l64 -8l5 -67z" />
    <glyph glyph-name="Itilde" unicode="&#x128;" horiz-adv-x="282" 
d="M2 0zM241 20l2 -30l-191 15l-1 29l69 22l-17 599l-73 25l2 27l214 2l6 -36l-67 -20l-3 -611zM2 794l46 87l74 13l63 -68l24 9l10 51l61 2l-15 -64l-41 -45l-59 -9l-66 72l-21 -9l-7 -48z" />
    <glyph glyph-name="itilde" unicode="&#x129;" 
d="M0 0zM258 -13l-200 -2l-5 29l53 21l4 423l-73 25l-7 25l208 12l10 -20l-61 -34l-4 -430l71 -21zM-4 604l46 87l74 13l63 -68l24 9l10 51l61 2l-15 -64l-41 -45l-59 -9l-66 72l-21 -9l-7 -48z" />
    <glyph glyph-name="ij" unicode="&#x133;" horiz-adv-x="546" 
d="M30 0zM258 -13l-200 -2l-5 29l53 21l4 423l-73 25l-7 25l208 12l10 -20l-61 -34l-4 -430l71 -21zM121 584l-34 68l41 39l64 -8l5 -67zM460 458l-8 -450l-49 -111l-200 -76l-5 71l152 44l29 129l-5 396l-53 17l-7 26l204 11l8 -21zM414 579l-53 53l18 67h64l29 -42z" />
    <glyph glyph-name="Jcircumflex" unicode="&#x134;" horiz-adv-x="470" 
d="M0 0zM381 649l-11 -542l-44 -178l-146 -80l-139 67l-41 143l82 27l30 -154l59 -3l93 66l30 154l-6 504l-77 26l3 30l221 1l5 -37zM315 914l170 -146l-50 1l-40 2l-77 78l-63 -83l-47 3l-43 8l149 138h1v-1z" />
    <glyph glyph-name="jcircumflex" unicode="&#x135;" 
d="M192 458l-8 -450l-49 -111l-200 -76l-5 71l152 44l29 129l-5 396l-53 17l-7 26l204 11l8 -21zM139 704l170 -146l-50 1l-40 2l-77 78l-63 -83l-47 3l-43 8l149 138h1v-1z" />
    <glyph glyph-name="ldot" unicode="&#x140;" horiz-adv-x="394" 
d="M50 1zM264 1l-211 4l-3 26l72 21v600l-53 -11l4 66l127 3l-9 -657l68 -14zM294 407l77 -20l2 -91l-87 -19l-42 75z" />
    <glyph glyph-name="nonbreakingspace" unicode="&#xa0;" horiz-adv-x="320" 
 />
    <glyph glyph-name="hbar" unicode="&#x127;" horiz-adv-x="587" 
d="M113 578l2 53l-65 57l75 51l65 -103l-2 -59h9l168 -2l-6 -78l-131 4h-42l-7 -219l105 142l132 -39l61 -113l-14 -228l21 -14l69 110l54 -47l-117 -120l-84 37l-11 259l-69 77l-142 -131v-169l73 -22l6 -29l-195 -1l-6 30l38 15l11 462h-61l-5 79z" />
    <glyph glyph-name="kgreenlandic" unicode="&#x138;" horiz-adv-x="495" 
d="M495 45l-42 -65l-84 51l-135 219l-74 -23l-2 -177l75 -23l6 -27l-198 -5l-6 29l50 21l-1 419l-54 17l2 25l202 3l-6 -37l-68 -14v-180l71 15l78 105l66 123l57 -18l-74 -140l-69 -92l138 -187z" />
    <glyph glyph-name="germandbls" unicode="&#xdf;" horiz-adv-x="600" 
d="M181 593l16 -541l58 -1l16 -48l-197 3l-5 33l48 7l-9 336l1 39l-79 9l3 36l70 19l1 129l99 107l157 -21l5 -1l95 -129l-60 -118v-26l166 -129l29 -170l-133 -132l-78 30l-24 -41l-50 9l35 109l95 -35l74 90l-25 114l-179 125v51l61 112l-58 86l-83 13z" />
    <glyph glyph-name="a" unicode="a" horiz-adv-x="519" 
d="M247 259l-112 -75l-3 -112l40 -21q20 1 37 2q14 1 25.5 2.5t11.5 3.5l4 6t10.5 15.5t14.5 21t17 23.5q20 28 47 64l-7 73zM183 529l226 -53l4 -411l85 -6l1 -46l-124 -12l-42 88l-52 -82l-169 -32l-62 75l4 152l171 111l106 14l8 109l-167 22l-49 -85l-55 58l10 25z" />
    <glyph glyph-name="B" unicode="B" horiz-adv-x="602" 
d="M472 164l-5 95l-93 85l-140 -26l-16 -13l-6 -216l24 -19l142 6zM208 616l8 -205l11 -20l142 31l85 75l-63 134l-145 -2zM552 154l-122 -154l-287 6v0l-108 1l-5 33l112 19l-17 575l-86 29l-7 33h115h1l140 4l158 -20l85 -202l-99 -105l77 -53z" />
    <glyph glyph-name=".ttfautohint" horiz-adv-x="602" 
d="M0 0z" />
    </font>
</defs>
</svg>
